<svg xmlns="http://www.w3.org/2000/svg" viewBox="0 0 203 60"><defs><style>.cls-1{fill:#a6a6a6;}.cls-2{fill:#fff;}</style></defs><title>icon-ios</title><g id="Capa_2" data-name="Capa 2"><g id="Capa_1-2" data-name="Capa 1"><path class="cls-1" d="M186.83,0H14.32L12.76,0a24.1,24.1,0,0,0-3.4.27,12.37,12.37,0,0,0-3.23.94A10.73,10.73,0,0,0,3.39,3a9.43,9.43,0,0,0-2,2.43A9.11,9.11,0,0,0,.33,8.28a16.88,16.88,0,0,0-.3,3c0,.46,0,.92,0,1.38V47.34c0,.46,0,.91,0,1.38a16.77,16.77,0,0,0,.3,3,9.07,9.07,0,0,0,1.06,2.86,9.23,9.23,0,0,0,2,2.42,10.73,10.73,0,0,0,2.74,1.77,12.78,12.78,0,0,0,3.23.95,25.68,25.68,0,0,0,3.4.26l1.56,0H188.67l1.57,0a25.66,25.66,0,0,0,3.39-.26,13.16,13.16,0,0,0,3.24-.95A10.73,10.73,0,0,0,199.61,57a9.86,9.86,0,0,0,2-2.42,9.3,9.3,0,0,0,1-2.86,18.84,18.84,0,0,0,.31-3c0-.47,0-.92,0-1.38s0-1.09,0-1.64V14.3c0-.54,0-1.09,0-1.63s0-.92,0-1.38a19.08,19.08,0,0,0-.31-3,9.34,9.34,0,0,0-1-2.85,10.38,10.38,0,0,0-4.75-4.2,12.33,12.33,0,0,0-3.24-.94A24.08,24.08,0,0,0,190.24,0l-1.57,0Z"/><path d="M14.33,58.69l-1.54,0a24,24,0,0,1-3.17-.24,10.84,10.84,0,0,1-2.81-.83,9,9,0,0,1-2.37-1.52A8.17,8.17,0,0,1,2.71,54a8,8,0,0,1-.92-2.49,15.65,15.65,0,0,1-.28-2.81c0-.32,0-1.37,0-1.37V12.67s0-1,0-1.35a15.54,15.54,0,0,1,.28-2.8A8,8,0,0,1,2.71,6,8.13,8.13,0,0,1,4.43,3.93,9.53,9.53,0,0,1,6.81,2.39a10.73,10.73,0,0,1,2.8-.81,22.73,22.73,0,0,1,3.19-.25l1.53,0H188.66l1.55,0a22.31,22.31,0,0,1,3.16.25,10.58,10.58,0,0,1,2.83.82A9,9,0,0,1,200.3,6a8,8,0,0,1,.91,2.47,18,18,0,0,1,.29,2.83c0,.43,0,.88,0,1.34s0,1.09,0,1.63V45.7c0,.54,0,1.07,0,1.61s0,.93,0,1.39a17.13,17.13,0,0,1-.29,2.78,7.91,7.91,0,0,1-.92,2.51,8.3,8.3,0,0,1-1.72,2.08,9,9,0,0,1-2.37,1.53,11,11,0,0,1-2.83.83,24,24,0,0,1-3.17.24l-1.53,0H14.33Z"/><g id="_Group_" data-name=" Group "><g id="_Group_2" data-name=" Group 2"><g id="_Group_3" data-name=" Group 3"><path id="_Path_" data-name=" Path " class="cls-2" d="M37.15,30.45a7.46,7.46,0,0,1,3.54-6.23,7.59,7.59,0,0,0-6-3.23c-2.52-.27-5,1.5-6.24,1.5S25.17,21,23,21.06a8,8,0,0,0-6.71,4.09c-2.9,5-.73,12.4,2.05,16.46,1.39,2,3,4.21,5.14,4.13s2.86-1.32,5.37-1.32,3.21,1.32,5.38,1.27,3.64-2,5-4a16.43,16.43,0,0,0,2.28-4.64A7.19,7.19,0,0,1,37.15,30.45Z"/><path id="_Path_2" data-name=" Path 2" class="cls-2" d="M33.06,18.32a7.37,7.37,0,0,0,1.67-5.24,7.42,7.42,0,0,0-4.81,2.49,7,7,0,0,0-1.72,5A6.15,6.15,0,0,0,33.06,18.32Z"/></g></g><path class="cls-2" d="M63.45,40.71h-7.1l-1.7,5h-3l6.73-18.62h3.12l6.73,18.62H65.16Zm-6.36-2.32h5.63l-2.78-8.17h-.08Z"/><path class="cls-2" d="M82.74,39c0,4.22-2.26,6.94-5.67,6.94a4.6,4.6,0,0,1-4.27-2.38h-.07v6.73H70V32.16h2.7v2.26h0A4.82,4.82,0,0,1,77,32C80.47,32,82.74,34.75,82.74,39Zm-2.87,0c0-2.74-1.42-4.55-3.58-4.55S72.72,36.24,72.72,39s1.44,4.57,3.57,4.57S79.87,41.73,79.87,39Z"/><path class="cls-2" d="M97.69,39c0,4.22-2.26,6.94-5.67,6.94a4.6,4.6,0,0,1-4.27-2.38h-.07v6.73H84.89V32.16h2.7v2.26h0A4.83,4.83,0,0,1,92,32C95.41,32,97.69,34.75,97.69,39Zm-2.87,0c0-2.74-1.42-4.55-3.59-4.55S87.67,36.24,87.67,39s1.43,4.57,3.56,4.57,3.59-1.79,3.59-4.57Z"/><path class="cls-2" d="M107.57,40.55c.2,1.85,2,3.06,4.45,3.06s4-1.21,4-2.87c0-1.45-1-2.32-3.44-2.91l-2.41-.58c-3.42-.83-5-2.43-5-5,0-3.22,2.8-5.42,6.78-5.42s6.63,2.2,6.73,5.42h-2.82c-.17-1.86-1.7-3-4-3s-3.78,1.13-3.78,2.78c0,1.32,1,2.1,3.38,2.69l2,.5c3.82.91,5.41,2.44,5.41,5.17,0,3.48-2.77,5.66-7.19,5.66-4.13,0-6.92-2.13-7.1-5.5Z"/><path class="cls-2" d="M125,29v3.21h2.58v2.21H125v7.49c0,1.16.52,1.7,1.65,1.7a7.11,7.11,0,0,0,.92-.06v2.19a7.32,7.32,0,0,1-1.55.13c-2.75,0-3.82-1-3.82-3.66V34.37h-2V32.16h2V29Z"/><path class="cls-2" d="M129.1,39c0-4.27,2.51-7,6.44-7S142,34.68,142,39s-2.49,7-6.44,7S129.1,43.24,129.1,39Zm10,0c0-2.93-1.34-4.66-3.6-4.66s-3.6,1.75-3.6,4.66,1.34,4.66,3.6,4.66,3.6-1.71,3.6-4.66Z"/><path class="cls-2" d="M144.28,32.16h2.66v2.32H147A3.25,3.25,0,0,1,150.27,32a4.33,4.33,0,0,1,.95.11v2.6a4.06,4.06,0,0,0-1.25-.17,2.81,2.81,0,0,0-2.92,2.7,2.07,2.07,0,0,0,0,.43v8.05h-2.79Z"/><path class="cls-2" d="M164.08,41.76c-.38,2.46-2.78,4.15-5.85,4.15-3.95,0-6.4-2.64-6.4-6.89s2.46-7,6.28-7,6.12,2.58,6.12,6.7v.95h-9.59v.17a3.53,3.53,0,0,0,3.21,3.83,3.31,3.31,0,0,0,.44,0,3.08,3.08,0,0,0,3.14-1.91Zm-9.43-4.06h6.79a3.27,3.27,0,0,0-3.08-3.44h-.25a3.43,3.43,0,0,0-3.46,3.41Z"/></g><g id="_Group_4" data-name=" Group 4"><path class="cls-2" d="M53.14,17.57c0-2.9,1.55-4.69,4-4.69A3.57,3.57,0,0,1,60.89,16H59.51a2.29,2.29,0,0,0-2.34-1.8c-1.6,0-2.61,1.3-2.61,3.39s1,3.4,2.62,3.4a2.24,2.24,0,0,0,2.33-1.65h1.38a3.48,3.48,0,0,1-3.71,2.94C54.69,22.26,53.14,20.47,53.14,17.57Z"/><path class="cls-2" d="M62.42,18.67a3.2,3.2,0,0,1,6.37-.61,3.11,3.11,0,0,1,0,.61,3.2,3.2,0,1,1-6.37,0Zm5,0c0-1.47-.65-2.32-1.81-2.32s-1.81.85-1.81,2.32S64.44,21,65.6,21,67.41,20.14,67.41,18.67Z"/><path class="cls-2" d="M70.57,15.29h1.29v1.08H72a2,2,0,0,1,2-1.21,2.2,2.2,0,0,1,2.36,2,2.57,2.57,0,0,1,0,.48v4.38H75V18c0-1.09-.47-1.63-1.46-1.63a1.55,1.55,0,0,0-1.62,1.48,1.93,1.93,0,0,0,0,.24v3.95H70.57Z"/><path class="cls-2" d="M80.84,15.16c1.52,0,2.51.71,2.64,1.9H82.21c-.13-.5-.61-.81-1.37-.81s-1.31.35-1.31.88.34.66,1.08.82l1.12.26c1.28.3,1.88.85,1.88,1.85,0,1.27-1.18,2.12-2.79,2.12s-2.66-.73-2.78-1.93h1.34a1.37,1.37,0,0,0,1.47.85c.83,0,1.42-.37,1.42-.91s-.32-.67-1-.83l-1.18-.27c-1.29-.31-1.88-.88-1.88-1.89C78.22,16,79.32,15.16,80.84,15.16Z"/><path class="cls-2" d="M85.3,14.16,86.85,12h1.57l-1.75,2.13Zm.14,1.13h1.32v6.76H85.44Z"/><path class="cls-2" d="M88.84,22.72H90.2c.11.49.68.81,1.58.81,1.11,0,1.77-.53,1.77-1.42v-1.3h-.1A2.3,2.3,0,0,1,91.36,22c-1.72,0-2.79-1.34-2.79-3.36s1.08-3.41,2.81-3.41a2.35,2.35,0,0,1,2.12,1.19h.1V15.29h1.28V22.1c0,1.55-1.21,2.53-3.12,2.53C90.07,24.63,89,23.87,88.84,22.72Zm4.73-4.13c0-1.35-.69-2.21-1.83-2.21S90,17.24,90,18.59s.64,2.2,1.79,2.2S93.57,19.94,93.57,18.59Z"/><path class="cls-2" d="M102.7,22.05h-1.29V21h-.1a2,2,0,0,1-2,1.21,2.21,2.21,0,0,1-2.35-2,2.36,2.36,0,0,1,0-.46V15.29h1.34v4c0,1.09.43,1.61,1.41,1.61a1.54,1.54,0,0,0,1.68-1.38,1.16,1.16,0,0,0,0-.32V15.29h1.34Z"/><path class="cls-2" d="M110.53,20.22a2.73,2.73,0,0,1-2.92,2,3.07,3.07,0,0,1-3.15-3,2.1,2.1,0,0,1,0-.5,3.12,3.12,0,0,1,2.67-3.5,3.25,3.25,0,0,1,.44,0c1.88,0,3,1.29,3,3.41V19h-4.77v.08A1.8,1.8,0,0,0,107.47,21h.17a1.6,1.6,0,0,0,1.61-.82Zm-4.69-2.17h3.42a1.64,1.64,0,0,0-1.51-1.75h-.16a1.73,1.73,0,0,0-1.75,1.7Z"/><path class="cls-2" d="M112.47,12.66h1.33v9.39h-1.33Z"/><path class="cls-2" d="M115.65,18.67a3.2,3.2,0,0,1,6.37-.61,3.11,3.11,0,0,1,0,.61,3.2,3.2,0,1,1-6.37,0Zm5,0c0-1.47-.66-2.32-1.81-2.32S117,17.2,117,18.67s.65,2.32,1.81,2.32S120.65,20.14,120.65,18.67Z"/><path class="cls-2" d="M133.19,20.22a2.75,2.75,0,0,1-2.93,2,3.08,3.08,0,0,1-3.15-3,4.19,4.19,0,0,1,0-.5,3.12,3.12,0,0,1,2.67-3.5l.44,0c1.88,0,3,1.29,3,3.41V19H128.5v.08A1.79,1.79,0,0,0,130.13,21h.17a1.6,1.6,0,0,0,1.6-.82Zm-4.69-2.17h3.41a1.63,1.63,0,0,0-1.51-1.75h-.15A1.72,1.72,0,0,0,128.5,18v.05Z"/><path class="cls-2" d="M135.06,15.29h1.28v1.08h.1a2,2,0,0,1,2-1.21,2.2,2.2,0,0,1,2.35,2,1.93,1.93,0,0,1,0,.48v4.38h-1.33V18c0-1.09-.47-1.63-1.46-1.63a1.55,1.55,0,0,0-1.62,1.48,1.93,1.93,0,0,0,0,.24v3.95h-1.33Z"/><path class="cls-2" d="M152.23,20.22a2.74,2.74,0,0,1-2.93,2,3.07,3.07,0,0,1-3.14-3,2.79,2.79,0,0,1,0-.5,3.14,3.14,0,0,1,3.12-3.53c1.88,0,3,1.29,3,3.41V19h-4.77v.08A1.8,1.8,0,0,0,149.17,21h.17a1.61,1.61,0,0,0,1.61-.82Zm-4.69-2.17H151a1.63,1.63,0,0,0-1.5-1.75h-.16a1.72,1.72,0,0,0-1.75,1.7v.05Z"/><path class="cls-2" d="M154.16,12.66h1.34v9.39h-1.34Z"/></g></g></g></svg>