<svg xmlns="http://www.w3.org/2000/svg" xmlns:xlink="http://www.w3.org/1999/xlink" viewBox="0 0 203 60"><defs><style>.cls-1{fill:#a6a6a6;}.cls-10,.cls-2,.cls-9{fill:#fff;}.cls-3{fill:url(#linear-gradient);}.cls-4{fill:url(#linear-gradient-2);}.cls-5{fill:url(#linear-gradient-3);}.cls-6{fill:url(#linear-gradient-4);}.cls-7{opacity:0.2;}.cls-7,.cls-8,.cls-9{isolation:isolate;}.cls-8{opacity:0.12;}.cls-9{opacity:0.25;}.cls-10{stroke:#fff;stroke-miterlimit:10;stroke-width:0.2px;}</style><linearGradient id="linear-gradient" x1="32.7" y1="-4127.48" x2="7.53" y2="-4152.66" gradientTransform="matrix(1, 0, 0, -1, 0, -4114.42)" gradientUnits="userSpaceOnUse"><stop offset="0" stop-color="#00a0ff"/><stop offset="0.01" stop-color="#00a1ff"/><stop offset="0.26" stop-color="#00beff"/><stop offset="0.51" stop-color="#00d2ff"/><stop offset="0.76" stop-color="#00dfff"/><stop offset="1" stop-color="#00e3ff"/></linearGradient><linearGradient id="linear-gradient-2" x1="50.75" y1="-4144.42" x2="14.46" y2="-4144.42" gradientTransform="matrix(1, 0, 0, -1, 0, -4114.42)" gradientUnits="userSpaceOnUse"><stop offset="0" stop-color="#ffe000"/><stop offset="0.41" stop-color="#ffbd00"/><stop offset="0.78" stop-color="orange"/><stop offset="1" stop-color="#ff9c00"/></linearGradient><linearGradient id="linear-gradient-3" x1="37.24" y1="-4147.86" x2="3.1" y2="-4182" gradientTransform="matrix(1, 0, 0, -1, 0, -4114.42)" gradientUnits="userSpaceOnUse"><stop offset="0" stop-color="#ff3a44"/><stop offset="1" stop-color="#c31162"/></linearGradient><linearGradient id="linear-gradient-4" x1="10.95" y1="-4114.68" x2="26.19" y2="-4129.93" gradientTransform="matrix(1, 0, 0, -1, 0, -4114.42)" gradientUnits="userSpaceOnUse"><stop offset="0" stop-color="#32a071"/><stop offset="0.07" stop-color="#2da771"/><stop offset="0.48" stop-color="#15cf74"/><stop offset="0.8" stop-color="#06e775"/><stop offset="1" stop-color="#00f076"/></linearGradient></defs><title>icon-android</title><g id="Capa_2" data-name="Capa 2"><g id="Capa_1-2" data-name="Capa 1"><rect width="202.5" height="60" rx="7.5"/><path class="cls-1" d="M195.48,1.2a6.32,6.32,0,0,1,6.32,6.3v45a6.32,6.32,0,0,1-6.32,6.3H7.52A6.32,6.32,0,0,1,1.2,52.5V7.5A6.32,6.32,0,0,1,7.52,1.2h188m0-1.2H7.52A7.53,7.53,0,0,0,0,7.5v45A7.53,7.53,0,0,0,7.52,60h188A7.53,7.53,0,0,0,203,52.5V7.5A7.53,7.53,0,0,0,195.48,0Z"/><path class="cls-2" d="M102.2,32.63A6.38,6.38,0,1,0,108.61,39,6.28,6.28,0,0,0,102.2,32.63Zm0,10.24A3.87,3.87,0,1,1,105.8,39,3.69,3.69,0,0,1,102.2,42.87Zm-14-10.24A6.38,6.38,0,1,0,94.64,39,6.28,6.28,0,0,0,88.23,32.63Zm0,10.24A3.87,3.87,0,1,1,91.83,39,3.69,3.69,0,0,1,88.23,42.87ZM71.61,34.58v2.71h6.48a5.65,5.65,0,0,1-1.47,3.41,6.66,6.66,0,0,1-5,2,7.2,7.2,0,0,1,0-14.4,6.89,6.89,0,0,1,4.89,1.93l1.91-1.91a9.48,9.48,0,0,0-6.8-2.73,9.91,9.91,0,1,0,0,19.82,9.08,9.08,0,0,0,6.92-2.78,9,9,0,0,0,2.34-6.33,9.57,9.57,0,0,0-.14-1.7Zm68,2.11a5.92,5.92,0,0,0-5.46-4.06,6.06,6.06,0,0,0-6,6.38,6.24,6.24,0,0,0,6.33,6.38,6.36,6.36,0,0,0,5.32-2.83l-2.18-1.45a3.63,3.63,0,0,1-3.14,1.76,3.23,3.23,0,0,1-3.09-1.93l8.53-3.53Zm-8.7,2.12a3.5,3.5,0,0,1,3.33-3.72,2.47,2.47,0,0,1,2.37,1.36ZM123.94,45h2.8V26.25h-2.8Zm-4.59-11h-.1a4.39,4.39,0,0,0-3.36-1.42,6.39,6.39,0,0,0,0,12.76,4.34,4.34,0,0,0,3.36-1.45h.1v.92c0,2.44-1.3,3.74-3.41,3.74a3.52,3.52,0,0,1-3.21-2.27l-2.44,1a6.06,6.06,0,0,0,5.65,3.77c3.29,0,6.07-1.93,6.07-6.64V33h-2.66Zm-3.21,8.82a3.88,3.88,0,0,1,0-7.73c1.91,0,3.4,1.64,3.4,3.89A3.56,3.56,0,0,1,116.14,42.87Zm36.57-16.62H146V45h2.8V37.9h3.91a5.83,5.83,0,1,0,0-11.65Zm.07,9h-4V28.86h4a3.22,3.22,0,1,1,0,6.43Zm17.3-2.7a5.27,5.27,0,0,0-5,2.87l2.49,1a2.64,2.64,0,0,1,2.56-1.37,2.69,2.69,0,0,1,2.94,2.41v.19a6.2,6.2,0,0,0-2.92-.72c-2.68,0-5.4,1.47-5.4,4.22,0,2.51,2.19,4.12,4.65,4.12A3.94,3.94,0,0,0,173,43.52h.1V45h2.7V37.78C175.77,34.45,173.29,32.59,170.08,32.59Zm-.34,10.28c-.92,0-2.2-.46-2.2-1.59,0-1.45,1.6-2,3-2a5,5,0,0,1,2.56.62A3.39,3.39,0,0,1,169.74,42.87ZM185.61,33l-3.21,8.13h-.09L179,33h-3l5,11.37-2.85,6.32H181L188.73,33ZM160.4,45h2.8V26.25h-2.8Z"/><path class="cls-3" d="M15.65,11.31a3,3,0,0,0-.69,2.1V46.59a3.05,3.05,0,0,0,.69,2.11l.11.1L34.35,30.22v-.44L15.76,11.2Z"/><path class="cls-4" d="M40.54,36.42l-6.19-6.2v-.44l6.19-6.19.14.08L48,27.84c2.1,1.19,2.1,3.14,0,4.33l-7.34,4.17Z"/><path class="cls-5" d="M40.68,36.34,34.35,30,15.65,48.7c.69.73,1.83.82,3.12.09L40.68,36.34"/><path class="cls-6" d="M40.68,23.67,18.77,11.21c-1.29-.73-2.43-.63-3.12.1L34.35,30Z"/><path class="cls-7" d="M40.54,36.2,18.77,48.57a2.51,2.51,0,0,1-3,0h0l-.11.12h0l.11.1h0a2.51,2.51,0,0,0,3,0L40.68,36.34Z"/><path class="cls-8" d="M15.65,48.48A3,3,0,0,1,15,46.37v.22a3.05,3.05,0,0,0,.69,2.11l.11-.12Z"/><path class="cls-8" d="M48,32,40.54,36.2l.14.14L48,32.17A2.63,2.63,0,0,0,49.59,30h0A2.77,2.77,0,0,1,48,32Z"/><path class="cls-9" d="M18.77,11.43,48,28.05A2.77,2.77,0,0,1,49.59,30h0A2.62,2.62,0,0,0,48,27.84L18.77,11.22C16.67,10,15,11,15,13.42v.21C15,11.23,16.67,10.24,18.77,11.43Z"/><path class="cls-10" d="M61.92,19.5v-9h2.75A4.48,4.48,0,0,1,68,11.75,4.41,4.41,0,0,1,69.24,15,4.41,4.41,0,0,1,68,18.25a4.48,4.48,0,0,1-3.32,1.25Zm1.16-1.11h1.59a3.36,3.36,0,0,0,2.47-.89,3.32,3.32,0,0,0,.91-2.5,3.35,3.35,0,0,0-.91-2.5,3.4,3.4,0,0,0-2.47-.89H63.08Z"/><path class="cls-10" d="M70.86,19.5v-9H72v9Z"/><path class="cls-10" d="M76.61,19.7a3.31,3.31,0,0,1-1.91-.64,3,3,0,0,1-1.23-1.8l1.06-.42a2.39,2.39,0,0,0,.77,1.25,2,2,0,0,0,1.31.5,2.1,2.1,0,0,0,1.29-.39,1.26,1.26,0,0,0,.54-1.08A1.37,1.37,0,0,0,77.9,16a5.64,5.64,0,0,0-1.69-.76,4.53,4.53,0,0,1-1.81-1,2,2,0,0,1-.62-1.53A2.21,2.21,0,0,1,74.55,11a2.8,2.8,0,0,1,2-.72,2.91,2.91,0,0,1,1.86.57,2.62,2.62,0,0,1,.93,1.25l-1,.44a1.64,1.64,0,0,0-.56-.79,1.78,1.78,0,0,0-1.15-.36,1.75,1.75,0,0,0-1.14.37,1.1,1.1,0,0,0-.47.92,1.05,1.05,0,0,0,.43.85,4.12,4.12,0,0,0,1.28.62,9.42,9.42,0,0,1,1.11.42,4.7,4.7,0,0,1,.9.53,2,2,0,0,1,.69.83,2.6,2.6,0,0,1,.24,1.15,2.52,2.52,0,0,1-.27,1.17,2.29,2.29,0,0,1-.72.82,3.5,3.5,0,0,1-1,.45A3.45,3.45,0,0,1,76.61,19.7Z"/><path class="cls-10" d="M82.43,19.5H81.28v-9h3.06a2.81,2.81,0,0,1,2,.76,2.49,2.49,0,0,1,.84,1.92,2.45,2.45,0,0,1-.84,1.91,2.81,2.81,0,0,1-2,.76H82.43Zm0-4.75h1.94a1.48,1.48,0,0,0,1.17-.49A1.61,1.61,0,0,0,86,13.18a1.57,1.57,0,0,0-.44-1.08,1.48,1.48,0,0,0-1.17-.49H82.43Z"/><path class="cls-10" d="M96,18.34a4.68,4.68,0,0,1-6.6,0A4.59,4.59,0,0,1,88.05,15a4.59,4.59,0,0,1,1.33-3.34,4.66,4.66,0,0,1,6.59,0A4.58,4.58,0,0,1,97.3,15,4.62,4.62,0,0,1,96,18.34Zm-5.75-.76a3.46,3.46,0,0,0,4.89,0,3.49,3.49,0,0,0,1-2.58,3.49,3.49,0,0,0-1-2.58,3.46,3.46,0,0,0-4.89,0,3.53,3.53,0,0,0-1,2.58A3.53,3.53,0,0,0,90.23,17.58Z"/><path class="cls-10" d="M98.93,19.5v-9h1.4l4.38,7h.05l-.05-1.73V10.5h1.15v9h-1.2l-4.58-7.34h0l0,1.73V19.5Z"/><path class="cls-10" d="M107.93,19.5v-9h1.15v9Z"/><path class="cls-10" d="M111.14,19.5v-9h3.26a2.64,2.64,0,0,1,1.83.7A2.27,2.27,0,0,1,117,13a2,2,0,0,1-.33,1.13,2,2,0,0,1-.89.74v0a2.25,2.25,0,0,1,1.09.78,2,2,0,0,1,.43,1.29,2.37,2.37,0,0,1-.81,1.83,2.76,2.76,0,0,1-1.92.73Zm1.16-5.14h2.1A1.38,1.38,0,0,0,115.46,12a1.31,1.31,0,0,0-1-.42H112.3Zm0,4h2.32a1.39,1.39,0,0,0,1.09-.46,1.53,1.53,0,0,0,.41-1,1.42,1.42,0,0,0-.43-1,1.44,1.44,0,0,0-1.12-.46H112.3Z"/><path class="cls-10" d="M118.86,19.5v-9H120v7.89h3.89V19.5Z"/><path class="cls-10" d="M130.63,11.61h-4.1v2.85h3.69v1.08h-3.69v2.85h4.1V19.5h-5.26v-9h5.26Z"/><path class="cls-10" d="M140.71,11.61h-4.1v2.85h3.69v1.08h-3.69v2.85h4.1V19.5h-5.26v-9h5.26Z"/><path class="cls-10" d="M142.52,19.5v-9h1.4l4.38,7h0l0-1.73V10.5h1.16v9h-1.21l-4.58-7.34h0l0,1.73V19.5Z"/></g></g></svg>