<svg xmlns="http://www.w3.org/2000/svg" viewBox="0 0 279.47 115.4"><defs><style>.cls-1{fill:#2292b1;}.cls-10,.cls-11,.cls-12,.cls-13,.cls-2,.cls-7,.cls-9{fill:none;}.cls-3{fill:#93d3e6;}.cls-4,.cls-8{fill:#fff;}.cls-5{fill:#1a171b;}.cls-6{fill:#fcda6b;}.cls-7{stroke:#1a171b;}.cls-12,.cls-13,.cls-7,.cls-8{stroke-linecap:round;}.cls-13,.cls-7,.cls-8{stroke-linejoin:round;}.cls-10,.cls-7{stroke-width:1.09px;}.cls-10,.cls-11,.cls-12,.cls-13,.cls-8,.cls-9{stroke:#2292b1;}.cls-11,.cls-12,.cls-13,.cls-8{stroke-width:0.9px;}.cls-10,.cls-11,.cls-12,.cls-9{stroke-miterlimit:10;}.cls-9{stroke-width:0.18px;}</style></defs><title>logo_miboky</title><g id="Capa_2" data-name="Capa 2"><g id="Capa_1-2" data-name="Capa 1"><path class="cls-1" d="M20.68,9,16.35,0h0l4.34,9S10.51,21,13.83,35.17C10.53,21,20.68,9,20.68,9Z"/><path class="cls-1" d="M74.47,27.85c0-5.73-1.93-11.67-7.38-18.62h0C72.53,16.18,74.46,22.12,74.47,27.85Z"/><path class="cls-1" d="M44.91,6c10-.19,25.24-5.6,26.23-6h0S54.62,6,44.3,6h0Z"/><path class="cls-2" d="M44.3,6c-10.59,0-28-6-28-6V0C17,.28,33.92,6,44.28,6Z"/><path class="cls-3" d="M67.08,9.23,71.19,0l-.05,0-4.06,9.2Z"/><path class="cls-3" d="M69.78,46.5c1.07-2.81,2-5.48,2.73-7.67a36.56,36.56,0,0,0,2-11c0-5.73-1.93-11.67-7.39-18.62h0L71.14,0C70.15.38,54.88,5.77,44.91,6V63.35C49.9,53.86,60.36,49,69.78,46.5Z"/><path class="cls-1" d="M44.73,63.69l.17-.33V6c-.18,0-.41,0-.58,0h0C33.92,6,17,.27,16.35,0L20.68,9S10.53,21,13.83,35.18A25.91,25.91,0,0,0,15,38.83c1,2.46,2,4.83,3,7.08C41.37,50.44,44.73,63.69,44.73,63.69Z"/><circle class="cls-4" cx="32.11" cy="27.31" r="11.05"/><circle class="cls-4" cx="57.15" cy="27.31" r="11.05"/><circle class="cls-5" cx="31.78" cy="34.26" r="3.17"/><circle class="cls-5" cx="58.19" cy="34.26" r="3.17"/><path class="cls-6" d="M44.78,42.13,40,34.9s5.25-4.34,9.23.18Z"/><path class="cls-1" d="M45.8,110a.72.72,0,0,1-.49-.19C36.13,101.5,1.45,91.08,1.1,91a.72.72,0,0,1-.52-.68L0,44.43a.72.72,0,0,1,.72-.73,82.07,82.07,0,0,1,23.59,3,40.89,40.89,0,0,1,13.53,6.75c6.23,4.91,7.53,9.82,7.59,10a.72.72,0,0,1-1.4.36h0s-1.28-4.72-7.19-9.33a39.66,39.66,0,0,0-13.05-6.45A80,80,0,0,0,1.46,45.14L2,89.74c2,.62,9.75,3,18.25,6.16,13.29,4.92,22,9.23,26,12.82A.72.72,0,0,1,45.8,110Z"/><path class="cls-7" d="M51.71,62.22"/><path class="cls-3" d="M45.38,64A28.12,28.12,0,0,1,56.16,52.86a52.93,52.93,0,0,1,14.38-5.8,82.23,82.23,0,0,1,17.25-2.45V71.15h1.45V43.87a.76.76,0,0,0-.77-.72,83.1,83.1,0,0,0-18.28,2.5,54.19,54.19,0,0,0-14.76,6A29.56,29.56,0,0,0,44.09,63.36a.72.72,0,1,0,1.29.65Z"/><path class="cls-3" d="M80.73,92.75a268.24,268.24,0,0,0-27.17,11.19c-6.26,3.1-8.17,4.71-8.25,4.78a.73.73,0,0,0,.48,1.27.66.66,0,0,0,.44-.17c.07-.06,6.63-5.4,34.49-15.53Z"/><path class="cls-8" d="M50.32,91"/><path class="cls-8" d="M102.07,61.13"/><line class="cls-8" x1="50.33" y1="91.14" x2="57.75" y2="91.14"/><path class="cls-8" d="M94.3,55.5c0-.18,7.6,0,7.6,0"/><line class="cls-8" x1="94.3" y1="63.46" x2="101.9" y2="63.46"/><line class="cls-8" x1="100.98" y1="69.18" x2="102.61" y2="70.09"/><path class="cls-9" d="M256.68,66.26v.27l0,.54.09,1.14.19,2.33q.18,2.34.33,4.7c.2,3.14.34,6.29.41,9.46"/><path class="cls-9" d="M255.6,66.24a.75.75,0,0,0,0,.12v.24l0,.55.09,1.15.19,2.33q.18,2.33.33,4.68c.2,3.13.34,6.26.41,9.41"/><path class="cls-9" d="M254.51,66.23a1.23,1.23,0,0,0,0,.19l0,.26,0,.56.09,1.15.19,2.32q.18,2.33.33,4.66c.2,3.11.34,6.24.4,9.37"/><path class="cls-9" d="M253.43,66.21a4.56,4.56,0,0,0,0,.54l0,.57.09,1.16.19,2.32q.18,2.32.33,4.65c.2,3.1.34,6.21.4,9.32"/><path class="cls-9" d="M252.34,66.2a5.29,5.29,0,0,0,0,.62l0,.59.09,1.16.19,2.32q.18,2.32.33,4.63c.19,3.09.34,6.18.4,9.27"/><path class="cls-9" d="M251.26,66.18a3.15,3.15,0,0,0,0,.39l0,.32,0,.6.09,1.17L251.6,71q.18,2.31.33,4.62c.19,3.08.34,6.15.4,9.23"/><path class="cls-9" d="M250.17,66.16a4,4,0,0,0,0,.46l0,.34,0,.61.09,1.17.19,2.31q.18,2.3.33,4.6c.19,3.06.33,6.13.4,9.18"/><path class="cls-9" d="M249.09,66.15a5,5,0,0,0,0,.53l0,.36,0,.62.09,1.17.18,2.31q.18,2.3.33,4.59c.19,3.05.33,6.1.39,9.13"/><path class="cls-9" d="M257.76,84.7c.06,3.17,0,6.36-.13,9.58-.09,1.61-.22,3.24-.41,4.88a43.46,43.46,0,0,1-.88,5"/><path class="cls-9" d="M256.67,84.73c.06,3.15,0,6.31-.13,9.5-.09,1.6-.21,3.2-.41,4.81a42.33,42.33,0,0,1-.86,4.9"/><path class="cls-9" d="M255.59,84.75c.06,3.13,0,6.27-.12,9.42-.09,1.58-.21,3.16-.4,4.74a41.29,41.29,0,0,1-.83,4.77"/><path class="cls-9" d="M254.5,84.77c.06,3.11,0,6.23-.12,9.34-.08,1.56-.21,3.12-.4,4.67a40.23,40.23,0,0,1-.81,4.64"/><path class="cls-9" d="M253.41,84.79c.06,3.09,0,6.18-.12,9.26-.08,1.54-.21,3.07-.39,4.6a39.2,39.2,0,0,1-.79,4.52"/><path class="cls-9" d="M252.33,84.81c.06,3.07,0,6.14-.12,9.18-.08,1.52-.2,3-.38,4.53a38.08,38.08,0,0,1-.76,4.39"/><path class="cls-9" d="M251.24,84.83c.06,3.05,0,6.1-.12,9.1-.08,1.5-.2,3-.38,4.46a37,37,0,0,1-.74,4.26"/><path class="cls-9" d="M250.16,84.86c.06,3,0,6.05-.12,9-.08,1.48-.2,3-.37,4.39a36,36,0,0,1-.72,4.14"/><path class="cls-9" d="M256.34,104.2a25.21,25.21,0,0,1-.78,2.62,15.76,15.76,0,0,1-1.3,2.78,10.83,10.83,0,0,1-1,1.45,9,9,0,0,1-.69.72l-.4.35-.2.16-.16.12a12.8,12.8,0,0,1-2.87,1.62,12.51,12.51,0,0,1-6.56.77,11.89,11.89,0,0,1-6.13-2.84"/><path class="cls-9" d="M255.28,103.94a24.13,24.13,0,0,1-.75,2.51,14.69,14.69,0,0,1-1.21,2.58,9.73,9.73,0,0,1-.94,1.31,7.89,7.89,0,0,1-.61.64l-.35.31-.18.14-.15.11a11.72,11.72,0,0,1-2.63,1.49,11.42,11.42,0,0,1-6,.7,10.81,10.81,0,0,1-5.57-2.57"/><path class="cls-9" d="M254.23,103.68a23.09,23.09,0,0,1-.71,2.4,13.63,13.63,0,0,1-1.11,2.39,8.64,8.64,0,0,1-.83,1.16,6.81,6.81,0,0,1-.53.55l-.3.26-.15.12-.14.1a10.63,10.63,0,0,1-2.39,1.35,10.13,10.13,0,0,1-10.43-1.67"/><path class="cls-9" d="M253.17,103.43a22,22,0,0,1-.68,2.29,12.56,12.56,0,0,1-1,2.2,7.59,7.59,0,0,1-.73,1,5.7,5.7,0,0,1-.44.46,5.52,5.52,0,0,1-.49.41,9.55,9.55,0,0,1-2.14,1.21,9.25,9.25,0,0,1-4.85.57,8.65,8.65,0,0,1-4.45-2"/><path class="cls-9" d="M252.12,103.17a21,21,0,0,1-.65,2.17,11.49,11.49,0,0,1-.93,2,5.26,5.26,0,0,1-1.39,1.58,8.45,8.45,0,0,1-1.9,1.07,8.17,8.17,0,0,1-4.28.5,7.57,7.57,0,0,1-3.89-1.78"/><path class="cls-9" d="M251.06,102.91a19.89,19.89,0,0,1-.61,2.06,10.41,10.41,0,0,1-.84,1.82,5.42,5.42,0,0,1-.52.73,3.54,3.54,0,0,1-.28.29l-.14.12-.17.13a7.38,7.38,0,0,1-1.65.94,7.08,7.08,0,0,1-3.71.43,6.49,6.49,0,0,1-3.33-1.52"/><path class="cls-9" d="M250,102.66a18.86,18.86,0,0,1-.58,1.95,9.37,9.37,0,0,1-.75,1.63,4.34,4.34,0,0,1-.41.58l-.19.2-.09.08-.13.1a6.29,6.29,0,0,1-1.41.8,6,6,0,0,1-3.14.37,5.41,5.41,0,0,1-2.77-1.25"/><path class="cls-9" d="M249,102.4a17.75,17.75,0,0,1-.54,1.83,8.31,8.31,0,0,1-.66,1.44,3.28,3.28,0,0,1-.31.44l-.11.12,0,0-.09.07A5.19,5.19,0,0,1,246,107a4.9,4.9,0,0,1-2.57.3,4.33,4.33,0,0,1-2.21-1"/><path class="cls-9" d="M236.19,112a10.34,10.34,0,0,1-2.26-2.87,9.75,9.75,0,0,1-1.09-3.63,10.42,10.42,0,0,1,.3-3.63,11.91,11.91,0,0,1,.55-1.61c.11-.25.22-.5.34-.75l.33-.63a25,25,0,0,1,3.13-4.49,31.72,31.72,0,0,1,3.79-3.68"/><path class="cls-9" d="M236.92,111.16a9.26,9.26,0,0,1-2-2.57,8.67,8.67,0,0,1-1-3.22,9.34,9.34,0,0,1,.27-3.25,10.83,10.83,0,0,1,.5-1.47c.1-.23.2-.46.31-.68l.31-.6a23.89,23.89,0,0,1,3-4.3A30.63,30.63,0,0,1,242,91.52"/><path class="cls-9" d="M237.64,110.35a8.17,8.17,0,0,1-1.79-2.27,7.58,7.58,0,0,1-.85-2.82,8.25,8.25,0,0,1,.24-2.87,9.73,9.73,0,0,1,.45-1.32c.09-.21.18-.42.28-.62l.29-.57a22.81,22.81,0,0,1,2.86-4.1,29.54,29.54,0,0,1,3.53-3.42"/><path class="cls-9" d="M238.36,109.54a7.08,7.08,0,0,1-1.55-2,6.49,6.49,0,0,1-.73-2.42,7.16,7.16,0,0,1,.21-2.49,8.65,8.65,0,0,1,.4-1.17c.16-.38.34-.74.53-1.09A21.71,21.71,0,0,1,240,96.49a28.47,28.47,0,0,1,3.4-3.3"/><path class="cls-9" d="M239.08,108.73a6,6,0,0,1-1.32-1.66,5.4,5.4,0,0,1-.6-2,6.08,6.08,0,0,1,.18-2.12,7.58,7.58,0,0,1,.35-1c.14-.33.31-.66.49-1A23.72,23.72,0,0,1,244,94"/><path class="cls-9" d="M239.81,107.92a4.55,4.55,0,0,1-1.56-3,5,5,0,0,1,.15-1.74,6.47,6.47,0,0,1,.3-.88c.06-.15.13-.29.2-.44l.24-.47a22.65,22.65,0,0,1,5.6-6.56"/><path class="cls-9" d="M240.53,107.11a3.83,3.83,0,0,1-.84-1.06,3.22,3.22,0,0,1-.36-1.21,3.9,3.9,0,0,1,.12-1.36,5.39,5.39,0,0,1,.25-.73c.05-.12.11-.25.17-.37l.22-.43a21.58,21.58,0,0,1,5.33-6.24"/><path class="cls-9" d="M241.25,106.3a2.75,2.75,0,0,1-.61-.76,2.13,2.13,0,0,1-.24-.8,2.82,2.82,0,0,1,.09-1,4.31,4.31,0,0,1,.2-.59c0-.1.09-.21.14-.31l.21-.4a20.51,20.51,0,0,1,5.07-5.91"/><path class="cls-9" d="M241.28,90.68A39.43,39.43,0,0,1,250,85.26a34.74,34.74,0,0,1,4.9-1.81c.43-.12.87-.23,1.31-.33l1.26-.26c.83-.16,1.63-.29,2.43-.42"/><path class="cls-9" d="M242,91.52a38.36,38.36,0,0,1,8.49-5.27,33.69,33.69,0,0,1,4.75-1.75c.41-.12.83-.22,1.26-.32l1.23-.26c.81-.15,1.6-.29,2.39-.41"/><path class="cls-9" d="M242.66,92.36a37.28,37.28,0,0,1,8.25-5.11,32.61,32.61,0,0,1,4.59-1.7q.6-.17,1.21-.31l1.19-.25c.79-.15,1.57-.28,2.35-.4"/><path class="cls-9" d="M243.35,93.19a36.2,36.2,0,0,1,8-5,31.54,31.54,0,0,1,4.44-1.64,40,40,0,0,1,4.62-.93"/><path class="cls-9" d="M244,94a35.12,35.12,0,0,1,7.77-4.81,30.44,30.44,0,0,1,4.28-1.58,39,39,0,0,1,4.49-.9"/><path class="cls-9" d="M244.74,94.87a34,34,0,0,1,7.52-4.66,29.37,29.37,0,0,1,4.13-1.53,38,38,0,0,1,4.37-.87"/><path class="cls-9" d="M245.43,95.71a33,33,0,0,1,7.28-4.51,28.32,28.32,0,0,1,4-1.47,37.09,37.09,0,0,1,4.24-.85"/><path class="cls-9" d="M246.12,96.54a31.89,31.89,0,0,1,7-4.36A27.22,27.22,0,0,1,257,90.77a36.08,36.08,0,0,1,4.11-.82"/><path class="cls-9" d="M259.93,82.44c3.19-.48,6.31-.83,9.44-1.14q2.34-.23,4.68-.43c1.56-.13,3.11-.26,4.7-.37"/><path class="cls-9" d="M260.09,83.52c3.16-.48,6.27-.82,9.38-1.13s6.22-.57,9.35-.8"/><path class="cls-9" d="M260.26,84.59c3.12-.47,6.22-.81,9.33-1.12s6.2-.57,9.32-.79"/><path class="cls-9" d="M260.42,85.66c3.08-.47,6.17-.81,9.27-1.11s6.19-.57,9.29-.79"/><path class="cls-9" d="M260.59,86.74c3-.46,6.13-.8,9.21-1.11s6.17-.56,9.26-.79"/><path class="cls-9" d="M260.75,87.81c3-.46,6.08-.79,9.15-1.1s6.16-.56,9.23-.78"/><path class="cls-9" d="M260.92,88.88c3-.45,6-.79,9.09-1.09s6.14-.56,9.19-.78"/><path class="cls-9" d="M261.08,90c2.94-.45,6-.78,9-1.09q2.29-.23,4.58-.42c1.53-.13,3.07-.25,4.58-.36"/><path class="cls-9" d="M95.74,44.3"/><path class="cls-9" d="M102.65,70.11a15.31,15.31,0,0,0,1.1,3.94,10,10,0,0,0,.9,1.62,7.54,7.54,0,0,0,.53.68l.28.3.26.25A4.66,4.66,0,0,0,108.28,78l.36,0H109a5.46,5.46,0,0,0,.76-.08,8,8,0,0,0,1.66-.5"/><path class="cls-9" d="M101.57,70.27a16.37,16.37,0,0,0,1.18,4.22,11,11,0,0,0,1,1.8,8.63,8.63,0,0,0,.6.77l.32.35.32.3a5.75,5.75,0,0,0,3.16,1.38,6,6,0,0,0,.88,0,6.56,6.56,0,0,0,.91-.1,9.1,9.1,0,0,0,1.89-.56"/><path class="cls-9" d="M100.5,70.42a17.45,17.45,0,0,0,1.27,4.51,12.12,12.12,0,0,0,1.1,2,9.72,9.72,0,0,0,.68.87l.37.4.38.36A6.84,6.84,0,0,0,108,80.17a8.49,8.49,0,0,0,4.22-.7"/><path class="cls-9" d="M99.43,70.58a18.53,18.53,0,0,0,1.35,4.79,13.2,13.2,0,0,0,1.2,2.15,10,10,0,0,0,1.61,1.82,7.93,7.93,0,0,0,4.34,1.9,9.57,9.57,0,0,0,4.75-.78"/><path class="cls-9" d="M98.37,70.86a19.52,19.52,0,0,0,1.41,5,12.55,12.55,0,0,0,3.08,4.35,9,9,0,0,0,4.93,2.16,9.5,9.5,0,0,0,2.71-.09,12.35,12.35,0,0,0,2.57-.76"/><path class="cls-9" d="M97.4,71.62a20.21,20.21,0,0,0,1.39,4.63,15.37,15.37,0,0,0,1.4,2.51,13,13,0,0,0,.9,1.16c.16.19.33.36.51.54s.36.35.56.52a10.11,10.11,0,0,0,5.52,2.42,10.58,10.58,0,0,0,3-.1,13.41,13.41,0,0,0,2.8-.83"/><path class="cls-9" d="M97.38,71.56v.07"/><path class="cls-9" d="M96.42,72.28A21,21,0,0,0,97.8,76.7a16.45,16.45,0,0,0,1.5,2.68,14,14,0,0,0,1,1.25c.18.2.36.4.55.59s.4.39.61.58a11.18,11.18,0,0,0,6.11,2.68,11.44,11.44,0,0,0,1.68.06,12,12,0,0,0,1.65-.17,14.52,14.52,0,0,0,3-.89"/><path class="cls-9" d="M95.43,72.87a21.86,21.86,0,0,0,1.37,4.27A17.53,17.53,0,0,0,98.41,80a15.12,15.12,0,0,0,1.05,1.35c.19.22.39.43.6.64s.44.43.67.63a12.26,12.26,0,0,0,6.7,2.94c.31,0,.61.06.92.07s.62,0,.92,0a13,13,0,0,0,1.8-.19,15.58,15.58,0,0,0,3.25-1"/><path class="cls-9" d="M111.43,77.46a13.61,13.61,0,0,0,1.79-.91c.62-.37,1.23-.78,1.83-1.22a29.68,29.68,0,0,0,3.43-3,45.1,45.1,0,0,0,3.14-3.54q.75-.94,1.48-1.92c.48-.65.95-1.3,1.4-2"/><path class="cls-9" d="M111.84,78.46a14.69,14.69,0,0,0,1.93-1c.65-.39,1.29-.82,1.92-1.27a30.77,30.77,0,0,0,3.55-3.1,46.19,46.19,0,0,0,3.22-3.63c1-1.28,2-2.61,2.93-4"/><path class="cls-9" d="M112.25,79.47a15.78,15.78,0,0,0,2.08-1.06c.69-.41,1.35-.86,2-1.33A31.84,31.84,0,0,0,120,73.87a47.3,47.3,0,0,0,3.29-3.71c1-1.3,2-2.65,3-4"/><path class="cls-9" d="M112.67,80.47a16.86,16.86,0,0,0,2.22-1.13c.72-.43,1.42-.89,2.09-1.39a32.93,32.93,0,0,0,3.81-3.32,48.39,48.39,0,0,0,3.37-3.8c1.06-1.33,2.08-2.69,3-4.09"/><path class="cls-9" d="M113.08,81.48a17.94,17.94,0,0,0,2.36-1.2c.75-.45,1.48-.93,2.18-1.45a34,34,0,0,0,3.93-3.43A49.41,49.41,0,0,0,125,71.51c1.08-1.35,2.11-2.73,3.08-4.16"/><path class="cls-9" d="M113.49,82.48a19,19,0,0,0,2.5-1.27c.79-.47,1.54-1,2.27-1.51a35.1,35.1,0,0,0,4.06-3.54,50.52,50.52,0,0,0,3.52-4c1.1-1.37,2.14-2.77,3.14-4.23"/><path class="cls-9" d="M113.91,83.48a20.14,20.14,0,0,0,2.64-1.34c.82-.49,1.6-1,2.36-1.57a36.18,36.18,0,0,0,4.19-3.64,51.61,51.61,0,0,0,3.6-4.06c1.12-1.4,2.17-2.81,3.19-4.3"/><path class="cls-9" d="M114.32,84.49a21.18,21.18,0,0,0,2.78-1.41c.85-.51,1.67-1.05,2.45-1.63a37.26,37.26,0,0,0,4.31-3.75,52.71,52.71,0,0,0,3.67-4.14q.85-1.06,1.66-2.15c.54-.72,1.07-1.47,1.58-2.23"/><path class="cls-9" d="M124.49,64.91q.67-1,1.27-2,.3-.5.58-1l.27-.5.24-.47a43.1,43.1,0,0,0,1.76-4.37l.43-1.18.4-1.16c.26-.77.5-1.53.72-2.29a31.91,31.91,0,0,0,1-4.48"/><path class="cls-9" d="M125.39,65.52q.68-1,1.3-2,.31-.51.6-1l.28-.52.26-.5a44,44,0,0,0,1.81-4.48c.3-.81.57-1.58.84-2.36s.51-1.56.73-2.33a33,33,0,0,0,1-4.63"/><path class="cls-9" d="M126.29,66.13c.47-.69.91-1.38,1.33-2.09q.32-.53.62-1.07l.29-.54.27-.53a45,45,0,0,0,1.86-4.59,46,46,0,0,0,2.64-9.55"/><path class="cls-9" d="M127.19,66.74a39.12,39.12,0,0,0,2.59-4.35,45.94,45.94,0,0,0,1.9-4.71,47.08,47.08,0,0,0,2.69-9.78"/><path class="cls-9" d="M128.09,67.35a40.11,40.11,0,0,0,2.66-4.48,46.86,46.86,0,0,0,2-4.82,48.11,48.11,0,0,0,2.75-10"/><path class="cls-9" d="M129,68c.5-.73,1-1.48,1.43-2.24q.34-.57.67-1.16l.32-.59.31-.62a47.82,47.82,0,0,0,2-4.93,49.13,49.13,0,0,0,2.8-10.22"/><path class="cls-9" d="M129.88,68.57c.51-.75,1-1.51,1.47-2.29q.35-.59.69-1.19l.33-.61.33-.64a48.79,48.79,0,0,0,2-5,50.17,50.17,0,0,0,2.86-10.45"/><path class="cls-9" d="M130.78,69.18c.52-.76,1-1.54,1.5-2.34q.36-.6.71-1.22l.34-.62.34-.67a49.74,49.74,0,0,0,2.09-5.15,51.2,51.2,0,0,0,2.91-10.67"/><path class="cls-9" d="M131.14,47.47a12,12,0,0,0,.13-1.94,4.45,4.45,0,0,0-.22-1.35,1.24,1.24,0,0,0-.35-.57,2.07,2.07,0,0,0-.79-.4,5.1,5.1,0,0,0-1.44-.19,7.82,7.82,0,0,0-1.71.2,7.41,7.41,0,0,0-1.59.55,4.52,4.52,0,0,0-.6.35,1.93,1.93,0,0,0-.34.29"/><path class="cls-9" d="M132.22,47.62a13,13,0,0,0,.14-2.12,5.51,5.51,0,0,0-.28-1.69,2.32,2.32,0,0,0-.65-1,3.13,3.13,0,0,0-1.21-.63,7.59,7.59,0,0,0-3.7,0,8.49,8.49,0,0,0-1.83.64,5.61,5.61,0,0,0-.75.44,3,3,0,0,0-.52.45"/><path class="cls-9" d="M133.29,47.76a14.1,14.1,0,0,0,.15-2.29,6.58,6.58,0,0,0-.34-2,3.42,3.42,0,0,0-.95-1.46,4.21,4.21,0,0,0-1.62-.86,8.65,8.65,0,0,0-4.26,0,9.56,9.56,0,0,0-2.06.72A5.32,5.32,0,0,0,122.63,43"/><path class="cls-9" d="M134.37,47.91a15.17,15.17,0,0,0,.16-2.47,7.64,7.64,0,0,0-.4-2.35,4.51,4.51,0,0,0-1.25-1.9,5.29,5.29,0,0,0-2-1.1,8.33,8.33,0,0,0-2.38-.32A11,11,0,0,0,126,40a10.64,10.64,0,0,0-2.3.81,6.38,6.38,0,0,0-1.91,1.37"/><path class="cls-9" d="M135.45,48.06a16.23,16.23,0,0,0,.17-2.65,8.72,8.72,0,0,0-.47-2.69,6.12,6.12,0,0,0-.62-1.26,5.36,5.36,0,0,0-.93-1.08A6.37,6.37,0,0,0,131.15,39a9.4,9.4,0,0,0-2.69-.37,12.14,12.14,0,0,0-2.67.31,11.73,11.73,0,0,0-2.54.89A7.44,7.44,0,0,0,121,41.49"/><path class="cls-9" d="M136.52,48.2a17.29,17.29,0,0,0,.18-2.83,9.8,9.8,0,0,0-.53-3,7.2,7.2,0,0,0-.73-1.49,6.45,6.45,0,0,0-1.11-1.3A7.46,7.46,0,0,0,131.46,38a10.48,10.48,0,0,0-3-.41,13.21,13.21,0,0,0-2.91.34,12.81,12.81,0,0,0-2.78,1,10,10,0,0,0-1.32.78,7.34,7.34,0,0,0-1.24,1.08"/><path class="cls-9" d="M137.6,48.35a18.38,18.38,0,0,0,.19-3,10.87,10.87,0,0,0-.59-3.36,8.28,8.28,0,0,0-.84-1.71,7.53,7.53,0,0,0-1.3-1.52A8.54,8.54,0,0,0,131.77,37a11.56,11.56,0,0,0-3.32-.46,14.3,14.3,0,0,0-3.15.36,13.87,13.87,0,0,0-3,1.06,11,11,0,0,0-1.47.86A8.43,8.43,0,0,0,119.41,40"/><path class="cls-9" d="M138.67,48.5a19.44,19.44,0,0,0,.2-3.18,12,12,0,0,0-.66-3.69,9.74,9.74,0,0,0-.4-1l-.12-.24-.13-.25c-.09-.17-.19-.33-.29-.49a8.63,8.63,0,0,0-1.49-1.74,9.05,9.05,0,0,0-1.8-1.25,10.25,10.25,0,0,0-1.89-.77,12.64,12.64,0,0,0-3.63-.5,15.39,15.39,0,0,0-3.39.39A15,15,0,0,0,121.82,37a12.1,12.1,0,0,0-1.61.95,9.5,9.5,0,0,0-1.6,1.4"/><path class="cls-9" d="M124.23,44.41a.84.84,0,0,0-.22.45,1.82,1.82,0,0,0,0,.2s0,.08,0,.12,0,0,0,.07v.1q0,.52,0,1.07c0,.73.14,1.51.24,2.32l.17,1.24.18,1.23c.49,3.29,1.13,6.58,1.83,9.88"/><path class="cls-9" d="M123.43,43.68a1.93,1.93,0,0,0-.49,1,2.92,2.92,0,0,0,0,.33c0,.06,0,.12,0,.18s0,.06,0,.09v.12c0,.37,0,.75,0,1.13.05.77.14,1.56.25,2.39s.22,1.66.35,2.49c.5,3.31,1.13,6.63,1.84,9.94"/><path class="cls-9" d="M122.63,43a3,3,0,0,0-.75,1.49,4,4,0,0,0-.06.45c0,.08,0,.16,0,.24s0,.08,0,.12v.14c0,.39,0,.79,0,1.19.05.8.15,1.62.25,2.45s.23,1.68.35,2.51c.5,3.34,1.14,6.68,1.85,10"/><path class="cls-9" d="M121.82,42.22a4.12,4.12,0,0,0-1,2,5.49,5.49,0,0,0-.1,1.17c0,.42,0,.83.05,1.25.06.84.15,1.68.26,2.52s.23,1.69.35,2.53c.51,3.37,1.15,6.73,1.86,10.07"/><path class="cls-9" d="M121,41.49a5.25,5.25,0,0,0-.81,1.18,5.34,5.34,0,0,0-.46,1.35,6.59,6.59,0,0,0-.12,1.39c0,.44,0,.88.05,1.31.06.87.16,1.73.27,2.59s.23,1.7.36,2.56c.51,3.4,1.16,6.78,1.87,10.14"/><path class="cls-9" d="M120.22,40.76a6.34,6.34,0,0,0-1,1.42,6.43,6.43,0,0,0-.55,1.63,7.26,7.26,0,0,0-.11.82c0,.14,0,.27,0,.4s0,.13,0,.2v.19c0,.46,0,.92.06,1.37.06.91.16,1.79.27,2.66s.23,1.72.36,2.58c.52,3.43,1.17,6.83,1.89,10.2"/><path class="cls-9" d="M119.41,40a7.43,7.43,0,0,0-1.14,1.66,7.52,7.52,0,0,0-.65,1.9,8.32,8.32,0,0,0-.13.95c0,.16,0,.31,0,.46s0,.15,0,.23v.2c0,.49,0,1,.06,1.44.06.94.17,1.85.28,2.72s.23,1.73.36,2.6c.52,3.46,1.18,6.88,1.9,10.26"/><path class="cls-9" d="M118.61,39.3a8.52,8.52,0,0,0-1.31,1.91,8.61,8.61,0,0,0-.74,2.18,9.39,9.39,0,0,0-.15,1.07c0,.17,0,.35,0,.52s0,.17,0,.25v.22c0,.51,0,1,.06,1.5.07,1,.17,1.9.29,2.79L116.9,51l.19,1.31c.53,3.49,1.19,6.93,1.91,10.33"/><path class="cls-9" d="M126.43,61.1c.35,1.65.72,3.32,1.09,5s.77,3.27,1.19,4.87.88,3.17,1.38,4.71a23.17,23.17,0,0,0,1.69,4.06"/><path class="cls-9" d="M125.37,61.32c.35,1.65.72,3.33,1.1,5s.77,3.29,1.2,4.9.89,3.21,1.4,4.78a24.21,24.21,0,0,0,1.78,4.25"/><path class="cls-9" d="M124.31,61.55c.35,1.66.72,3.33,1.1,5s.78,3.31,1.21,4.94.9,3.25,1.42,4.84a25.26,25.26,0,0,0,1.86,4.44"/><path class="cls-9" d="M123.25,61.77c.72,3.34,1.45,6.69,2.32,10,.44,1.65.91,3.28,1.44,4.9A26.3,26.3,0,0,0,129,81.29"/><path class="cls-9" d="M122.18,62c.72,3.35,1.46,6.7,2.33,10,.44,1.66.92,3.32,1.46,5a27.35,27.35,0,0,0,2,4.83"/><path class="cls-9" d="M121.12,62.23c.36,1.69.73,3.36,1.11,5s.79,3.36,1.23,5,.93,3.36,1.48,5a28.4,28.4,0,0,0,2.11,5"/><path class="cls-9" d="M120.06,62.45c.36,1.7.73,3.37,1.12,5.06s.79,3.38,1.24,5.08.94,3.39,1.49,5.08a29.46,29.46,0,0,0,2.2,5.21"/><path class="cls-9" d="M119,62.68c.36,1.7.73,3.38,1.12,5.08s.8,3.4,1.25,5.12.95,3.43,1.51,5.14a30.5,30.5,0,0,0,2.28,5.4"/><path class="cls-9" d="M131.79,79.7a9.52,9.52,0,0,0,1,1.51,4.59,4.59,0,0,0,1,.93,2.54,2.54,0,0,0,1,.37,3.35,3.35,0,0,0,1.2-.06,7.89,7.89,0,0,0,1.63-.56,19,19,0,0,0,1.88-1l.5-.31.52-.32,1-.64a21.54,21.54,0,0,0,1.75-1.3"/><path class="cls-9" d="M130.85,80.23a7.71,7.71,0,0,0,2.44,2.83,3.79,3.79,0,0,0,3,.45,9,9,0,0,0,1.86-.64,20,20,0,0,0,2-1.07l1-.64,1-.66A22.61,22.61,0,0,0,144,79.15"/><path class="cls-9" d="M129.9,80.76A8.75,8.75,0,0,0,132.71,84a4.71,4.71,0,0,0,1.78.67,5.51,5.51,0,0,0,2-.08,14,14,0,0,0,4.19-1.83,33.53,33.53,0,0,0,4-2.76"/><path class="cls-9" d="M129,81.29a9.8,9.8,0,0,0,3.18,3.61,5.8,5.8,0,0,0,2.18.82,6.6,6.6,0,0,0,2.36-.09,15,15,0,0,0,4.52-2,34.57,34.57,0,0,0,4.16-2.86"/><path class="cls-9" d="M128,81.82a13.81,13.81,0,0,0,1.51,2.2,8.9,8.9,0,0,0,2,1.8,6.89,6.89,0,0,0,2.59,1,7.68,7.68,0,0,0,2.75-.1,16.06,16.06,0,0,0,4.86-2.1,35.56,35.56,0,0,0,4.3-3"/><path class="cls-9" d="M127.06,82.35a14.89,14.89,0,0,0,1.63,2.38,10,10,0,0,0,2.3,2,8,8,0,0,0,3,1.13,8.76,8.76,0,0,0,3.13-.11,13.25,13.25,0,0,0,2.77-.93,24.26,24.26,0,0,0,2.43-1.3l1.13-.7,1.12-.73a26.92,26.92,0,0,0,2.2-1.63"/><path class="cls-9" d="M126.11,82.88a16,16,0,0,0,1.75,2.55,11.06,11.06,0,0,0,2.55,2.24,9.07,9.07,0,0,0,3.41,1.28,9.85,9.85,0,0,0,3.52-.12,14.32,14.32,0,0,0,3-1,25.32,25.32,0,0,0,2.54-1.35l1.15-.71,1.14-.74a28,28,0,0,0,2.28-1.7"/><path class="cls-9" d="M125.16,83.41A17,17,0,0,0,127,86.14a12.15,12.15,0,0,0,2.8,2.45A10.16,10.16,0,0,0,133.65,90a10.93,10.93,0,0,0,3.91-.13,15.39,15.39,0,0,0,3.23-1.08,26.39,26.39,0,0,0,2.65-1.41L144,87l.57-.36,1.17-.76a29.07,29.07,0,0,0,2.37-1.76"/><path class="cls-9" d="M143.28,78.31A11.17,11.17,0,0,0,144.65,77a7,7,0,0,0,.51-.67l.17-.27c0-.08.08-.16.11-.23a1.52,1.52,0,0,0,.11-.35.64.64,0,0,0,0-.19.87.87,0,0,0-.22-.43,4.54,4.54,0,0,0-1-.88,17.89,17.89,0,0,0-1.85-1c-.66-.32-1.33-.62-2-.87l-.26-.09-.27-.1-.54-.19-.27-.08h0"/><path class="cls-9" d="M144,79.15a12.26,12.26,0,0,0,1.5-1.47,8.15,8.15,0,0,0,.58-.77c.09-.14.15-.24.22-.35a3.59,3.59,0,0,0,.16-.33,2.12,2.12,0,0,0,.19-1.1,1.93,1.93,0,0,0-.45-1,5.57,5.57,0,0,0-1.3-1.11,18.87,18.87,0,0,0-2-1.08c-.69-.34-1.4-.65-2.11-.91l-.27-.1-.28-.1-.56-.2-.37-.11-.2,0"/><path class="cls-9" d="M144.67,80a13.33,13.33,0,0,0,1.64-1.6,9.19,9.19,0,0,0,.66-.87c.1-.15.19-.29.26-.43a4.73,4.73,0,0,0,.21-.43A3.2,3.2,0,0,0,147.7,75a3,3,0,0,0-.68-1.51,6.63,6.63,0,0,0-1.55-1.34A19.85,19.85,0,0,0,143.39,71c-.72-.36-1.46-.68-2.21-1l-.57-.21-.58-.2-.47-.14a2.06,2.06,0,0,0-.37-.05"/><path class="cls-9" d="M145.37,80.82a14.42,14.42,0,0,0,1.77-1.73,10.25,10.25,0,0,0,.74-1,6.09,6.09,0,0,0,.57-1,4.28,4.28,0,0,0,.34-2.23,4.1,4.1,0,0,0-.91-2,7.67,7.67,0,0,0-1.81-1.56A20.91,20.91,0,0,0,143.87,70c-.75-.37-1.52-.71-2.31-1l-.59-.21-.6-.21a4.13,4.13,0,0,0-1.12-.24"/><path class="cls-9" d="M146.06,81.65a15.47,15.47,0,0,0,1.9-1.86,11.36,11.36,0,0,0,.81-1.07,7.18,7.18,0,0,0,.66-1.21,5.37,5.37,0,0,0,.42-2.79,5.19,5.19,0,0,0-1.14-2.59,8.75,8.75,0,0,0-2.06-1.79,21.93,21.93,0,0,0-2.3-1.28c-.78-.39-1.59-.73-2.41-1l-.62-.22-.62-.21c-.21-.07-.43-.14-.67-.19a4.05,4.05,0,0,0-.72-.1"/><path class="cls-9" d="M146.76,82.48a16.57,16.57,0,0,0,2-2,12.43,12.43,0,0,0,.89-1.18c.13-.2.28-.43.41-.67a8,8,0,0,0,.35-.73,6.45,6.45,0,0,0,.5-3.36,6.28,6.28,0,0,0-1.38-3.13,9.81,9.81,0,0,0-2.31-2,23,23,0,0,0-2.42-1.34c-.81-.4-1.65-.76-2.5-1.08l-.64-.23-.63-.22c-.23-.08-.49-.15-.77-.22a5.14,5.14,0,0,0-.9-.13"/><path class="cls-9" d="M147.45,83.32a17.65,17.65,0,0,0,2.17-2.12,13.49,13.49,0,0,0,1-1.28c.15-.22.31-.48.45-.74a9,9,0,0,0,.4-.83,8,8,0,0,0,.54-1.86,7.05,7.05,0,0,0-.54-4.06,7.76,7.76,0,0,0-1-1.67,10.88,10.88,0,0,0-2.56-2.25,24,24,0,0,0-2.53-1.41c-.85-.42-1.71-.79-2.6-1.13l-.33-.12-.33-.12-.65-.23c-.25-.08-.54-.17-.86-.25a6.25,6.25,0,0,0-1.07-.15"/><path class="cls-9" d="M148.15,84.15a18.72,18.72,0,0,0,2.3-2.25,14.59,14.59,0,0,0,1-1.38c.16-.23.34-.53.5-.82a10.07,10.07,0,0,0,.45-.93,9.09,9.09,0,0,0,.61-2.11,8.13,8.13,0,0,0-.62-4.68,8.84,8.84,0,0,0-1.18-1.91,12,12,0,0,0-2.81-2.48,25,25,0,0,0-2.65-1.47c-.88-.43-1.78-.82-2.7-1.17l-.16-.06"/><line class="cls-9" x1="101.9" y1="55.34" x2="101.9" y2="63.66"/><line class="cls-9" x1="100.82" y1="55.34" x2="100.81" y2="63.66"/><line class="cls-9" x1="99.73" y1="55.34" x2="99.73" y2="63.66"/><line class="cls-9" x1="98.64" y1="55.34" x2="98.64" y2="63.66"/><line class="cls-9" x1="97.56" y1="55.34" x2="97.56" y2="63.66"/><line class="cls-9" x1="96.47" y1="55.34" x2="96.47" y2="63.66"/><line class="cls-9" x1="95.39" y1="55.34" x2="95.39" y2="63.66"/><line class="cls-9" x1="94.3" y1="55.34" x2="94.3" y2="63.66"/><line class="cls-9" x1="139.37" y1="64.94" x2="155.45" y2="65"/><line class="cls-9" x1="139.34" y1="66.02" x2="155.45" y2="66.08"/><path class="cls-9" d="M139.34,66"/><line class="cls-9" x1="139.28" y1="67.11" x2="155.45" y2="67.17"/><path class="cls-9" d="M139.28,67.11"/><line class="cls-9" x1="139.28" y1="68.2" x2="155.45" y2="68.26"/><path class="cls-9" d="M139.28,68.2"/><line class="cls-9" x1="139.16" y1="69.28" x2="155.44" y2="69.34"/><path class="cls-9" d="M139.16,69.28"/><line class="cls-9" x1="139.1" y1="70.37" x2="155.44" y2="70.43"/><path class="cls-9" d="M139.1,70.37"/><line class="cls-9" x1="138.98" y1="71.45" x2="155.44" y2="71.51"/><path class="cls-9" d="M139,71.45"/><line class="cls-9" x1="139.07" y1="72.54" x2="155.44" y2="72.6"/><path class="cls-9" d="M139.07,72.54"/><path class="cls-9" d="M155.45,65h18.32"/><path class="cls-9" d="M155.45,66.08h18l.39,0"/><path class="cls-9" d="M155.45,67.17h18.06a4.13,4.13,0,0,0,.46,0"/><path class="cls-9" d="M155.45,68.26h18.09a4.32,4.32,0,0,0,.54,0"/><path class="cls-9" d="M155.44,69.34h18.42a1.82,1.82,0,0,0,.32,0"/><path class="cls-9" d="M155.44,70.43h18.65a1,1,0,0,0,.2,0"/><path class="cls-9" d="M155.44,71.51h18.71a1.29,1.29,0,0,0,.24,0"/><path class="cls-9" d="M155.44,72.6h18.78a1.68,1.68,0,0,0,.28,0"/><line class="cls-9" x1="189.47" y1="46.1" x2="193.74" y2="67.45"/><line class="cls-9" x1="188.41" y1="46.31" x2="192.67" y2="67.66"/><line class="cls-9" x1="187.35" y1="46.52" x2="191.61" y2="67.87"/><line class="cls-9" x1="186.28" y1="46.73" x2="190.54" y2="68.08"/><line class="cls-9" x1="185.22" y1="46.95" x2="189.48" y2="68.3"/><line class="cls-9" x1="184.15" y1="47.16" x2="188.41" y2="68.51"/><line class="cls-9" x1="183.09" y1="47.37" x2="187.35" y2="68.72"/><line class="cls-9" x1="182.02" y1="47.58" x2="186.29" y2="68.93"/><line class="cls-9" x1="193.74" y1="67.45" x2="198" y2="88.8"/><line class="cls-9" x1="192.67" y1="67.66" x2="196.94" y2="89.01"/><line class="cls-9" x1="191.61" y1="67.87" x2="195.87" y2="89.22"/><line class="cls-9" x1="190.54" y1="68.08" x2="194.81" y2="89.43"/><line class="cls-9" x1="189.48" y1="68.3" x2="193.74" y2="89.65"/><line class="cls-9" x1="188.41" y1="68.51" x2="192.68" y2="89.86"/><line class="cls-9" x1="187.35" y1="68.72" x2="191.61" y2="90.07"/><line class="cls-9" x1="186.29" y1="68.93" x2="190.55" y2="90.28"/><path class="cls-9" d="M26.9,91.17c0-.36-.07-.72-.09-1.08-.06-.83-.09-1.66-.09-2.5a31.93,31.93,0,0,1,.39-5.08,22.32,22.32,0,0,1,1.46-5.2,15.44,15.44,0,0,1,3.27-4.93"/><path class="cls-9" d="M28,91.23c0-.41-.08-.81-.1-1.21q-.08-1.21-.08-2.43a30.84,30.84,0,0,1,.37-4.91,21.25,21.25,0,0,1,1.39-4.95,14.35,14.35,0,0,1,3-4.58"/><path class="cls-9" d="M29.08,91.12q-.06-.59-.1-1.18-.08-1.17-.08-2.35a29.76,29.76,0,0,1,.36-4.73,20.17,20.17,0,0,1,1.31-4.69,13.27,13.27,0,0,1,2.81-4.24"/><path class="cls-9" d="M30.17,91.17c0-.43-.08-.86-.11-1.3Q30,88.73,30,87.59A28.69,28.69,0,0,1,30.32,83a19.09,19.09,0,0,1,1.24-4.44,12.19,12.19,0,0,1,2.57-3.9"/><path class="cls-9" d="M31.26,91.17c-.05-.45-.09-.92-.12-1.37q-.07-1.1-.08-2.21a27.61,27.61,0,0,1,.33-4.39A18,18,0,0,1,32.56,79a11.1,11.1,0,0,1,2.34-3.55"/><path class="cls-9" d="M32.36,91.16l0-.38c0-.35-.07-.71-.09-1.06,0-.71-.07-1.42-.07-2.13a26.53,26.53,0,0,1,.32-4.21,17,17,0,0,1,1.09-3.93,10,10,0,0,1,2.11-3.21"/><path class="cls-9" d="M33.45,91.17l-.06-.5c0-.34-.06-.68-.09-1,0-.69-.07-1.37-.07-2.06a25.45,25.45,0,0,1,.3-4,15.87,15.87,0,0,1,1-3.68A8.94,8.94,0,0,1,36.44,77"/><path class="cls-9" d="M34.55,91.17l0-.13-.05-.48c0-.32-.06-.65-.08-1,0-.66-.07-1.33-.07-2a24.37,24.37,0,0,1,.29-3.87,14.79,14.79,0,0,1,.95-3.43,7.86,7.86,0,0,1,1.64-2.52"/><path class="cls-9" d="M31.84,72.38a13.39,13.39,0,0,1,2.46-1.93,13.83,13.83,0,0,1,2.8-1.3,17.2,17.2,0,0,1,5.67-.84,18.46,18.46,0,0,1,5.57.85,14.16,14.16,0,0,1,2.79,1.25,13.1,13.1,0,0,1,2.51,1.91"/><path class="cls-9" d="M32.61,73.15a12.31,12.31,0,0,1,2.26-1.78,12.74,12.74,0,0,1,2.58-1.2,16.12,16.12,0,0,1,5.31-.79,17.38,17.38,0,0,1,5.24.8,13.09,13.09,0,0,1,2.58,1.16,12,12,0,0,1,2.3,1.75"/><path class="cls-9" d="M33.37,73.92a11.37,11.37,0,0,1,4.42-2.72,15,15,0,0,1,5-.73,16.3,16.3,0,0,1,4.92.74,11.37,11.37,0,0,1,4.46,2.66"/><path class="cls-9" d="M34.14,74.69a10.28,10.28,0,0,1,4-2.46,14,14,0,0,1,4.6-.67,15.22,15.22,0,0,1,4.59.69,10.28,10.28,0,0,1,4,2.4"/><path class="cls-9" d="M34.9,75.46a9.18,9.18,0,0,1,3.58-2.2,12.87,12.87,0,0,1,4.24-.62,14.15,14.15,0,0,1,4.26.63,9.19,9.19,0,0,1,3.62,2.15"/><path class="cls-9" d="M35.67,76.23a8.1,8.1,0,0,1,3.17-1.94,11.8,11.8,0,0,1,3.89-.56,13.07,13.07,0,0,1,3.93.58,8.1,8.1,0,0,1,3.19,1.89"/><path class="cls-9" d="M36.44,77a7,7,0,0,1,2.75-1.68,10.72,10.72,0,0,1,3.53-.5,12,12,0,0,1,3.6.53A7,7,0,0,1,49.09,77"/><path class="cls-9" d="M37.2,77.77a5.91,5.91,0,0,1,2.33-1.42,9.65,9.65,0,0,1,3.17-.44,10.93,10.93,0,0,1,3.28.47,5.92,5.92,0,0,1,2.35,1.38"/><path class="cls-9" d="M53.64,72.32a13.52,13.52,0,0,1,2,2.42,15.39,15.39,0,0,1,1.34,2.66,20.45,20.45,0,0,1,1.25,5.36,29.8,29.8,0,0,1,.06,5.14c-.06.84-.15,1.67-.27,2.5q-.06.39-.12.78"/><path class="cls-9" d="M52.88,73.09a13.26,13.26,0,0,1,3,4.69,19.38,19.38,0,0,1,1.18,5.07,28.73,28.73,0,0,1,.06,5q-.09,1.22-.26,2.42-.07.47-.15.94"/><path class="cls-9" d="M52.12,73.87a12.17,12.17,0,0,1,2.8,4.31A18.3,18.3,0,0,1,56,83a27.65,27.65,0,0,1,.06,4.77q-.08,1.18-.25,2.35-.08.55-.18,1.09"/><path class="cls-9" d="M51.36,74.65a11.09,11.09,0,0,1,2.54,3.93,17.23,17.23,0,0,1,1,4.5A26.58,26.58,0,0,1,55,87.66q-.08,1.14-.24,2.27c-.06.42-.13.83-.2,1.24"/><path class="cls-9" d="M50.61,75.42A10,10,0,0,1,52.9,79a16.16,16.16,0,0,1,1,4.22,25.49,25.49,0,0,1,0,4.39q-.08,1.1-.23,2.19c-.07.47-.14.94-.23,1.4"/><path class="cls-9" d="M49.85,76.2a8.92,8.92,0,0,1,2,3.17,15.08,15.08,0,0,1,.91,3.93,24.42,24.42,0,0,1,0,4.2c0,.71-.13,1.41-.23,2.12-.05.35-.11.7-.17,1l-.1.52"/><path class="cls-9" d="M49.09,77a7.84,7.84,0,0,1,1.79,2.79,14,14,0,0,1,.84,3.65,23.34,23.34,0,0,1,0,4c0,.68-.12,1.36-.22,2,0,.34-.1.68-.16,1l-.09.49-.05.24"/><path class="cls-9" d="M48.33,77.76a6.75,6.75,0,0,1,1.53,2.41,12.93,12.93,0,0,1,.77,3.37,22.26,22.26,0,0,1,0,3.83c0,.65-.12,1.31-.21,2,0,.33-.1.65-.16,1l-.09.47,0,.22,0,.17"/><path class="cls-9" d="M256.66,65.47a24.27,24.27,0,0,1,.1,6.59,17.19,17.19,0,0,1-2.26,6.73,13.39,13.39,0,0,1-2.47,3,14.18,14.18,0,0,1-3.13,2.14,15.5,15.5,0,0,1-3.47,1.25l-.89.18-.86.13q-.86.11-1.72.14"/><path class="cls-9" d="M255.59,65.63a23.19,23.19,0,0,1,.1,6.29,16.11,16.11,0,0,1-2.11,6.31A12.31,12.31,0,0,1,251.3,81a13.1,13.1,0,0,1-2.89,2,14.4,14.4,0,0,1-3.22,1.16l-.83.17-.81.12q-.81.1-1.63.14"/><path class="cls-9" d="M254.51,65.78a22.11,22.11,0,0,1,.09,6,15,15,0,0,1-2,5.89,11.22,11.22,0,0,1-2.07,2.5A12,12,0,0,1,247.92,82a13.32,13.32,0,0,1-3,1.07l-.77.16-.76.11q-.76.1-1.53.13"/><path class="cls-9" d="M253.44,65.94a21,21,0,0,1,.09,5.7,14,14,0,0,1-1.82,5.46A10.48,10.48,0,0,1,247.43,81a12.24,12.24,0,0,1-2.74,1,15.53,15.53,0,0,1-2.86.37"/><path class="cls-9" d="M252.37,66.1a20,20,0,0,1,.09,5.4,12.88,12.88,0,0,1-1.67,5,9.39,9.39,0,0,1-3.84,3.5,11.15,11.15,0,0,1-2.49.89,14.47,14.47,0,0,1-2.66.34"/><path class="cls-9" d="M251.29,66.26a18.88,18.88,0,0,1,.09,5.11A11.81,11.81,0,0,1,249.86,76a8.3,8.3,0,0,1-3.4,3.09,10.08,10.08,0,0,1-2.25.81l-.59.12-.62.09c-.41.05-.83.09-1.24.1"/><path class="cls-9" d="M250.22,66.42a17.8,17.8,0,0,1,.08,4.81,10.73,10.73,0,0,1-1.37,4.19,7.21,7.21,0,0,1-3,2.69,9,9,0,0,1-2,.72l-.53.11-.57.09c-.38,0-.76.08-1.15.1"/><path class="cls-9" d="M249.14,66.57a16.73,16.73,0,0,1,.08,4.51A9.67,9.67,0,0,1,248,74.85a6.13,6.13,0,0,1-2.52,2.28,7.9,7.9,0,0,1-1.76.63l-.47.1-.52.08c-.35,0-.7.07-1,.09"/><path class="cls-9" d="M242,85.62a18.15,18.15,0,0,1-3.51-.2,15.4,15.4,0,0,1-3.55-1,12.94,12.94,0,0,1-3.36-2,12.18,12.18,0,0,1-2.59-3.08,14.17,14.17,0,0,1-1.47-3.5,16.89,16.89,0,0,1-.57-3.54,21.26,21.26,0,0,1,.1-3.39,15.61,15.61,0,0,1,.33-2.5"/><path class="cls-9" d="M241.92,84.53a17.07,17.07,0,0,1-3.3-.19,14.32,14.32,0,0,1-3.3-.92,11.86,11.86,0,0,1-3.08-1.86,11.09,11.09,0,0,1-2.36-2.8,13.08,13.08,0,0,1-1.36-3.23,15.82,15.82,0,0,1-.53-3.31,20.19,20.19,0,0,1,.1-3.22,27.64,27.64,0,0,1,.5-3"/><path class="cls-9" d="M241.88,83.45a14.53,14.53,0,0,1-6.14-1,10.78,10.78,0,0,1-2.8-1.69,10,10,0,0,1-2.13-2.53,12,12,0,0,1-1.25-3,14.73,14.73,0,0,1-.49-3.09,22.42,22.42,0,0,1,.58-6"/><path class="cls-9" d="M241.84,82.36a13.46,13.46,0,0,1-5.68-.94,9.7,9.7,0,0,1-2.52-1.52,8.92,8.92,0,0,1-1.9-2.26,12.18,12.18,0,0,1-1.59-5.55,21.35,21.35,0,0,1,.55-5.67"/><path class="cls-9" d="M241.8,81.28a12.38,12.38,0,0,1-5.22-.86,8.61,8.61,0,0,1-2.23-1.35,7.83,7.83,0,0,1-1.67-2A11.11,11.11,0,0,1,231.24,72a20.3,20.3,0,0,1,.53-5.38"/><path class="cls-9" d="M241.76,80.19a11.31,11.31,0,0,1-4.76-.78,7.54,7.54,0,0,1-2-1.17,6.74,6.74,0,0,1-1.44-1.71A10,10,0,0,1,232.32,72a15.9,15.9,0,0,1,.08-2.52,23.31,23.31,0,0,1,.43-2.57"/><path class="cls-9" d="M241.71,79.11a10.23,10.23,0,0,1-4.3-.69,6.45,6.45,0,0,1-1.67-1A5.66,5.66,0,0,1,234.54,76a9,9,0,0,1-1.13-4.06,14.86,14.86,0,0,1,.08-2.34,22.25,22.25,0,0,1,.41-2.45"/><path class="cls-9" d="M241.67,78a9.17,9.17,0,0,1-3.84-.61,5.82,5.82,0,0,1-.76-.38,4.81,4.81,0,0,1-.63-.45,4.57,4.57,0,0,1-1-1.17,7.9,7.9,0,0,1-1-3.57,13.77,13.77,0,0,1,.07-2.17,21.19,21.19,0,0,1,.39-2.33"/><path class="cls-9" d="M192.48,61.68l.28-.11.32-.13.65-.28,1.31-.6q1.31-.62,2.59-1.31a53.15,53.15,0,0,0,4.93-3,36.61,36.61,0,0,0,4.37-3.48,21.18,21.18,0,0,0,3.37-4"/><path class="cls-9" d="M192.87,62.69l.3-.12.33-.14.67-.29,1.34-.62q1.33-.63,2.64-1.34a54.2,54.2,0,0,0,5-3,37.7,37.7,0,0,0,4.5-3.59,22.26,22.26,0,0,0,3.55-4.19"/><path class="cls-9" d="M193.26,63.7l.67-.27.68-.3,1.36-.63q1.36-.65,2.68-1.36A55.31,55.31,0,0,0,203.79,58a38.77,38.77,0,0,0,4.63-3.69,23.32,23.32,0,0,0,3.72-4.4"/><path class="cls-9" d="M193.26,64.93c1-.39,2.3-1,3.19-1.45s1.83-.9,2.73-1.38a56.37,56.37,0,0,0,5.23-3.17,39.83,39.83,0,0,0,4.76-3.8,24.4,24.4,0,0,0,3.89-4.6"/><path class="cls-9" d="M193.56,65.9c1-.39,2.41-1,3.35-1.43s1.86-.92,2.78-1.41A57.46,57.46,0,0,0,205,59.83a40.92,40.92,0,0,0,4.89-3.9A25.47,25.47,0,0,0,214,51.11"/><path class="cls-9" d="M193.74,67c.28-.11,1.21-.45,1.46-.55l.73-.32,1.44-.66q1.43-.68,2.83-1.43a58.57,58.57,0,0,0,5.43-3.29,42,42,0,0,0,5-4,26.55,26.55,0,0,0,4.23-5"/><path class="cls-9" d="M194,68.13l1.26-.54.38-.16.75-.33,1.47-.68q1.46-.69,2.87-1.45a59.63,59.63,0,0,0,5.53-3.36,43.1,43.1,0,0,0,5.15-4.11,27.62,27.62,0,0,0,4.41-5.23"/><path class="cls-9" d="M194.22,69.21l1.44-.62.39-.16.76-.33,1.5-.69q1.48-.7,2.92-1.48a60.71,60.71,0,0,0,5.63-3.42,44.17,44.17,0,0,0,5.28-4.22,28.7,28.7,0,0,0,4.58-5.44"/><path class="cls-9" d="M186.37,70.65a7.58,7.58,0,0,1,.46,2.5,8.39,8.39,0,0,1-.29,2.3,11,11,0,0,1-1.69,3.49,15.82,15.82,0,0,1-2.23,2.49,20.51,20.51,0,0,1-2.47,1.92A26,26,0,0,1,169,87.41"/><path class="cls-9" d="M185.35,71a6.5,6.5,0,0,1,.39,2.14,7.31,7.31,0,0,1-.26,2A9.9,9.9,0,0,1,184,78.31a14.75,14.75,0,0,1-2.08,2.32,19.43,19.43,0,0,1-2.34,1.81,24.89,24.89,0,0,1-10.69,3.89"/><path class="cls-9" d="M184.33,71.4a5.4,5.4,0,0,1,.33,1.78,6.23,6.23,0,0,1-.22,1.7,8.83,8.83,0,0,1-1.37,2.79,13.66,13.66,0,0,1-1.93,2.15,18.33,18.33,0,0,1-2.2,1.71,23.81,23.81,0,0,1-10.21,3.71"/><path class="cls-9" d="M183.31,71.77a4.31,4.31,0,0,1,.26,1.43,5.14,5.14,0,0,1-.18,1.41,7.76,7.76,0,0,1-1.2,2.45,14.75,14.75,0,0,1-3.85,3.59,22.73,22.73,0,0,1-9.73,3.54"/><path class="cls-9" d="M182.29,72.14a3.57,3.57,0,0,1,0,2.18,6.69,6.69,0,0,1-1,2.1,13.69,13.69,0,0,1-3.57,3.31,21.64,21.64,0,0,1-9.25,3.36"/><path class="cls-9" d="M181.27,72.52a2.48,2.48,0,0,1,0,1.52,5.63,5.63,0,0,1-.87,1.75,12.64,12.64,0,0,1-3.28,3A20.55,20.55,0,0,1,168.37,82"/><path class="cls-9" d="M180.26,72.89a1.06,1.06,0,0,1,.06.35,1.9,1.9,0,0,1-.07.51,4.57,4.57,0,0,1-.71,1.4,11.59,11.59,0,0,1-3,2.76,19.47,19.47,0,0,1-8.28,3"/><path class="cls-9" d="M179.24,73.26s0,0,0,0a.85.85,0,0,1,0,.22,3.53,3.53,0,0,1-.55,1.05,8.3,8.3,0,0,1-1.16,1.29,13,13,0,0,1-1.55,1.2,18.36,18.36,0,0,1-7.8,2.84"/><path class="cls-9" d="M169,87.41a20.57,20.57,0,0,1-3.12.12,15.85,15.85,0,0,1-3.31-.47A11,11,0,0,1,159,85.48a8.39,8.39,0,0,1-1.73-1.59,7.52,7.52,0,0,1-1.7-4.64,8.14,8.14,0,0,1,.07-1.23,8.81,8.81,0,0,1,.22-1.1,11,11,0,0,1,1.69-3.49,15.82,15.82,0,0,1,2.23-2.49A20.51,20.51,0,0,1,162.27,69"/><path class="cls-9" d="M168.85,86.33a19.45,19.45,0,0,1-3,.11,14.78,14.78,0,0,1-3.08-.44,9.93,9.93,0,0,1-3.19-1.42,7.31,7.31,0,0,1-1.5-1.38,6.44,6.44,0,0,1-1.46-4,7.09,7.09,0,0,1,.06-1.06,7.73,7.73,0,0,1,.19-1,9.91,9.91,0,0,1,1.53-3.14,14.75,14.75,0,0,1,2.08-2.32,19.41,19.41,0,0,1,2.34-1.81"/><path class="cls-9" d="M168.73,85.25a18.38,18.38,0,0,1-2.79.11,13.71,13.71,0,0,1-2.86-.41,8.86,8.86,0,0,1-2.84-1.26A6.24,6.24,0,0,1,159,82.53a5.35,5.35,0,0,1-1.22-3.33,6.21,6.21,0,0,1,.22-1.72,8.83,8.83,0,0,1,1.37-2.79,13.67,13.67,0,0,1,1.93-2.15,18.36,18.36,0,0,1,2.2-1.71"/><path class="cls-9" d="M168.61,84.17a14.8,14.8,0,0,1-5.25-.27,7.79,7.79,0,0,1-2.49-1.1,4.67,4.67,0,0,1-1.77-2.21,4.31,4.31,0,0,1-.26-1.42,5.14,5.14,0,0,1,.18-1.41,7.76,7.76,0,0,1,1.2-2.45,14.76,14.76,0,0,1,3.85-3.59"/><path class="cls-9" d="M168.49,83.09a13.74,13.74,0,0,1-4.86-.24,6.72,6.72,0,0,1-2.15-.94,3.57,3.57,0,0,1-1.37-1.69,3.25,3.25,0,0,1-.2-1.07,4,4,0,0,1,.15-1.1,6.69,6.69,0,0,1,1-2.1,13.7,13.7,0,0,1,3.57-3.31"/><path class="cls-9" d="M168.37,82a12.68,12.68,0,0,1-4.47-.22,5.66,5.66,0,0,1-1.8-.78,3,3,0,0,1-.6-.54,2.16,2.16,0,0,1-.5-1.36,2.94,2.94,0,0,1,.11-.8,5.62,5.62,0,0,1,.87-1.75,12.64,12.64,0,0,1,3.28-3"/><path class="cls-9" d="M168.25,80.94a11.62,11.62,0,0,1-4.08-.19,4.6,4.6,0,0,1-1.45-.62,1.86,1.86,0,0,1-.37-.33,1.12,1.12,0,0,1-.26-.7,1.42,1.42,0,0,1,0-.21,2.33,2.33,0,0,1,.06-.28,4.57,4.57,0,0,1,.71-1.4,11.59,11.59,0,0,1,3-2.76"/><path class="cls-9" d="M168.13,79.86a13,13,0,0,1-2,.08,8.34,8.34,0,0,1-1.72-.24,3.56,3.56,0,0,1-1.1-.46.91.91,0,0,1-.15-.12v0a.24.24,0,0,1,0,0,1.23,1.23,0,0,1,0-.14,3.53,3.53,0,0,1,.55-1.05,8.3,8.3,0,0,1,1.16-1.29,12.94,12.94,0,0,1,1.55-1.2"/><path class="cls-9" d="M162.27,69A26,26,0,0,1,173.44,65a20.57,20.57,0,0,1,3.12-.12,15.87,15.87,0,0,1,3.31.47,11,11,0,0,1,3.54,1.58,8.42,8.42,0,0,1,1.71,1.56,7.59,7.59,0,0,1,1.26,2.2"/><path class="cls-9" d="M162.87,69.92A24.88,24.88,0,0,1,173.56,66a19.47,19.47,0,0,1,3-.11,14.78,14.78,0,0,1,3.08.44,9.93,9.93,0,0,1,3.19,1.42,7.33,7.33,0,0,1,1.49,1.36A6.5,6.5,0,0,1,185.35,71"/><path class="cls-9" d="M163.47,70.82a23.8,23.8,0,0,1,10.21-3.71,18.38,18.38,0,0,1,2.79-.11,13.7,13.7,0,0,1,2.86.41,8.86,8.86,0,0,1,2.84,1.26,6.25,6.25,0,0,1,1.27,1.16,5.42,5.42,0,0,1,.9,1.57"/><path class="cls-9" d="M164.07,71.73a22.72,22.72,0,0,1,9.73-3.54,14.79,14.79,0,0,1,5.25.27,7.79,7.79,0,0,1,2.49,1.1,5.16,5.16,0,0,1,1,1,4.33,4.33,0,0,1,.72,1.26"/><path class="cls-9" d="M164.67,72.63a21.64,21.64,0,0,1,9.25-3.36,13.74,13.74,0,0,1,4.86.24,6.73,6.73,0,0,1,2.15.94,3.58,3.58,0,0,1,1.37,1.69"/><path class="cls-9" d="M165.27,73.54A20.55,20.55,0,0,1,174,70.35a12.68,12.68,0,0,1,4.47.22,5.66,5.66,0,0,1,1.8.78,2.49,2.49,0,0,1,1,1.18"/><path class="cls-9" d="M165.87,74.44a19.46,19.46,0,0,1,8.28-3,11.62,11.62,0,0,1,4.08.19,4.6,4.6,0,0,1,1.45.62,1.91,1.91,0,0,1,.39.35,1.06,1.06,0,0,1,.18.31"/><path class="cls-9" d="M166.47,75.34a18.35,18.35,0,0,1,7.8-2.84,13,13,0,0,1,2-.08,8.33,8.33,0,0,1,1.72.24,3.56,3.56,0,0,1,1.1.46.86.86,0,0,1,.17.15s0,0,0,0"/><path class="cls-9" d="M192.76,61.57a28,28,0,0,1,6.52,1.32,30.49,30.49,0,0,1,4.7,2.38A33.94,33.94,0,0,1,211.82,72"/><path class="cls-9" d="M192.87,62.69a25,25,0,0,1,6,1.2,29.4,29.4,0,0,1,4.53,2.3A32.86,32.86,0,0,1,211,72.74"/><path class="cls-9" d="M193.08,63.73a21.49,21.49,0,0,1,5.41,1.18,28.33,28.33,0,0,1,4.36,2.21,31.77,31.77,0,0,1,7.33,6.33"/><path class="cls-9" d="M193.26,64.93a14.24,14.24,0,0,1,4.83,1A27.26,27.26,0,0,1,202.28,68a30.7,30.7,0,0,1,7.08,6.11"/><path class="cls-9" d="M193.38,65.84a15.72,15.72,0,0,1,4.31,1.09,26.18,26.18,0,0,1,4,2,29.6,29.6,0,0,1,6.83,5.9"/><path class="cls-9" d="M193.74,67a11.6,11.6,0,0,1,3.55,1,25.12,25.12,0,0,1,3.85,2,28.52,28.52,0,0,1,6.58,5.69"/><path class="cls-9" d="M194,68.13a8.54,8.54,0,0,1,2.9.81,24,24,0,0,1,3.69,1.88,27.44,27.44,0,0,1,6.33,5.47"/><path class="cls-9" d="M194,69.21a13.79,13.79,0,0,1,2.5.75A23,23,0,0,1,200,71.74,26.36,26.36,0,0,1,206.08,77"/><path class="cls-9" d="M211.82,72l.41.48.39.47.68.79c.45.52.92,1,1.39,1.48a18.85,18.85,0,0,0,3,2.42,13.35,13.35,0,0,0,1.57.87,9.83,9.83,0,0,0,1.55.58,5.28,5.28,0,0,0,1.31.21,2.06,2.06,0,0,0,.8-.12"/><path class="cls-9" d="M211,72.74l.4.47.38.46.7.82c.47.54,1,1,1.45,1.54a19.92,19.92,0,0,0,3.14,2.56,14.43,14.43,0,0,0,1.69.95,10.89,10.89,0,0,0,1.72.65,6.34,6.34,0,0,0,1.59.25,3.13,3.13,0,0,0,1.21-.2"/><path class="cls-9" d="M210.18,73.45l.39.46.38.45.72.84c.48.55,1,1.09,1.5,1.59a21,21,0,0,0,3.31,2.7,13.74,13.74,0,0,0,3.72,1.73,5.55,5.55,0,0,0,3.49,0"/><path class="cls-9" d="M209.36,74.16l.75.89.74.87c.5.57,1,1.12,1.55,1.65a22.08,22.08,0,0,0,3.49,2.84,14.81,14.81,0,0,0,4,1.86,8.48,8.48,0,0,0,2.14.32,5.3,5.3,0,0,0,2-.36"/><path class="cls-9" d="M208.54,74.87l.74.87.76.89c.51.59,1,1.16,1.61,1.71a23.16,23.16,0,0,0,3.66,3,15.88,15.88,0,0,0,4.32,2,9.57,9.57,0,0,0,2.41.36,6.38,6.38,0,0,0,2.47-.43"/><path class="cls-9" d="M207.72,75.58l.36.42.36.43.78.91c.53.6,1.08,1.19,1.66,1.76a24.25,24.25,0,0,0,3.83,3.11,16.94,16.94,0,0,0,4.62,2.13,10.64,10.64,0,0,0,2.69.4,7.46,7.46,0,0,0,2.88-.51"/><path class="cls-9" d="M206.9,76.29l.35.41.36.43.8.94c.54.62,1.11,1.23,1.71,1.82a25.32,25.32,0,0,0,4,3.25A18,18,0,0,0,219,85.41a11.73,11.73,0,0,0,3,.44,8.55,8.55,0,0,0,3.3-.59"/><path class="cls-9" d="M206.08,77l.34.39.35.42.82,1c.56.64,1.15,1.27,1.77,1.88a26.42,26.42,0,0,0,4.18,3.39A21,21,0,0,0,216,85.42a17.39,17.39,0,0,0,2.76,1,12.8,12.8,0,0,0,3.24.48,9.64,9.64,0,0,0,3.72-.67"/><path class="cls-9" d="M222.88,79.21l.13-.06.22-.13a3.61,3.61,0,0,0,.44-.34,5.46,5.46,0,0,0,.87-1A13,13,0,0,0,226,74.41c.19-.63.37-1.28.53-2,.08-.34.16-.69.23-1s.14-.69.2-1a36.68,36.68,0,0,0,.52-4.14"/><path class="cls-9" d="M223.28,80.22l.24-.11.3-.18a4.69,4.69,0,0,0,.57-.45,6.53,6.53,0,0,0,1-1.24A14,14,0,0,0,227,74.73c.2-.66.38-1.34.55-2,.08-.35.16-.71.24-1.06s.14-.71.21-1.06a37.8,37.8,0,0,0,.53-4.27"/><path class="cls-9" d="M223.69,81.23l.35-.17.38-.22a5.8,5.8,0,0,0,.71-.55,7.62,7.62,0,0,0,1.22-1.45A15,15,0,0,0,228,75.06c.21-.69.4-1.39.57-2.11.08-.36.16-.72.24-1.09s.15-.72.21-1.09a38.87,38.87,0,0,0,.55-4.39"/><path class="cls-9" d="M224.09,82.24a4.55,4.55,0,0,0,.47-.22l.45-.27a6.86,6.86,0,0,0,.84-.66,8.7,8.7,0,0,0,1.39-1.66,16.09,16.09,0,0,0,1.82-4.06A39.29,39.29,0,0,0,230.13,71a40,40,0,0,0,.56-4.51"/><path class="cls-9" d="M224.5,83.25A8.33,8.33,0,0,0,228.15,80a17.15,17.15,0,0,0,2-4.33,40.33,40.33,0,0,0,1.09-4.55,41,41,0,0,0,.58-4.64"/><path class="cls-9" d="M224.9,84.25a6.67,6.67,0,0,0,.69-.32c.21-.12.41-.24.61-.37a9,9,0,0,0,1.11-.86,10.86,10.86,0,0,0,1.75-2.07,18.21,18.21,0,0,0,2.08-4.6c.24-.78.45-1.56.63-2.34q.14-.58.26-1.16t.23-1.18a42.13,42.13,0,0,0,.59-4.76"/><path class="cls-9" d="M225.3,85.26a7.78,7.78,0,0,0,.8-.38c.24-.13.47-.27.69-.41a10.13,10.13,0,0,0,1.24-1A11.94,11.94,0,0,0,230,81.23a19.28,19.28,0,0,0,2.21-4.88c.25-.81.46-1.62.65-2.41.09-.4.18-.79.26-1.19s.16-.8.24-1.2a43.24,43.24,0,0,0,.61-4.88"/><path class="cls-9" d="M225.71,86.27a8.84,8.84,0,0,0,.92-.43c.27-.15.52-.3.77-.46a11.19,11.19,0,0,0,1.38-1.07,13,13,0,0,0,2.1-2.48,20.34,20.34,0,0,0,2.34-5.15c.26-.84.48-1.67.67-2.49.1-.41.18-.81.27-1.21s.17-.82.24-1.23a44.27,44.27,0,0,0,.62-5"/><path class="cls-10" d="M256.68,66.26v.27l0,.54.09,1.14.19,2.33q.18,2.34.33,4.7c.2,3.14.34,6.29.41,9.46"/><path class="cls-9" d="M255.6,66.24a.75.75,0,0,0,0,.12v.24l0,.55.09,1.15.19,2.33q.18,2.33.33,4.68c.2,3.13.34,6.26.41,9.41"/><path class="cls-9" d="M254.51,66.23a1.23,1.23,0,0,0,0,.19l0,.26,0,.56.09,1.15.19,2.32q.18,2.33.33,4.66c.2,3.11.34,6.24.4,9.37"/><path class="cls-9" d="M253.43,66.21a4.56,4.56,0,0,0,0,.54l0,.57.09,1.16.19,2.32q.18,2.32.33,4.65c.2,3.1.34,6.21.4,9.32"/><path class="cls-9" d="M252.34,66.2a5.29,5.29,0,0,0,0,.62l0,.59.09,1.16.19,2.32q.18,2.32.33,4.63c.19,3.09.34,6.18.4,9.27"/><path class="cls-9" d="M251.26,66.18a3.15,3.15,0,0,0,0,.39l0,.32,0,.6.09,1.17L251.6,71q.18,2.31.33,4.62c.19,3.08.34,6.15.4,9.23"/><path class="cls-9" d="M250.17,66.16a4,4,0,0,0,0,.46l0,.34,0,.61.09,1.17.19,2.31q.18,2.3.33,4.6c.19,3.06.33,6.13.4,9.18"/><path class="cls-11" d="M249.09,66.15a5,5,0,0,0,0,.53l0,.36,0,.62.09,1.17.18,2.31q.18,2.3.33,4.59c.19,3.05.33,6.1.39,9.13"/><path class="cls-11" d="M257.76,84.7c.06,3.17,0,6.36-.13,9.58-.09,1.61-.22,3.24-.41,4.88a43.46,43.46,0,0,1-.88,5"/><path class="cls-9" d="M256.67,84.73c.06,3.15,0,6.31-.13,9.5-.09,1.6-.21,3.2-.41,4.81a42.33,42.33,0,0,1-.86,4.9"/><path class="cls-9" d="M255.59,84.75c.06,3.13,0,6.27-.12,9.42-.09,1.58-.21,3.16-.4,4.74a41.29,41.29,0,0,1-.83,4.77"/><path class="cls-9" d="M254.5,84.77c.06,3.11,0,6.23-.12,9.34-.08,1.56-.21,3.12-.4,4.67a40.23,40.23,0,0,1-.81,4.64"/><path class="cls-9" d="M253.41,84.79c.06,3.09,0,6.18-.12,9.26-.08,1.54-.21,3.07-.39,4.6a39.2,39.2,0,0,1-.79,4.52"/><path class="cls-9" d="M252.33,84.81c.06,3.07,0,6.14-.12,9.18-.08,1.52-.2,3-.38,4.53a38.08,38.08,0,0,1-.76,4.39"/><path class="cls-9" d="M251.24,84.83c.06,3.05,0,6.1-.12,9.1-.08,1.5-.2,3-.38,4.46a37,37,0,0,1-.74,4.26"/><path class="cls-11" d="M250.16,84.86c.06,3,0,6.05-.12,9-.08,1.48-.2,3-.37,4.39a36,36,0,0,1-.72,4.14"/><path class="cls-11" d="M256.34,104.2a25.21,25.21,0,0,1-.78,2.62,15.76,15.76,0,0,1-1.3,2.78,10.83,10.83,0,0,1-1,1.45,9,9,0,0,1-.69.72l-.4.35-.2.16-.16.12a12.8,12.8,0,0,1-2.87,1.62,12.51,12.51,0,0,1-6.56.77,11.89,11.89,0,0,1-6.13-2.84"/><path class="cls-9" d="M255.28,103.94a24.13,24.13,0,0,1-.75,2.51,14.69,14.69,0,0,1-1.21,2.58,9.73,9.73,0,0,1-.94,1.31,7.89,7.89,0,0,1-.61.64l-.35.31-.18.14-.15.11a11.72,11.72,0,0,1-2.63,1.49,11.42,11.42,0,0,1-6,.7,10.81,10.81,0,0,1-5.57-2.57"/><path class="cls-9" d="M254.23,103.68a23.09,23.09,0,0,1-.71,2.4,13.63,13.63,0,0,1-1.11,2.39,8.64,8.64,0,0,1-.83,1.16,6.81,6.81,0,0,1-.53.55l-.3.26-.15.12-.14.1a10.63,10.63,0,0,1-2.39,1.35,10.13,10.13,0,0,1-10.43-1.67"/><path class="cls-9" d="M253.17,103.43a22,22,0,0,1-.68,2.29,12.56,12.56,0,0,1-1,2.2,7.59,7.59,0,0,1-.73,1,5.7,5.7,0,0,1-.44.46,5.52,5.52,0,0,1-.49.41,9.55,9.55,0,0,1-2.14,1.21,9.25,9.25,0,0,1-4.85.57,8.65,8.65,0,0,1-4.45-2"/><path class="cls-9" d="M252.12,103.17a21,21,0,0,1-.65,2.17,11.49,11.49,0,0,1-.93,2,5.26,5.26,0,0,1-1.39,1.58,8.45,8.45,0,0,1-1.9,1.07,8.17,8.17,0,0,1-4.28.5,7.57,7.57,0,0,1-3.89-1.78"/><path class="cls-9" d="M251.06,102.91a19.89,19.89,0,0,1-.61,2.06,10.41,10.41,0,0,1-.84,1.82,5.42,5.42,0,0,1-.52.73,3.54,3.54,0,0,1-.28.29l-.14.12-.17.13a7.38,7.38,0,0,1-1.65.94,7.08,7.08,0,0,1-3.71.43,6.49,6.49,0,0,1-3.33-1.52"/><path class="cls-9" d="M250,102.66a18.86,18.86,0,0,1-.58,1.95,9.37,9.37,0,0,1-.75,1.63,4.34,4.34,0,0,1-.41.58l-.19.2-.09.08-.13.1a6.29,6.29,0,0,1-1.41.8,6,6,0,0,1-3.14.37,5.41,5.41,0,0,1-2.77-1.25"/><path class="cls-11" d="M249,102.4a17.75,17.75,0,0,1-.54,1.83,8.31,8.31,0,0,1-.66,1.44,3.28,3.28,0,0,1-.31.44l-.11.12,0,0-.09.07A5.19,5.19,0,0,1,246,107a4.9,4.9,0,0,1-2.57.3,4.33,4.33,0,0,1-2.21-1"/><path class="cls-11" d="M236.19,112a10.34,10.34,0,0,1-2.26-2.87,9.75,9.75,0,0,1-1.09-3.63,10.42,10.42,0,0,1,.3-3.63,11.91,11.91,0,0,1,.55-1.61c.11-.25.22-.5.34-.75l.33-.63a25,25,0,0,1,3.13-4.49,31.72,31.72,0,0,1,3.79-3.68"/><path class="cls-9" d="M236.92,111.16a9.26,9.26,0,0,1-2-2.57,8.67,8.67,0,0,1-1-3.22,9.34,9.34,0,0,1,.27-3.25,10.83,10.83,0,0,1,.5-1.47c.1-.23.2-.46.31-.68l.31-.6a23.89,23.89,0,0,1,3-4.3A30.63,30.63,0,0,1,242,91.52"/><path class="cls-9" d="M237.64,110.35a8.17,8.17,0,0,1-1.79-2.27,7.58,7.58,0,0,1-.85-2.82,8.25,8.25,0,0,1,.24-2.87,9.73,9.73,0,0,1,.45-1.32c.09-.21.18-.42.28-.62l.29-.57a22.81,22.81,0,0,1,2.86-4.1,29.54,29.54,0,0,1,3.53-3.42"/><path class="cls-9" d="M238.36,109.54a7.08,7.08,0,0,1-1.55-2,6.49,6.49,0,0,1-.73-2.42,7.16,7.16,0,0,1,.21-2.49,8.65,8.65,0,0,1,.4-1.17c.16-.38.34-.74.53-1.09A21.71,21.71,0,0,1,240,96.49a28.47,28.47,0,0,1,3.4-3.3"/><path class="cls-9" d="M239.08,108.73a6,6,0,0,1-1.32-1.66,5.4,5.4,0,0,1-.6-2,6.08,6.08,0,0,1,.18-2.12,7.58,7.58,0,0,1,.35-1c.14-.33.31-.66.49-1A23.72,23.72,0,0,1,244,94"/><path class="cls-9" d="M239.81,107.92a4.55,4.55,0,0,1-1.56-3,5,5,0,0,1,.15-1.74,6.47,6.47,0,0,1,.3-.88c.06-.15.13-.29.2-.44l.24-.47a22.65,22.65,0,0,1,5.6-6.56"/><path class="cls-9" d="M240.53,107.11a3.83,3.83,0,0,1-.84-1.06,3.22,3.22,0,0,1-.36-1.21,3.9,3.9,0,0,1,.12-1.36,5.39,5.39,0,0,1,.25-.73c.05-.12.11-.25.17-.37l.22-.43a21.58,21.58,0,0,1,5.33-6.24"/><path class="cls-11" d="M241.25,106.3a2.75,2.75,0,0,1-.61-.76,2.13,2.13,0,0,1-.24-.8,2.82,2.82,0,0,1,.09-1,4.31,4.31,0,0,1,.2-.59c0-.1.09-.21.14-.31l.21-.4a20.51,20.51,0,0,1,5.07-5.91"/><path class="cls-11" d="M241.28,90.68A39.43,39.43,0,0,1,250,85.26a34.74,34.74,0,0,1,4.9-1.81c.43-.12.87-.23,1.31-.33l1.26-.26c.83-.16,1.63-.29,2.43-.42"/><path class="cls-9" d="M242,91.52a38.36,38.36,0,0,1,8.49-5.27,33.69,33.69,0,0,1,4.75-1.75c.41-.12.83-.22,1.26-.32l1.23-.26c.81-.15,1.6-.29,2.39-.41"/><path class="cls-9" d="M242.66,92.36a37.28,37.28,0,0,1,8.25-5.11,32.61,32.61,0,0,1,4.59-1.7q.6-.17,1.21-.31l1.19-.25c.79-.15,1.57-.28,2.35-.4"/><path class="cls-9" d="M243.35,93.19a36.2,36.2,0,0,1,8-5,31.54,31.54,0,0,1,4.44-1.64,40,40,0,0,1,4.62-.93"/><path class="cls-9" d="M244,94a35.12,35.12,0,0,1,7.77-4.81,30.44,30.44,0,0,1,4.28-1.58,39,39,0,0,1,4.49-.9"/><path class="cls-9" d="M244.74,94.87a34,34,0,0,1,7.52-4.66,29.37,29.37,0,0,1,4.13-1.53,38,38,0,0,1,4.37-.87"/><path class="cls-9" d="M245.43,95.71a33,33,0,0,1,7.28-4.51,28.32,28.32,0,0,1,4-1.47,37.09,37.09,0,0,1,4.24-.85"/><path class="cls-11" d="M246.12,96.54a31.89,31.89,0,0,1,7-4.36A27.22,27.22,0,0,1,257,90.77a36.08,36.08,0,0,1,4.11-.82"/><path class="cls-11" d="M259.93,82.44c3.19-.48,6.31-.83,9.44-1.14q2.34-.23,4.68-.43c1.56-.13,3.11-.26,4.7-.37"/><path class="cls-9" d="M260.09,83.52c3.16-.48,6.27-.82,9.38-1.13s6.22-.57,9.35-.8"/><path class="cls-9" d="M260.26,84.59c3.12-.47,6.22-.81,9.33-1.12s6.2-.57,9.32-.79"/><path class="cls-9" d="M260.42,85.66c3.08-.47,6.17-.81,9.27-1.11s6.19-.57,9.29-.79"/><path class="cls-9" d="M260.59,86.74c3-.46,6.13-.8,9.21-1.11s6.17-.56,9.26-.79"/><path class="cls-9" d="M260.75,87.81c3-.46,6.08-.79,9.15-1.1s6.16-.56,9.23-.78"/><path class="cls-9" d="M260.92,88.88c3-.45,6-.79,9.09-1.09s6.14-.56,9.19-.78"/><path class="cls-11" d="M261.08,90c2.94-.45,6-.78,9-1.09q2.29-.23,4.58-.42c1.53-.13,3.07-.25,4.58-.36"/><path class="cls-9" d="M95.74,44.3"/><path class="cls-1" d="M80,82.1l-.08-.19a.53.53,0,0,1-.18-.27c-.09-.27-.17-.61-.27-1.07l-.3-1.42a19.14,19.14,0,0,0-.92-3.27,10.66,10.66,0,0,0-1-1.85,9.78,9.78,0,0,0-1.38-1.68,10.88,10.88,0,0,0-3.43-2.23,14.94,14.94,0,0,0-3.55-1l.14-.89a15.84,15.84,0,0,1,3.76,1,11.79,11.79,0,0,1,3.71,2.41A10.68,10.68,0,0,1,78,73.54a11.57,11.57,0,0,1,1,2A20.19,20.19,0,0,1,80,79l.3,1.42c0,.22.09.41.13.58h0l0,.06.26-.09c.29-.1.61-.24,1-.42l.38.82c-.39.18-.74.33-1.05.45l-.47.16-.19.05h0l-.08,0h0Z"/><path class="cls-1" d="M80.11,82.77a1,1,0,0,1-.56-.15,1,1,0,0,1-.33-.33,1.87,1.87,0,0,1-.19-.42c-.09-.29-.19-.65-.29-1.14l-.29-1.38a18.72,18.72,0,0,0-.89-3.19,9.94,9.94,0,0,0-.89-1.72,9.06,9.06,0,0,0-1.28-1.55,10.17,10.17,0,0,0-3.21-2.08,14.2,14.2,0,0,0-3.38-.92l0-.18a14.37,14.37,0,0,1,3.42.93,10.35,10.35,0,0,1,3.26,2.12,9.24,9.24,0,0,1,1.3,1.58,10.12,10.12,0,0,1,.91,1.76,18.87,18.87,0,0,1,.9,3.22l.29,1.38c.1.48.19.83.28,1.12a1.7,1.7,0,0,0,.17.38.82.82,0,0,0,.27.28,1.06,1.06,0,0,0,.77.09h.14l.23-.06.5-.17c.33-.12.69-.27,1.1-.46l.08.16c-.41.19-.78.35-1.11.47l-.51.17-.24.07h-.15A1.64,1.64,0,0,1,80.11,82.77Z"/><path class="cls-1" d="M80,83.87h-.21A1.78,1.78,0,0,1,78.35,83,3.43,3.43,0,0,1,78,82.2c-.11-.33-.2-.71-.32-1.24l-.29-1.39a17.86,17.86,0,0,0-.84-3A8.86,8.86,0,0,0,75.76,75a8,8,0,0,0-1.12-1.36,9.1,9.1,0,0,0-2.87-1.86A13.12,13.12,0,0,0,68.65,71l0-.18a13.29,13.29,0,0,1,3.16.86,9.28,9.28,0,0,1,2.93,1.89,8.17,8.17,0,0,1,1.15,1.4,9,9,0,0,1,.81,1.57,18,18,0,0,1,.85,3l.29,1.39c.11.52.21.9.31,1.22a3.26,3.26,0,0,0,.33.74,1.7,1.7,0,0,0,.54.56,1.67,1.67,0,0,0,.74.24,2.79,2.79,0,0,0,.8-.06l.5-.13.57-.19c.36-.13.75-.3,1.18-.5l.08.16c-.44.21-.83.37-1.2.51l-.58.19-.51.13A3.21,3.21,0,0,1,80,83.87Z"/><path class="cls-1" d="M79.87,85h-.31a2.7,2.7,0,0,1-1.2-.38,2.75,2.75,0,0,1-.88-.9A5.05,5.05,0,0,1,77,82.54c-.15-.47-.26-1-.35-1.34l-.29-1.4A16.76,16.76,0,0,0,75.54,77a7.78,7.78,0,0,0-.69-1.35,6.91,6.91,0,0,0-1-1.18,8,8,0,0,0-2.53-1.63A12,12,0,0,0,68.48,72l0-.18a12.2,12.2,0,0,1,2.9.79A8.21,8.21,0,0,1,74,74.31a7.09,7.09,0,0,1,1,1.21,8,8,0,0,1,.71,1.38,16.91,16.91,0,0,1,.79,2.86l.29,1.4c.08.37.19.86.34,1.32a4.87,4.87,0,0,0,.49,1.1,2.57,2.57,0,0,0,.82.85,2.52,2.52,0,0,0,1.12.36,4.21,4.21,0,0,0,1.2-.09l.62-.16.64-.21c.39-.14.8-.32,1.27-.54l.08.16c-.47.22-.89.4-1.28.54l-.65.22c-.22.06-.44.12-.64.16A4.75,4.75,0,0,1,79.87,85Z"/><path class="cls-1" d="M79.81,86.07l-.47,0a3.65,3.65,0,0,1-1.57-.51,3.71,3.71,0,0,1-1.16-1.17,6.32,6.32,0,0,1-.68-1.5c-.16-.51-.28-1-.37-1.45l-.3-1.4a15.89,15.89,0,0,0-.73-2.65,6.06,6.06,0,0,0-1.41-2.15,7,7,0,0,0-2.19-1.41,11.07,11.07,0,0,0-2.61-.7l0-.18a11.25,11.25,0,0,1,2.65.71,7.14,7.14,0,0,1,2.25,1.45,6.24,6.24,0,0,1,1.46,2.22A16,16,0,0,1,75.44,80l.3,1.4c.09.42.21.92.37,1.43a6.14,6.14,0,0,0,.66,1.45,3.52,3.52,0,0,0,1.1,1.11,3.47,3.47,0,0,0,1.49.49,5.38,5.38,0,0,0,1.59-.1c.25,0,.48-.11.75-.19l.71-.24c.42-.15.86-.34,1.35-.57l.08.16c-.5.23-.95.42-1.37.58l-.72.24c-.27.08-.51.14-.76.19A6,6,0,0,1,79.81,86.07Z"/><path class="cls-1" d="M79.81,87.16a5.68,5.68,0,0,1-.68,0,4.71,4.71,0,0,1-1.92-.65A4.76,4.76,0,0,1,75.77,85a7.29,7.29,0,0,1-.86-1.84c-.18-.55-.3-1.09-.4-1.55l-.3-1.41a14.69,14.69,0,0,0-.67-2.47A5,5,0,0,0,72.37,76a7.71,7.71,0,0,0-4.2-1.82l0-.18a7.88,7.88,0,0,1,4.3,1.87,5.12,5.12,0,0,1,1.21,1.84,14.83,14.83,0,0,1,.68,2.5l.3,1.41c.1.45.22,1,.4,1.53a7.11,7.11,0,0,0,.84,1.8,4.58,4.58,0,0,0,1.39,1.36,4.53,4.53,0,0,0,1.84.63,6.41,6.41,0,0,0,2-.1c.35-.07.6-.14.87-.22l.77-.26c.45-.17.91-.36,1.44-.61l.08.16c-.54.25-1,.45-1.45.61l-.79.26c-.28.08-.53.15-.89.22A7.14,7.14,0,0,1,79.81,87.16Z"/><path class="cls-1" d="M79.81,88.24a6.68,6.68,0,0,1-.89-.06,5.65,5.65,0,0,1-4-2.46,8.25,8.25,0,0,1-1-2.19c-.19-.6-.32-1.15-.43-1.65l-.3-1.42a14,14,0,0,0-.62-2.28,3.89,3.89,0,0,0-.91-1.41,4.82,4.82,0,0,0-1.52-1A8.84,8.84,0,0,0,68,75.25l0-.18a9,9,0,0,1,2.13.57,5,5,0,0,1,1.58,1,4.06,4.06,0,0,1,1,1.47,14.15,14.15,0,0,1,.63,2.31l.3,1.42c.11.5.23,1,.42,1.63a8.06,8.06,0,0,0,1,2.14A5.47,5.47,0,0,0,78.94,88a7.39,7.39,0,0,0,2.37-.09l.55-.12.45-.12c.27-.08.55-.17.84-.28.48-.18,1-.38,1.52-.64l.08.16c-.56.26-1.05.47-1.54.65-.3.11-.58.2-.85.28l-.45.12-.56.12A8.18,8.18,0,0,1,79.81,88.24Z"/><path class="cls-1" d="M79.8,89.69a8.07,8.07,0,0,1-1.15-.08,7.11,7.11,0,0,1-4.89-3A9.58,9.58,0,0,1,72.49,84c-.21-.65-.35-1.25-.46-1.79l-.3-1.43a12.34,12.34,0,0,0-.54-2,2.41,2.41,0,0,0-.58-.91,3.4,3.4,0,0,0-1.06-.66,7.49,7.49,0,0,0-1.75-.46l.13-.89a8.39,8.39,0,0,1,2,.52,4.29,4.29,0,0,1,1.35.85A3.35,3.35,0,0,1,72,78.38a13.07,13.07,0,0,1,.59,2.2l.3,1.42c.11.52.24,1.08.44,1.7a8.69,8.69,0,0,0,1.16,2.39,6.2,6.2,0,0,0,4.28,2.62,8,8,0,0,0,2.65-.09l.33-.07.29-.07.47-.13c.29-.08.58-.18.89-.3.5-.19,1-.4,1.58-.67l.38.82c-.6.28-1.13.5-1.65.7-.33.12-.64.23-.95.31l-.51.14-.3.07-.37.08A9.57,9.57,0,0,1,79.8,89.69Z"/><path class="cls-11" d="M82,80.93c.36-.17.74-.36,1.15-.57L83.8,80l.64-.32q1.19-.6,2.37-1.27c1.58-.89,3.14-1.85,4.72-2.86L93.9,74l2.35-1.55q2.34-1.56,4.63-3.19"/><path class="cls-9" d="M82.45,81.91c.38-.18.77-.38,1.19-.59l.65-.33.64-.32q1.21-.62,2.41-1.29c1.6-.9,3.18-1.88,4.77-2.89l2.38-1.54,2.36-1.56c1.57-1,3.46-2.36,5-3.45"/><path class="cls-9" d="M82.91,82.89c.4-.19.81-.39,1.23-.61l.64-.33.64-.32q1.24-.63,2.46-1.32c1.62-.92,3.22-1.9,4.82-2.92,3.2-2,6.7-4.41,9.79-6.61"/><path class="cls-9" d="M83.37,83.88c.42-.2.84-.41,1.26-.63l1.28-.65q1.26-.64,2.5-1.34c1.65-.93,3.26-1.93,4.87-3,3.21-2.05,6.38-4.16,9.48-6.36"/><path class="cls-9" d="M83.83,84.86c.44-.21.87-.43,1.3-.65l1.27-.65q1.29-.65,2.54-1.36c1.67-.94,3.31-2,4.92-3,3.22-2.06,6.41-4.18,9.52-6.39"/><path class="cls-9" d="M84.29,85.84c.46-.22.91-.44,1.34-.66l.63-.32.64-.32q1.31-.67,2.59-1.39c1.7-1,3.35-2,5-3,3.23-2.06,6.43-4.2,9.57-6.42"/><path class="cls-9" d="M84.75,86.82c.48-.23.94-.46,1.37-.68l.62-.32.64-.32q1.34-.68,2.63-1.41c1.72-1,3.39-2,5-3l2.42-1.57,2.42-1.6c1.6-1.07,3-2,4.59-3.16"/><path class="cls-11" d="M85.22,87.81c.5-.23,1-.47,1.41-.7l.62-.32.64-.32q1.36-.69,2.67-1.43c1.75-1,3.43-2,5.07-3.07L98,80.39l2.43-1.61c1.61-1.08,3-2,4.61-3.13"/><path class="cls-1" d="M51.55,79.08a13.86,13.86,0,0,1,1.37-3.51,12.1,12.1,0,0,1,2.45-3.08,12.56,12.56,0,0,1,3.25-2.11,15.51,15.51,0,0,1,3.48-1.09A19.9,19.9,0,0,1,65.51,69a20.42,20.42,0,0,1,3.41.21l.13-.89a21.34,21.34,0,0,0-3.56-.22,20.8,20.8,0,0,0-3.57.36,16.42,16.42,0,0,0-3.68,1.15,13.46,13.46,0,0,0-3.48,2.26,13,13,0,0,0-2.63,3.31,14.76,14.76,0,0,0-1.46,3.73,17.45,17.45,0,0,0-.47,3.81c0,.49,0,1,0,1.5h.91c0-.54,0-1,0-1.48A16.55,16.55,0,0,1,51.55,79.08Z"/><path class="cls-1" d="M52.25,79.29a13.26,13.26,0,0,1,1.29-3.34,11.45,11.45,0,0,1,2.3-2.9,11.87,11.87,0,0,1,3.06-2,14.78,14.78,0,0,1,3.31-1,19.16,19.16,0,0,1,3.29-.33,19.68,19.68,0,0,1,3.29.2l0-.18a20,20,0,0,0-3.32-.21,19.37,19.37,0,0,0-3.32.33,15,15,0,0,0-3.35,1,12,12,0,0,0-3.11,2,11.58,11.58,0,0,0-2.34,2.94,13.57,13.57,0,0,0-1.31,3.4,15.81,15.81,0,0,0-.39,4.93h.18A15.6,15.6,0,0,1,52.25,79.29Z"/><path class="cls-1" d="M53.31,79.54a12.17,12.17,0,0,1,1.19-3.07,10.38,10.38,0,0,1,2.08-2.63A10.8,10.8,0,0,1,59.36,72a13.68,13.68,0,0,1,3.07-1,18.09,18.09,0,0,1,3.11-.31,18.58,18.58,0,0,1,3.11.19l0-.18a18.83,18.83,0,0,0-3.14-.2,18.27,18.27,0,0,0-3.14.31,13.87,13.87,0,0,0-3.11,1,11,11,0,0,0-2.83,1.84,10.51,10.51,0,0,0-2.12,2.66,12.49,12.49,0,0,0-1.2,3.13,14.94,14.94,0,0,0-.36,4.67H53A14.73,14.73,0,0,1,53.31,79.54Z"/><path class="cls-1" d="M54.36,79.8A11.08,11.08,0,0,1,55.44,77a9.18,9.18,0,0,1,1.86-2.35A9.73,9.73,0,0,1,59.81,73a12.59,12.59,0,0,1,2.83-.88,17,17,0,0,1,2.92-.29,17.81,17.81,0,0,1,2.93.18l0-.18a18,18,0,0,0-3-.18,17.21,17.21,0,0,0-3,.29,12.77,12.77,0,0,0-2.87.89,9.89,9.89,0,0,0-2.55,1.65,9.32,9.32,0,0,0-1.9,2.39,11.4,11.4,0,0,0-1.1,2.85,13.84,13.84,0,0,0-.32,4.42H54A13.63,13.63,0,0,1,54.36,79.8Z"/><path class="cls-1" d="M55.41,80.06A8.86,8.86,0,0,1,58,75.47a9.87,9.87,0,0,1,4.81-2.25,15.93,15.93,0,0,1,2.74-.27,16.64,16.64,0,0,1,2.75.17l0-.18a16.91,16.91,0,0,0-2.78-.17,16.12,16.12,0,0,0-2.77.27,10,10,0,0,0-4.9,2.29A9.1,9.1,0,0,0,55.24,80a12.93,12.93,0,0,0-.29,4.16h.18A12.73,12.73,0,0,1,55.41,80.06Z"/><path class="cls-1" d="M56.46,80.31a7.81,7.81,0,0,1,2.29-4c2-1.83,5.52-2.61,9.41-2.09l0-.18c-3.94-.53-7.51.26-9.55,2.12a8,8,0,0,0-2.34,4.14,11.65,11.65,0,0,0-.25,3.9h.18A11.46,11.46,0,0,1,56.46,80.31Z"/><path class="cls-1" d="M57.51,80.57a7.82,7.82,0,0,1,.75-2,5.93,5.93,0,0,1,1.2-1.53,7.73,7.73,0,0,1,3.77-1.73,13.79,13.79,0,0,1,2.36-.23,14.35,14.35,0,0,1,2.39.14l0-.18a14.61,14.61,0,0,0-2.42-.15,14,14,0,0,0-2.39.23,7.9,7.9,0,0,0-3.86,1.77,6.06,6.06,0,0,0-1.24,1.56,8.13,8.13,0,0,0-.77,2,10.88,10.88,0,0,0-.21,3.65h.18A10.68,10.68,0,0,1,57.51,80.57Z"/><path class="cls-1" d="M58.92,80.91a6.37,6.37,0,0,1,.61-1.6,4.54,4.54,0,0,1,.91-1.16,5.09,5.09,0,0,1,1.3-.84,7.85,7.85,0,0,1,1.77-.55,12.18,12.18,0,0,1,2.12-.21,12.94,12.94,0,0,1,2.14.13l.13-.89a13.88,13.88,0,0,0-2.29-.14,13.07,13.07,0,0,0-2.27.22,8.75,8.75,0,0,0-2,.61,6,6,0,0,0-1.54,1,5.38,5.38,0,0,0-1.09,1.38A7.4,7.4,0,0,0,58,80.7a10,10,0,0,0-.19,3.47h.91A9,9,0,0,1,58.92,80.91Z"/><path class="cls-11" d="M102.65,70.11a15.31,15.31,0,0,0,1.1,3.94,10,10,0,0,0,.9,1.62,7.54,7.54,0,0,0,.53.68l.28.3.26.25A4.66,4.66,0,0,0,108.28,78l.36,0H109a5.46,5.46,0,0,0,.76-.08,8,8,0,0,0,1.66-.5"/><path class="cls-9" d="M101.57,70.27a16.37,16.37,0,0,0,1.18,4.22,11,11,0,0,0,1,1.8,8.63,8.63,0,0,0,.6.77l.32.35.32.3a5.75,5.75,0,0,0,3.16,1.38,6,6,0,0,0,.88,0,6.56,6.56,0,0,0,.91-.1,9.1,9.1,0,0,0,1.89-.56"/><path class="cls-9" d="M100.5,70.42a17.45,17.45,0,0,0,1.27,4.51,12.12,12.12,0,0,0,1.1,2,9.72,9.72,0,0,0,.68.87l.37.4.38.36A6.84,6.84,0,0,0,108,80.17a8.49,8.49,0,0,0,4.22-.7"/><path class="cls-9" d="M99.43,70.58a18.53,18.53,0,0,0,1.35,4.79,13.2,13.2,0,0,0,1.2,2.15,10,10,0,0,0,1.61,1.82,7.93,7.93,0,0,0,4.34,1.9,9.57,9.57,0,0,0,4.75-.78"/><path class="cls-9" d="M98.37,70.86a19.52,19.52,0,0,0,1.41,5,12.55,12.55,0,0,0,3.08,4.35,9,9,0,0,0,4.93,2.16,9.5,9.5,0,0,0,2.71-.09,12.35,12.35,0,0,0,2.57-.76"/><path class="cls-9" d="M97.4,71.62a20.21,20.21,0,0,0,1.39,4.63,15.37,15.37,0,0,0,1.4,2.51,13,13,0,0,0,.9,1.16c.16.19.33.36.51.54s.36.35.56.52a10.11,10.11,0,0,0,5.52,2.42,10.58,10.58,0,0,0,3-.1,13.41,13.41,0,0,0,2.8-.83"/><path class="cls-9" d="M97.38,71.56v.07"/><path class="cls-9" d="M96.42,72.28A21,21,0,0,0,97.8,76.7a16.45,16.45,0,0,0,1.5,2.68,14,14,0,0,0,1,1.25c.18.2.36.4.55.59s.4.39.61.58a11.18,11.18,0,0,0,6.11,2.68,11.44,11.44,0,0,0,1.68.06,12,12,0,0,0,1.65-.17,14.52,14.52,0,0,0,3-.89"/><path class="cls-11" d="M95.43,72.87a21.86,21.86,0,0,0,1.37,4.27A17.53,17.53,0,0,0,98.41,80a15.12,15.12,0,0,0,1.05,1.35c.19.22.39.43.6.64s.44.43.67.63a12.26,12.26,0,0,0,6.7,2.94c.31,0,.61.06.92.07s.62,0,.92,0a13,13,0,0,0,1.8-.19,15.58,15.58,0,0,0,3.25-1"/><path class="cls-11" d="M111.43,77.46a13.61,13.61,0,0,0,1.79-.91c.62-.37,1.23-.78,1.83-1.22a29.68,29.68,0,0,0,3.43-3,45.1,45.1,0,0,0,3.14-3.54q.75-.94,1.48-1.92c.48-.65.95-1.3,1.4-2"/><path class="cls-9" d="M111.84,78.46a14.69,14.69,0,0,0,1.93-1c.65-.39,1.29-.82,1.92-1.27a30.77,30.77,0,0,0,3.55-3.1,46.19,46.19,0,0,0,3.22-3.63c1-1.28,2-2.61,2.93-4"/><path class="cls-9" d="M112.25,79.47a15.78,15.78,0,0,0,2.08-1.06c.69-.41,1.35-.86,2-1.33A31.84,31.84,0,0,0,120,73.87a47.3,47.3,0,0,0,3.29-3.71c1-1.3,2-2.65,3-4"/><path class="cls-9" d="M112.67,80.47a16.86,16.86,0,0,0,2.22-1.13c.72-.43,1.42-.89,2.09-1.39a32.93,32.93,0,0,0,3.81-3.32,48.39,48.39,0,0,0,3.37-3.8c1.06-1.33,2.08-2.69,3-4.09"/><path class="cls-9" d="M113.08,81.48a17.94,17.94,0,0,0,2.36-1.2c.75-.45,1.48-.93,2.18-1.45a34,34,0,0,0,3.93-3.43A49.41,49.41,0,0,0,125,71.51c1.08-1.35,2.11-2.73,3.08-4.16"/><path class="cls-9" d="M113.49,82.48a19,19,0,0,0,2.5-1.27c.79-.47,1.54-1,2.27-1.51a35.1,35.1,0,0,0,4.06-3.54,50.52,50.52,0,0,0,3.52-4c1.1-1.37,2.14-2.77,3.14-4.23"/><path class="cls-9" d="M113.91,83.48a20.14,20.14,0,0,0,2.64-1.34c.82-.49,1.6-1,2.36-1.57a36.18,36.18,0,0,0,4.19-3.64,51.61,51.61,0,0,0,3.6-4.06c1.12-1.4,2.17-2.81,3.19-4.3"/><path class="cls-11" d="M114.32,84.49a21.18,21.18,0,0,0,2.78-1.41c.85-.51,1.67-1.05,2.45-1.63a37.26,37.26,0,0,0,4.31-3.75,52.71,52.71,0,0,0,3.67-4.14q.85-1.06,1.66-2.15c.54-.72,1.07-1.47,1.58-2.23"/><path class="cls-11" d="M124.49,64.91q.67-1,1.27-2,.3-.5.58-1l.27-.5.24-.47a43.1,43.1,0,0,0,1.76-4.37l.43-1.18.4-1.16c.26-.77.5-1.53.72-2.29a31.91,31.91,0,0,0,1-4.48"/><path class="cls-9" d="M125.39,65.52q.68-1,1.3-2,.31-.51.6-1l.28-.52.26-.5a44,44,0,0,0,1.81-4.48c.3-.81.57-1.58.84-2.36s.51-1.56.73-2.33a33,33,0,0,0,1-4.63"/><path class="cls-9" d="M126.29,66.13c.47-.69.91-1.38,1.33-2.09q.32-.53.62-1.07l.29-.54.27-.53a45,45,0,0,0,1.86-4.59,46,46,0,0,0,2.64-9.55"/><path class="cls-9" d="M127.19,66.74a39.12,39.12,0,0,0,2.59-4.35,45.94,45.94,0,0,0,1.9-4.71,47.08,47.08,0,0,0,2.69-9.78"/><path class="cls-9" d="M128.09,67.35a40.11,40.11,0,0,0,2.66-4.48,46.86,46.86,0,0,0,2-4.82,48.11,48.11,0,0,0,2.75-10"/><path class="cls-9" d="M129,68c.5-.73,1-1.48,1.43-2.24q.34-.57.67-1.16l.32-.59.31-.62a47.82,47.82,0,0,0,2-4.93,49.13,49.13,0,0,0,2.8-10.22"/><path class="cls-9" d="M129.88,68.57c.51-.75,1-1.51,1.47-2.29q.35-.59.69-1.19l.33-.61.33-.64a48.79,48.79,0,0,0,2-5,50.17,50.17,0,0,0,2.86-10.45"/><path class="cls-11" d="M130.78,69.18c.52-.76,1-1.54,1.5-2.34q.36-.6.71-1.22l.34-.62.34-.67a49.74,49.74,0,0,0,2.09-5.15,51.2,51.2,0,0,0,2.91-10.67"/><path class="cls-11" d="M131.14,47.47a12,12,0,0,0,.13-1.94,4.45,4.45,0,0,0-.22-1.35,1.24,1.24,0,0,0-.35-.57,2.07,2.07,0,0,0-.79-.4,5.1,5.1,0,0,0-1.44-.19,7.82,7.82,0,0,0-1.71.2,7.41,7.41,0,0,0-1.59.55,4.52,4.52,0,0,0-.6.35,1.93,1.93,0,0,0-.34.29"/><path class="cls-9" d="M132.22,47.62a13,13,0,0,0,.14-2.12,5.51,5.51,0,0,0-.28-1.69,2.32,2.32,0,0,0-.65-1,3.13,3.13,0,0,0-1.21-.63,7.59,7.59,0,0,0-3.7,0,8.49,8.49,0,0,0-1.83.64,5.61,5.61,0,0,0-.75.44,3,3,0,0,0-.52.45"/><path class="cls-9" d="M133.29,47.76a14.1,14.1,0,0,0,.15-2.29,6.58,6.58,0,0,0-.34-2,3.42,3.42,0,0,0-.95-1.46,4.21,4.21,0,0,0-1.62-.86,8.65,8.65,0,0,0-4.26,0,9.56,9.56,0,0,0-2.06.72A5.32,5.32,0,0,0,122.63,43"/><path class="cls-9" d="M134.37,47.91a15.17,15.17,0,0,0,.16-2.47,7.64,7.64,0,0,0-.4-2.35,4.51,4.51,0,0,0-1.25-1.9,5.29,5.29,0,0,0-2-1.1,8.33,8.33,0,0,0-2.38-.32A11,11,0,0,0,126,40a10.64,10.64,0,0,0-2.3.81,6.38,6.38,0,0,0-1.91,1.37"/><path class="cls-9" d="M135.45,48.06a16.23,16.23,0,0,0,.17-2.65,8.72,8.72,0,0,0-.47-2.69,6.12,6.12,0,0,0-.62-1.26,5.36,5.36,0,0,0-.93-1.08A6.37,6.37,0,0,0,131.15,39a9.4,9.4,0,0,0-2.69-.37,12.14,12.14,0,0,0-2.67.31,11.73,11.73,0,0,0-2.54.89A7.44,7.44,0,0,0,121,41.49"/><path class="cls-9" d="M136.52,48.2a17.29,17.29,0,0,0,.18-2.83,9.8,9.8,0,0,0-.53-3,7.2,7.2,0,0,0-.73-1.49,6.45,6.45,0,0,0-1.11-1.3A7.46,7.46,0,0,0,131.46,38a10.48,10.48,0,0,0-3-.41,13.21,13.21,0,0,0-2.91.34,12.81,12.81,0,0,0-2.78,1,10,10,0,0,0-1.32.78,7.34,7.34,0,0,0-1.24,1.08"/><path class="cls-9" d="M137.6,48.35a18.38,18.38,0,0,0,.19-3,10.87,10.87,0,0,0-.59-3.36,8.28,8.28,0,0,0-.84-1.71,7.53,7.53,0,0,0-1.3-1.52A8.54,8.54,0,0,0,131.77,37a11.56,11.56,0,0,0-3.32-.46,14.3,14.3,0,0,0-3.15.36,13.87,13.87,0,0,0-3,1.06,11,11,0,0,0-1.47.86A8.43,8.43,0,0,0,119.41,40"/><path class="cls-11" d="M138.67,48.5a19.44,19.44,0,0,0,.2-3.18,12,12,0,0,0-.66-3.69,9.74,9.74,0,0,0-.4-1l-.12-.24-.13-.25c-.09-.17-.19-.33-.29-.49a8.63,8.63,0,0,0-1.49-1.74,9.05,9.05,0,0,0-1.8-1.25,10.25,10.25,0,0,0-1.89-.77,12.64,12.64,0,0,0-3.63-.5,15.39,15.39,0,0,0-3.39.39A15,15,0,0,0,121.82,37a12.1,12.1,0,0,0-1.61.95,9.5,9.5,0,0,0-1.6,1.4"/><path class="cls-11" d="M124.23,44.41a.84.84,0,0,0-.22.45,1.82,1.82,0,0,0,0,.2s0,.08,0,.12,0,0,0,.07v.1q0,.52,0,1.07c0,.73.14,1.51.24,2.32l.17,1.24.18,1.23c.49,3.29,1.13,6.58,1.83,9.88"/><path class="cls-9" d="M123.43,43.68a1.93,1.93,0,0,0-.49,1,2.92,2.92,0,0,0,0,.33c0,.06,0,.12,0,.18s0,.06,0,.09v.12c0,.37,0,.75,0,1.13.05.77.14,1.56.25,2.39s.22,1.66.35,2.49c.5,3.31,1.13,6.63,1.84,9.94"/><path class="cls-9" d="M122.63,43a3,3,0,0,0-.75,1.49,4,4,0,0,0-.06.45c0,.08,0,.16,0,.24s0,.08,0,.12v.14c0,.39,0,.79,0,1.19.05.8.15,1.62.25,2.45s.23,1.68.35,2.51c.5,3.34,1.14,6.68,1.85,10"/><path class="cls-9" d="M121.82,42.22a4.12,4.12,0,0,0-1,2,5.49,5.49,0,0,0-.1,1.17c0,.42,0,.83.05,1.25.06.84.15,1.68.26,2.52s.23,1.69.35,2.53c.51,3.37,1.15,6.73,1.86,10.07"/><path class="cls-9" d="M121,41.49a5.25,5.25,0,0,0-.81,1.18,5.34,5.34,0,0,0-.46,1.35,6.59,6.59,0,0,0-.12,1.39c0,.44,0,.88.05,1.31.06.87.16,1.73.27,2.59s.23,1.7.36,2.56c.51,3.4,1.16,6.78,1.87,10.14"/><path class="cls-9" d="M120.22,40.76a6.34,6.34,0,0,0-1,1.42,6.43,6.43,0,0,0-.55,1.63,7.26,7.26,0,0,0-.11.82c0,.14,0,.27,0,.4s0,.13,0,.2v.19c0,.46,0,.92.06,1.37.06.91.16,1.79.27,2.66s.23,1.72.36,2.58c.52,3.43,1.17,6.83,1.89,10.2"/><path class="cls-9" d="M119.41,40a7.43,7.43,0,0,0-1.14,1.66,7.52,7.52,0,0,0-.65,1.9,8.32,8.32,0,0,0-.13.95c0,.16,0,.31,0,.46s0,.15,0,.23v.2c0,.49,0,1,.06,1.44.06.94.17,1.85.28,2.72s.23,1.73.36,2.6c.52,3.46,1.18,6.88,1.9,10.26"/><path class="cls-11" d="M118.61,39.3a8.52,8.52,0,0,0-1.31,1.91,8.61,8.61,0,0,0-.74,2.18,9.39,9.39,0,0,0-.15,1.07c0,.17,0,.35,0,.52s0,.17,0,.25v.22c0,.51,0,1,.06,1.5.07,1,.17,1.9.29,2.79L116.9,51l.19,1.31c.53,3.49,1.19,6.93,1.91,10.33"/><path class="cls-11" d="M126.43,61.1c.35,1.65.72,3.32,1.09,5s.77,3.27,1.19,4.87.88,3.17,1.38,4.71a23.17,23.17,0,0,0,1.69,4.06"/><path class="cls-9" d="M125.37,61.32c.35,1.65.72,3.33,1.1,5s.77,3.29,1.2,4.9.89,3.21,1.4,4.78a24.21,24.21,0,0,0,1.78,4.25"/><path class="cls-9" d="M124.31,61.55c.35,1.66.72,3.33,1.1,5s.78,3.31,1.21,4.94.9,3.25,1.42,4.84a25.26,25.26,0,0,0,1.86,4.44"/><path class="cls-9" d="M123.25,61.77c.72,3.34,1.45,6.69,2.32,10,.44,1.65.91,3.28,1.44,4.9A26.3,26.3,0,0,0,129,81.29"/><path class="cls-9" d="M122.18,62c.72,3.35,1.46,6.7,2.33,10,.44,1.66.92,3.32,1.46,5a27.35,27.35,0,0,0,2,4.83"/><path class="cls-9" d="M121.12,62.23c.36,1.69.73,3.36,1.11,5s.79,3.36,1.23,5,.93,3.36,1.48,5a28.4,28.4,0,0,0,2.11,5"/><path class="cls-9" d="M120.06,62.45c.36,1.7.73,3.37,1.12,5.06s.79,3.38,1.24,5.08.94,3.39,1.49,5.08a29.46,29.46,0,0,0,2.2,5.21"/><path class="cls-11" d="M119,62.68c.36,1.7.73,3.38,1.12,5.08s.8,3.4,1.25,5.12.95,3.43,1.51,5.14a30.5,30.5,0,0,0,2.28,5.4"/><path class="cls-11" d="M131.79,79.7a9.52,9.52,0,0,0,1,1.51,4.59,4.59,0,0,0,1,.93,2.54,2.54,0,0,0,1,.37,3.35,3.35,0,0,0,1.2-.06,7.89,7.89,0,0,0,1.63-.56,19,19,0,0,0,1.88-1l.5-.31.52-.32,1-.64a21.54,21.54,0,0,0,1.75-1.3"/><path class="cls-9" d="M130.85,80.23a7.71,7.71,0,0,0,2.44,2.83,3.79,3.79,0,0,0,3,.45,9,9,0,0,0,1.86-.64,20,20,0,0,0,2-1.07l1-.64,1-.66A22.61,22.61,0,0,0,144,79.15"/><path class="cls-9" d="M129.9,80.76A8.75,8.75,0,0,0,132.71,84a4.71,4.71,0,0,0,1.78.67,5.51,5.51,0,0,0,2-.08,14,14,0,0,0,4.19-1.83,33.53,33.53,0,0,0,4-2.76"/><path class="cls-9" d="M129,81.29a9.8,9.8,0,0,0,3.18,3.61,5.8,5.8,0,0,0,2.18.82,6.6,6.6,0,0,0,2.36-.09,15,15,0,0,0,4.52-2,34.57,34.57,0,0,0,4.16-2.86"/><path class="cls-9" d="M128,81.82a13.81,13.81,0,0,0,1.51,2.2,8.9,8.9,0,0,0,2,1.8,6.89,6.89,0,0,0,2.59,1,7.68,7.68,0,0,0,2.75-.1,16.06,16.06,0,0,0,4.86-2.1,35.56,35.56,0,0,0,4.3-3"/><path class="cls-9" d="M127.06,82.35a14.89,14.89,0,0,0,1.63,2.38,10,10,0,0,0,2.3,2,8,8,0,0,0,3,1.13,8.76,8.76,0,0,0,3.13-.11,13.25,13.25,0,0,0,2.77-.93,24.26,24.26,0,0,0,2.43-1.3l1.13-.7,1.12-.73a26.92,26.92,0,0,0,2.2-1.63"/><path class="cls-9" d="M126.11,82.88a16,16,0,0,0,1.75,2.55,11.06,11.06,0,0,0,2.55,2.24,9.07,9.07,0,0,0,3.41,1.28,9.85,9.85,0,0,0,3.52-.12,14.32,14.32,0,0,0,3-1,25.32,25.32,0,0,0,2.54-1.35l1.15-.71,1.14-.74a28,28,0,0,0,2.28-1.7"/><path class="cls-11" d="M125.16,83.41A17,17,0,0,0,127,86.14a12.15,12.15,0,0,0,2.8,2.45A10.16,10.16,0,0,0,133.65,90a10.93,10.93,0,0,0,3.91-.13,15.39,15.39,0,0,0,3.23-1.08,26.39,26.39,0,0,0,2.65-1.41L144,87l.57-.36,1.17-.76a29.07,29.07,0,0,0,2.37-1.76"/><path class="cls-11" d="M143.28,78.31A11.17,11.17,0,0,0,144.65,77a7,7,0,0,0,.51-.67l.17-.27c0-.08.08-.16.11-.23a1.52,1.52,0,0,0,.11-.35.64.64,0,0,0,0-.19.87.87,0,0,0-.22-.43,4.54,4.54,0,0,0-1-.88,17.89,17.89,0,0,0-1.85-1c-.66-.32-1.33-.62-2-.87l-.26-.09-.27-.1-.54-.19-.27-.08h0"/><path class="cls-9" d="M144,79.15a12.26,12.26,0,0,0,1.5-1.47,8.15,8.15,0,0,0,.58-.77c.09-.14.15-.24.22-.35a3.59,3.59,0,0,0,.16-.33,2.12,2.12,0,0,0,.19-1.1,1.93,1.93,0,0,0-.45-1,5.57,5.57,0,0,0-1.3-1.11,18.87,18.87,0,0,0-2-1.08c-.69-.34-1.4-.65-2.11-.91l-.27-.1-.28-.1-.56-.2-.37-.11-.2,0"/><path class="cls-9" d="M144.67,80a13.33,13.33,0,0,0,1.64-1.6,9.19,9.19,0,0,0,.66-.87c.1-.15.19-.29.26-.43a4.73,4.73,0,0,0,.21-.43A3.2,3.2,0,0,0,147.7,75a3,3,0,0,0-.68-1.51,6.63,6.63,0,0,0-1.55-1.34A19.85,19.85,0,0,0,143.39,71c-.72-.36-1.46-.68-2.21-1l-.57-.21-.58-.2-.47-.14a2.06,2.06,0,0,0-.37-.05"/><path class="cls-9" d="M145.37,80.82a14.42,14.42,0,0,0,1.77-1.73,10.25,10.25,0,0,0,.74-1,6.09,6.09,0,0,0,.57-1,4.28,4.28,0,0,0,.34-2.23,4.1,4.1,0,0,0-.91-2,7.67,7.67,0,0,0-1.81-1.56A20.91,20.91,0,0,0,143.87,70c-.75-.37-1.52-.71-2.31-1l-.59-.21-.6-.21a4.13,4.13,0,0,0-1.12-.24"/><path class="cls-9" d="M146.06,81.65a15.47,15.47,0,0,0,1.9-1.86,11.36,11.36,0,0,0,.81-1.07,7.18,7.18,0,0,0,.66-1.21,5.37,5.37,0,0,0,.42-2.79,5.19,5.19,0,0,0-1.14-2.59,8.75,8.75,0,0,0-2.06-1.79,21.93,21.93,0,0,0-2.3-1.28c-.78-.39-1.59-.73-2.41-1l-.62-.22-.62-.21c-.21-.07-.43-.14-.67-.19a4.05,4.05,0,0,0-.72-.1"/><path class="cls-9" d="M146.76,82.48a16.57,16.57,0,0,0,2-2,12.43,12.43,0,0,0,.89-1.18c.13-.2.28-.43.41-.67a8,8,0,0,0,.35-.73,6.45,6.45,0,0,0,.5-3.36,6.28,6.28,0,0,0-1.38-3.13,9.81,9.81,0,0,0-2.31-2,23,23,0,0,0-2.42-1.34c-.81-.4-1.65-.76-2.5-1.08l-.64-.23-.63-.22c-.23-.08-.49-.15-.77-.22a5.14,5.14,0,0,0-.9-.13"/><path class="cls-9" d="M147.45,83.32a17.65,17.65,0,0,0,2.17-2.12,13.49,13.49,0,0,0,1-1.28c.15-.22.31-.48.45-.74a9,9,0,0,0,.4-.83,8,8,0,0,0,.54-1.86,7.05,7.05,0,0,0-.54-4.06,7.76,7.76,0,0,0-1-1.67,10.88,10.88,0,0,0-2.56-2.25,24,24,0,0,0-2.53-1.41c-.85-.42-1.71-.79-2.6-1.13l-.33-.12-.33-.12-.65-.23c-.25-.08-.54-.17-.86-.25a6.25,6.25,0,0,0-1.07-.15"/><path class="cls-11" d="M148.15,84.15a18.72,18.72,0,0,0,2.3-2.25,14.59,14.59,0,0,0,1-1.38c.16-.23.34-.53.5-.82a10.07,10.07,0,0,0,.45-.93,9.09,9.09,0,0,0,.61-2.11,8.13,8.13,0,0,0-.62-4.68,8.84,8.84,0,0,0-1.18-1.91,12,12,0,0,0-2.81-2.48,25,25,0,0,0-2.65-1.47c-.88-.43-1.78-.82-2.7-1.17l-.16-.06"/><line class="cls-11" x1="101.9" y1="55.34" x2="101.9" y2="63.66"/><line class="cls-9" x1="100.82" y1="55.34" x2="100.81" y2="63.66"/><line class="cls-9" x1="99.73" y1="55.34" x2="99.73" y2="63.66"/><line class="cls-9" x1="98.64" y1="55.34" x2="98.64" y2="63.66"/><line class="cls-9" x1="97.56" y1="55.34" x2="97.56" y2="63.66"/><line class="cls-9" x1="96.47" y1="55.34" x2="96.47" y2="63.66"/><line class="cls-9" x1="95.39" y1="55.34" x2="95.39" y2="63.66"/><line class="cls-11" x1="94.3" y1="55.34" x2="94.3" y2="63.66"/><line class="cls-11" x1="139.37" y1="64.94" x2="155.45" y2="65"/><line class="cls-9" x1="139.34" y1="66.02" x2="155.45" y2="66.08"/><path class="cls-9" d="M139.34,66"/><line class="cls-9" x1="139.28" y1="67.11" x2="155.45" y2="67.17"/><path class="cls-9" d="M139.28,67.11"/><line class="cls-9" x1="139.28" y1="68.2" x2="155.45" y2="68.26"/><path class="cls-9" d="M139.28,68.2"/><line class="cls-9" x1="139.16" y1="69.28" x2="155.44" y2="69.34"/><path class="cls-9" d="M139.16,69.28"/><line class="cls-9" x1="139.1" y1="70.37" x2="155.44" y2="70.43"/><path class="cls-9" d="M139.1,70.37"/><line class="cls-9" x1="138.98" y1="71.45" x2="155.44" y2="71.51"/><path class="cls-9" d="M139,71.45"/><line class="cls-11" x1="139.07" y1="72.54" x2="155.44" y2="72.6"/><path class="cls-9" d="M139.07,72.54"/><path class="cls-11" d="M155.45,65h18.32"/><path class="cls-9" d="M155.45,66.08h18l.39,0"/><path class="cls-9" d="M155.45,67.17h18.06a4.13,4.13,0,0,0,.46,0"/><path class="cls-9" d="M155.45,68.26h18.09a4.32,4.32,0,0,0,.54,0"/><path class="cls-9" d="M155.44,69.34h18.42a1.82,1.82,0,0,0,.32,0"/><path class="cls-9" d="M155.44,70.43h18.65a1,1,0,0,0,.2,0"/><path class="cls-9" d="M155.44,71.51h18.71a1.29,1.29,0,0,0,.24,0"/><path class="cls-11" d="M155.44,72.6h18.78a1.68,1.68,0,0,0,.28,0"/><line class="cls-11" x1="189.47" y1="46.1" x2="193.74" y2="67.45"/><line class="cls-9" x1="188.41" y1="46.31" x2="192.67" y2="67.66"/><line class="cls-9" x1="187.35" y1="46.52" x2="191.61" y2="67.87"/><line class="cls-9" x1="186.28" y1="46.73" x2="190.54" y2="68.08"/><line class="cls-9" x1="185.22" y1="46.95" x2="189.48" y2="68.3"/><line class="cls-9" x1="184.15" y1="47.16" x2="188.41" y2="68.51"/><line class="cls-9" x1="183.09" y1="47.37" x2="187.35" y2="68.72"/><line class="cls-11" x1="182.02" y1="47.58" x2="186.29" y2="68.93"/><line class="cls-11" x1="193.74" y1="67.45" x2="198" y2="88.8"/><line class="cls-9" x1="192.67" y1="67.66" x2="196.94" y2="89.01"/><line class="cls-9" x1="191.61" y1="67.87" x2="195.87" y2="89.22"/><line class="cls-9" x1="190.54" y1="68.08" x2="194.81" y2="89.43"/><line class="cls-9" x1="189.48" y1="68.3" x2="193.74" y2="89.65"/><line class="cls-9" x1="188.41" y1="68.51" x2="192.68" y2="89.86"/><line class="cls-9" x1="187.35" y1="68.72" x2="191.61" y2="90.07"/><line class="cls-11" x1="186.29" y1="68.93" x2="190.55" y2="90.28"/><path class="cls-12" d="M31.87,72.37a15.52,15.52,0,0,0-3.29,4.93,22.38,22.38,0,0,0-1.47,5.2,32,32,0,0,0-.39,5.08c0,.84,0,1.66.08,2.49,0,.36.05.7.09,1.07h7.7"/><path class="cls-9" d="M28,91.23c0-.41-.08-.81-.1-1.21q-.08-1.21-.08-2.43a30.84,30.84,0,0,1,.37-4.91,21.25,21.25,0,0,1,1.39-4.95,14.35,14.35,0,0,1,3-4.58"/><path class="cls-9" d="M29.08,91.12q-.06-.59-.1-1.18-.08-1.17-.08-2.35a29.76,29.76,0,0,1,.36-4.73,20.17,20.17,0,0,1,1.31-4.69,13.27,13.27,0,0,1,2.81-4.24"/><path class="cls-9" d="M30.17,91.17c0-.43-.08-.86-.11-1.3Q30,88.73,30,87.59A28.69,28.69,0,0,1,30.32,83a19.09,19.09,0,0,1,1.24-4.44,12.19,12.19,0,0,1,2.57-3.9"/><path class="cls-9" d="M31.26,91.17c-.05-.45-.09-.92-.12-1.37q-.07-1.1-.08-2.21a27.61,27.61,0,0,1,.33-4.39A18,18,0,0,1,32.56,79a11.1,11.1,0,0,1,2.34-3.55"/><path class="cls-9" d="M32.36,91.16l0-.38c0-.35-.07-.71-.09-1.06,0-.71-.07-1.42-.07-2.13a26.53,26.53,0,0,1,.32-4.21,17,17,0,0,1,1.09-3.93,10,10,0,0,1,2.11-3.21"/><path class="cls-9" d="M33.45,91.17l-.06-.5c0-.34-.06-.68-.09-1,0-.69-.07-1.37-.07-2.06a25.45,25.45,0,0,1,.3-4,15.87,15.87,0,0,1,1-3.68A8.94,8.94,0,0,1,36.44,77"/><path class="cls-11" d="M34.55,91.17l0-.13-.05-.48c0-.32-.06-.65-.08-1,0-.66-.07-1.33-.07-2a24.37,24.37,0,0,1,.29-3.87,14.79,14.79,0,0,1,.95-3.43,7.86,7.86,0,0,1,1.64-2.52"/><path class="cls-11" d="M31.84,72.38a13.39,13.39,0,0,1,2.46-1.93,13.83,13.83,0,0,1,2.8-1.3,17.2,17.2,0,0,1,5.67-.84,18.46,18.46,0,0,1,5.57.85,14.16,14.16,0,0,1,2.79,1.25,13.1,13.1,0,0,1,2.51,1.91"/><path class="cls-9" d="M32.61,73.15a12.31,12.31,0,0,1,2.26-1.78,12.74,12.74,0,0,1,2.58-1.2,16.12,16.12,0,0,1,5.31-.79,17.38,17.38,0,0,1,5.24.8,13.09,13.09,0,0,1,2.58,1.16,12,12,0,0,1,2.3,1.75"/><path class="cls-9" d="M33.37,73.92a11.37,11.37,0,0,1,4.42-2.72,15,15,0,0,1,5-.73,16.3,16.3,0,0,1,4.92.74,11.37,11.37,0,0,1,4.46,2.66"/><path class="cls-9" d="M34.14,74.69a10.28,10.28,0,0,1,4-2.46,14,14,0,0,1,4.6-.67,15.22,15.22,0,0,1,4.59.69,10.28,10.28,0,0,1,4,2.4"/><path class="cls-9" d="M34.9,75.46a9.18,9.18,0,0,1,3.58-2.2,12.87,12.87,0,0,1,4.24-.62,14.15,14.15,0,0,1,4.26.63,9.19,9.19,0,0,1,3.62,2.15"/><path class="cls-9" d="M35.67,76.23a8.1,8.1,0,0,1,3.17-1.94,11.8,11.8,0,0,1,3.89-.56,13.07,13.07,0,0,1,3.93.58,8.1,8.1,0,0,1,3.19,1.89"/><path class="cls-9" d="M36.44,77a7,7,0,0,1,2.75-1.68,10.72,10.72,0,0,1,3.53-.5,12,12,0,0,1,3.6.53A7,7,0,0,1,49.09,77"/><path class="cls-11" d="M37.2,77.77a5.91,5.91,0,0,1,2.33-1.42,9.65,9.65,0,0,1,3.17-.44,10.93,10.93,0,0,1,3.28.47,5.92,5.92,0,0,1,2.35,1.38"/><path class="cls-12" d="M53.64,72.32a13.52,13.52,0,0,1,2,2.42,15.39,15.39,0,0,1,1.34,2.66,20.45,20.45,0,0,1,1.25,5.36,29.8,29.8,0,0,1,.06,5.14c-.06.84-.15,1.67-.27,2.5q-.06.39-.12.78"/><path class="cls-9" d="M52.88,73.09a13.26,13.26,0,0,1,3,4.69,19.38,19.38,0,0,1,1.18,5.07,28.73,28.73,0,0,1,.06,5q-.09,1.22-.26,2.42-.07.47-.15.94"/><path class="cls-9" d="M52.12,73.87a12.17,12.17,0,0,1,2.8,4.31A18.3,18.3,0,0,1,56,83a27.65,27.65,0,0,1,.06,4.77q-.08,1.18-.25,2.35-.08.55-.18,1.09"/><path class="cls-9" d="M51.36,74.65a11.09,11.09,0,0,1,2.54,3.93,17.23,17.23,0,0,1,1,4.5A26.58,26.58,0,0,1,55,87.66q-.08,1.14-.24,2.27c-.06.42-.13.83-.2,1.24"/><path class="cls-9" d="M50.61,75.42A10,10,0,0,1,52.9,79a16.16,16.16,0,0,1,1,4.22,25.49,25.49,0,0,1,0,4.39q-.08,1.1-.23,2.19c-.07.47-.14.94-.23,1.4"/><path class="cls-9" d="M49.85,76.2a8.92,8.92,0,0,1,2,3.17,15.08,15.08,0,0,1,.91,3.93,24.42,24.42,0,0,1,0,4.2c0,.71-.13,1.41-.23,2.12-.05.35-.11.7-.17,1l-.1.52"/><path class="cls-9" d="M49.09,77a7.84,7.84,0,0,1,1.79,2.79,14,14,0,0,1,.84,3.65,23.34,23.34,0,0,1,0,4c0,.68-.12,1.36-.22,2,0,.34-.1.68-.16,1l-.09.49-.05.24"/><path class="cls-13" d="M48.33,77.76a6.75,6.75,0,0,1,1.53,2.41,12.93,12.93,0,0,1,.77,3.37,22.26,22.26,0,0,1,0,3.83c0,.65-.12,1.31-.21,2,0,.33-.1.65-.16,1l-.09.47,0,.22,0,.17"/><path class="cls-11" d="M256.66,65.47a24.27,24.27,0,0,1,.1,6.59,17.19,17.19,0,0,1-2.26,6.73,13.39,13.39,0,0,1-2.47,3,14.18,14.18,0,0,1-3.13,2.14,15.5,15.5,0,0,1-3.47,1.25l-.89.18-.86.13q-.86.11-1.72.14"/><path class="cls-9" d="M255.59,65.63a23.19,23.19,0,0,1,.1,6.29,16.11,16.11,0,0,1-2.11,6.31A12.31,12.31,0,0,1,251.3,81a13.1,13.1,0,0,1-2.89,2,14.4,14.4,0,0,1-3.22,1.16l-.83.17-.81.12q-.81.1-1.63.14"/><path class="cls-9" d="M254.51,65.78a22.11,22.11,0,0,1,.09,6,15,15,0,0,1-2,5.89,11.22,11.22,0,0,1-2.07,2.5A12,12,0,0,1,247.92,82a13.32,13.32,0,0,1-3,1.07l-.77.16-.76.11q-.76.1-1.53.13"/><path class="cls-9" d="M253.44,65.94a21,21,0,0,1,.09,5.7,14,14,0,0,1-1.82,5.46A10.48,10.48,0,0,1,247.43,81a12.24,12.24,0,0,1-2.74,1,15.53,15.53,0,0,1-2.86.37"/><path class="cls-9" d="M252.37,66.1a20,20,0,0,1,.09,5.4,12.88,12.88,0,0,1-1.67,5,9.39,9.39,0,0,1-3.84,3.5,11.15,11.15,0,0,1-2.49.89,14.47,14.47,0,0,1-2.66.34"/><path class="cls-9" d="M251.29,66.26a18.88,18.88,0,0,1,.09,5.11A11.81,11.81,0,0,1,249.86,76a8.3,8.3,0,0,1-3.4,3.09,10.08,10.08,0,0,1-2.25.81l-.59.12-.62.09c-.41.05-.83.09-1.24.1"/><path class="cls-9" d="M250.22,66.42a17.8,17.8,0,0,1,.08,4.81,10.73,10.73,0,0,1-1.37,4.19,7.21,7.21,0,0,1-3,2.69,9,9,0,0,1-2,.72l-.53.11-.57.09c-.38,0-.76.08-1.15.1"/><path class="cls-11" d="M249.14,66.57a16.73,16.73,0,0,1,.08,4.51A9.67,9.67,0,0,1,248,74.85a6.13,6.13,0,0,1-2.52,2.28,7.9,7.9,0,0,1-1.76.63l-.47.1-.52.08c-.35,0-.7.07-1,.09"/><path class="cls-11" d="M242,85.62a18.15,18.15,0,0,1-3.51-.2,15.4,15.4,0,0,1-3.55-1,12.94,12.94,0,0,1-3.36-2,12.18,12.18,0,0,1-2.59-3.08,14.17,14.17,0,0,1-1.47-3.5,16.89,16.89,0,0,1-.57-3.54,21.26,21.26,0,0,1,.1-3.39,15.61,15.61,0,0,1,.33-2.5"/><path class="cls-9" d="M241.92,84.53a17.07,17.07,0,0,1-3.3-.19,14.32,14.32,0,0,1-3.3-.92,11.86,11.86,0,0,1-3.08-1.86,11.09,11.09,0,0,1-2.36-2.8,13.08,13.08,0,0,1-1.36-3.23,15.82,15.82,0,0,1-.53-3.31,20.19,20.19,0,0,1,.1-3.22,27.64,27.64,0,0,1,.5-3"/><path class="cls-9" d="M241.88,83.45a14.53,14.53,0,0,1-6.14-1,10.78,10.78,0,0,1-2.8-1.69,10,10,0,0,1-2.13-2.53,12,12,0,0,1-1.25-3,14.73,14.73,0,0,1-.49-3.09,22.42,22.42,0,0,1,.58-6"/><path class="cls-9" d="M241.84,82.36a13.46,13.46,0,0,1-5.68-.94,9.7,9.7,0,0,1-2.52-1.52,8.92,8.92,0,0,1-1.9-2.26,12.18,12.18,0,0,1-1.59-5.55,21.35,21.35,0,0,1,.55-5.67"/><path class="cls-9" d="M241.8,81.28a12.38,12.38,0,0,1-5.22-.86,8.61,8.61,0,0,1-2.23-1.35,7.83,7.83,0,0,1-1.67-2A11.11,11.11,0,0,1,231.24,72a20.3,20.3,0,0,1,.53-5.38"/><path class="cls-9" d="M241.76,80.19a11.31,11.31,0,0,1-4.76-.78,7.54,7.54,0,0,1-2-1.17,6.74,6.74,0,0,1-1.44-1.71A10,10,0,0,1,232.32,72a15.9,15.9,0,0,1,.08-2.52,23.31,23.31,0,0,1,.43-2.57"/><path class="cls-9" d="M241.71,79.11a10.23,10.23,0,0,1-4.3-.69,6.45,6.45,0,0,1-1.67-1A5.66,5.66,0,0,1,234.54,76a9,9,0,0,1-1.13-4.06,14.86,14.86,0,0,1,.08-2.34,22.25,22.25,0,0,1,.41-2.45"/><path class="cls-11" d="M241.67,78a9.17,9.17,0,0,1-3.84-.61,5.82,5.82,0,0,1-.76-.38,4.81,4.81,0,0,1-.63-.45,4.57,4.57,0,0,1-1-1.17,7.9,7.9,0,0,1-1-3.57,13.77,13.77,0,0,1,.07-2.17,21.19,21.19,0,0,1,.39-2.33"/><path class="cls-11" d="M192.48,61.68l.28-.11.32-.13.65-.28,1.31-.6q1.31-.62,2.59-1.31a53.15,53.15,0,0,0,4.93-3,36.61,36.61,0,0,0,4.37-3.48,21.18,21.18,0,0,0,3.37-4"/><path class="cls-9" d="M192.87,62.69l.3-.12.33-.14.67-.29,1.34-.62q1.33-.63,2.64-1.34a54.2,54.2,0,0,0,5-3,37.7,37.7,0,0,0,4.5-3.59,22.26,22.26,0,0,0,3.55-4.19"/><path class="cls-9" d="M193.26,63.7l.67-.27.68-.3,1.36-.63q1.36-.65,2.68-1.36A55.31,55.31,0,0,0,203.79,58a38.77,38.77,0,0,0,4.63-3.69,23.32,23.32,0,0,0,3.72-4.4"/><path class="cls-9" d="M193.26,64.93c1-.39,2.3-1,3.19-1.45s1.83-.9,2.73-1.38a56.37,56.37,0,0,0,5.23-3.17,39.83,39.83,0,0,0,4.76-3.8,24.4,24.4,0,0,0,3.89-4.6"/><path class="cls-9" d="M193.56,65.9c1-.39,2.41-1,3.35-1.43s1.86-.92,2.78-1.41A57.46,57.46,0,0,0,205,59.83a40.92,40.92,0,0,0,4.89-3.9A25.47,25.47,0,0,0,214,51.11"/><path class="cls-9" d="M193.74,67c.28-.11,1.21-.45,1.46-.55l.73-.32,1.44-.66q1.43-.68,2.83-1.43a58.57,58.57,0,0,0,5.43-3.29,42,42,0,0,0,5-4,26.55,26.55,0,0,0,4.23-5"/><path class="cls-9" d="M194,68.13l1.26-.54.38-.16.75-.33,1.47-.68q1.46-.69,2.87-1.45a59.63,59.63,0,0,0,5.53-3.36,43.1,43.1,0,0,0,5.15-4.11,27.62,27.62,0,0,0,4.41-5.23"/><path class="cls-11" d="M194.22,69.21l1.44-.62.39-.16.76-.33,1.5-.69q1.48-.7,2.92-1.48a60.71,60.71,0,0,0,5.63-3.42,44.17,44.17,0,0,0,5.28-4.22,28.7,28.7,0,0,0,4.58-5.44"/><path class="cls-11" d="M186.37,70.65a7.58,7.58,0,0,1,.46,2.5,8.39,8.39,0,0,1-.29,2.3,11,11,0,0,1-1.69,3.49,15.82,15.82,0,0,1-2.23,2.49,20.51,20.51,0,0,1-2.47,1.92A26,26,0,0,1,169,87.41"/><path class="cls-9" d="M185.35,71a6.5,6.5,0,0,1,.39,2.14,7.31,7.31,0,0,1-.26,2A9.9,9.9,0,0,1,184,78.31a14.75,14.75,0,0,1-2.08,2.32,19.43,19.43,0,0,1-2.34,1.81,24.89,24.89,0,0,1-10.69,3.89"/><path class="cls-9" d="M184.33,71.4a5.4,5.4,0,0,1,.33,1.78,6.23,6.23,0,0,1-.22,1.7,8.83,8.83,0,0,1-1.37,2.79,13.66,13.66,0,0,1-1.93,2.15,18.33,18.33,0,0,1-2.2,1.71,23.81,23.81,0,0,1-10.21,3.71"/><path class="cls-9" d="M183.31,71.77a4.31,4.31,0,0,1,.26,1.43,5.14,5.14,0,0,1-.18,1.41,7.76,7.76,0,0,1-1.2,2.45,14.75,14.75,0,0,1-3.85,3.59,22.73,22.73,0,0,1-9.73,3.54"/><path class="cls-9" d="M182.29,72.14a3.57,3.57,0,0,1,0,2.18,6.69,6.69,0,0,1-1,2.1,13.69,13.69,0,0,1-3.57,3.31,21.64,21.64,0,0,1-9.25,3.36"/><path class="cls-9" d="M181.27,72.52a2.48,2.48,0,0,1,0,1.52,5.63,5.63,0,0,1-.87,1.75,12.64,12.64,0,0,1-3.28,3A20.55,20.55,0,0,1,168.37,82"/><path class="cls-9" d="M180.26,72.89a1.06,1.06,0,0,1,.06.35,1.9,1.9,0,0,1-.07.51,4.57,4.57,0,0,1-.71,1.4,11.59,11.59,0,0,1-3,2.76,19.47,19.47,0,0,1-8.28,3"/><path class="cls-11" d="M179.24,73.26s0,0,0,0a.85.85,0,0,1,0,.22,3.53,3.53,0,0,1-.55,1.05,8.3,8.3,0,0,1-1.16,1.29,13,13,0,0,1-1.55,1.2,18.36,18.36,0,0,1-7.8,2.84"/><path class="cls-11" d="M169,87.41a20.57,20.57,0,0,1-3.12.12,15.85,15.85,0,0,1-3.31-.47A11,11,0,0,1,159,85.48a8.39,8.39,0,0,1-1.73-1.59,7.52,7.52,0,0,1-1.7-4.64,8.14,8.14,0,0,1,.07-1.23,8.81,8.81,0,0,1,.22-1.1,11,11,0,0,1,1.69-3.49,15.82,15.82,0,0,1,2.23-2.49A20.51,20.51,0,0,1,162.27,69"/><path class="cls-9" d="M168.85,86.33a19.45,19.45,0,0,1-3,.11,14.78,14.78,0,0,1-3.08-.44,9.93,9.93,0,0,1-3.19-1.42,7.31,7.31,0,0,1-1.5-1.38,6.44,6.44,0,0,1-1.46-4,7.09,7.09,0,0,1,.06-1.06,7.73,7.73,0,0,1,.19-1,9.91,9.91,0,0,1,1.53-3.14,14.75,14.75,0,0,1,2.08-2.32,19.41,19.41,0,0,1,2.34-1.81"/><path class="cls-9" d="M168.73,85.25a18.38,18.38,0,0,1-2.79.11,13.71,13.71,0,0,1-2.86-.41,8.86,8.86,0,0,1-2.84-1.26A6.24,6.24,0,0,1,159,82.53a5.35,5.35,0,0,1-1.22-3.33,6.21,6.21,0,0,1,.22-1.72,8.83,8.83,0,0,1,1.37-2.79,13.67,13.67,0,0,1,1.93-2.15,18.36,18.36,0,0,1,2.2-1.71"/><path class="cls-9" d="M168.61,84.17a14.8,14.8,0,0,1-5.25-.27,7.79,7.79,0,0,1-2.49-1.1,4.67,4.67,0,0,1-1.77-2.21,4.31,4.31,0,0,1-.26-1.42,5.14,5.14,0,0,1,.18-1.41,7.76,7.76,0,0,1,1.2-2.45,14.76,14.76,0,0,1,3.85-3.59"/><path class="cls-9" d="M168.49,83.09a13.74,13.74,0,0,1-4.86-.24,6.72,6.72,0,0,1-2.15-.94,3.57,3.57,0,0,1-1.37-1.69,3.25,3.25,0,0,1-.2-1.07,4,4,0,0,1,.15-1.1,6.69,6.69,0,0,1,1-2.1,13.7,13.7,0,0,1,3.57-3.31"/><path class="cls-9" d="M168.37,82a12.68,12.68,0,0,1-4.47-.22,5.66,5.66,0,0,1-1.8-.78,3,3,0,0,1-.6-.54,2.16,2.16,0,0,1-.5-1.36,2.94,2.94,0,0,1,.11-.8,5.62,5.62,0,0,1,.87-1.75,12.64,12.64,0,0,1,3.28-3"/><path class="cls-9" d="M168.25,80.94a11.62,11.62,0,0,1-4.08-.19,4.6,4.6,0,0,1-1.45-.62,1.86,1.86,0,0,1-.37-.33,1.12,1.12,0,0,1-.26-.7,1.42,1.42,0,0,1,0-.21,2.33,2.33,0,0,1,.06-.28,4.57,4.57,0,0,1,.71-1.4,11.59,11.59,0,0,1,3-2.76"/><path class="cls-11" d="M168.13,79.86a13,13,0,0,1-2,.08,8.34,8.34,0,0,1-1.72-.24,3.56,3.56,0,0,1-1.1-.46.91.91,0,0,1-.15-.12v0a.24.24,0,0,1,0,0,1.23,1.23,0,0,1,0-.14,3.53,3.53,0,0,1,.55-1.05,8.3,8.3,0,0,1,1.16-1.29,12.94,12.94,0,0,1,1.55-1.2"/><path class="cls-11" d="M162.27,69A26,26,0,0,1,173.44,65a20.57,20.57,0,0,1,3.12-.12,15.87,15.87,0,0,1,3.31.47,11,11,0,0,1,3.54,1.58,8.42,8.42,0,0,1,1.71,1.56,7.59,7.59,0,0,1,1.26,2.2"/><path class="cls-9" d="M162.87,69.92A24.88,24.88,0,0,1,173.56,66a19.47,19.47,0,0,1,3-.11,14.78,14.78,0,0,1,3.08.44,9.93,9.93,0,0,1,3.19,1.42,7.33,7.33,0,0,1,1.49,1.36A6.5,6.5,0,0,1,185.35,71"/><path class="cls-9" d="M163.47,70.82a23.8,23.8,0,0,1,10.21-3.71,18.38,18.38,0,0,1,2.79-.11,13.7,13.7,0,0,1,2.86.41,8.86,8.86,0,0,1,2.84,1.26,6.25,6.25,0,0,1,1.27,1.16,5.42,5.42,0,0,1,.9,1.57"/><path class="cls-9" d="M164.07,71.73a22.72,22.72,0,0,1,9.73-3.54,14.79,14.79,0,0,1,5.25.27,7.79,7.79,0,0,1,2.49,1.1,5.16,5.16,0,0,1,1,1,4.33,4.33,0,0,1,.72,1.26"/><path class="cls-9" d="M164.67,72.63a21.64,21.64,0,0,1,9.25-3.36,13.74,13.74,0,0,1,4.86.24,6.73,6.73,0,0,1,2.15.94,3.58,3.58,0,0,1,1.37,1.69"/><path class="cls-9" d="M165.27,73.54A20.55,20.55,0,0,1,174,70.35a12.68,12.68,0,0,1,4.47.22,5.66,5.66,0,0,1,1.8.78,2.49,2.49,0,0,1,1,1.18"/><path class="cls-9" d="M165.87,74.44a19.46,19.46,0,0,1,8.28-3,11.62,11.62,0,0,1,4.08.19,4.6,4.6,0,0,1,1.45.62,1.91,1.91,0,0,1,.39.35,1.06,1.06,0,0,1,.18.31"/><path class="cls-11" d="M166.47,75.34a18.35,18.35,0,0,1,7.8-2.84,13,13,0,0,1,2-.08,8.33,8.33,0,0,1,1.72.24,3.56,3.56,0,0,1,1.1.46.86.86,0,0,1,.17.15s0,0,0,0"/><path class="cls-11" d="M192.76,61.57a28,28,0,0,1,6.52,1.32,30.49,30.49,0,0,1,4.7,2.38A33.94,33.94,0,0,1,211.82,72"/><path class="cls-9" d="M192.87,62.69a25,25,0,0,1,6,1.2,29.4,29.4,0,0,1,4.53,2.3A32.86,32.86,0,0,1,211,72.74"/><path class="cls-9" d="M193.08,63.73a21.49,21.49,0,0,1,5.41,1.18,28.33,28.33,0,0,1,4.36,2.21,31.77,31.77,0,0,1,7.33,6.33"/><path class="cls-9" d="M193.26,64.93a14.24,14.24,0,0,1,4.83,1A27.26,27.26,0,0,1,202.28,68a30.7,30.7,0,0,1,7.08,6.11"/><path class="cls-9" d="M193.38,65.84a15.72,15.72,0,0,1,4.31,1.09,26.18,26.18,0,0,1,4,2,29.6,29.6,0,0,1,6.83,5.9"/><path class="cls-9" d="M193.74,67a11.6,11.6,0,0,1,3.55,1,25.12,25.12,0,0,1,3.85,2,28.52,28.52,0,0,1,6.58,5.69"/><path class="cls-9" d="M194,68.13a8.54,8.54,0,0,1,2.9.81,24,24,0,0,1,3.69,1.88,27.44,27.44,0,0,1,6.33,5.47"/><path class="cls-11" d="M194,69.21a13.79,13.79,0,0,1,2.5.75A23,23,0,0,1,200,71.74,26.36,26.36,0,0,1,206.08,77"/><path class="cls-11" d="M211.82,72l.41.48.39.47.68.79c.45.52.92,1,1.39,1.48a18.85,18.85,0,0,0,3,2.42,13.35,13.35,0,0,0,1.57.87,9.83,9.83,0,0,0,1.55.58,5.28,5.28,0,0,0,1.31.21,2.06,2.06,0,0,0,.8-.12"/><path class="cls-9" d="M211,72.74l.4.47.38.46.7.82c.47.54,1,1,1.45,1.54a19.92,19.92,0,0,0,3.14,2.56,14.43,14.43,0,0,0,1.69.95,10.89,10.89,0,0,0,1.72.65,6.34,6.34,0,0,0,1.59.25,3.13,3.13,0,0,0,1.21-.2"/><path class="cls-9" d="M210.18,73.45l.39.46.38.45.72.84c.48.55,1,1.09,1.5,1.59a21,21,0,0,0,3.31,2.7,13.74,13.74,0,0,0,3.72,1.73,5.55,5.55,0,0,0,3.49,0"/><path class="cls-9" d="M209.36,74.16l.75.89.74.87c.5.57,1,1.12,1.55,1.65a22.08,22.08,0,0,0,3.49,2.84,14.81,14.81,0,0,0,4,1.86,8.48,8.48,0,0,0,2.14.32,5.3,5.3,0,0,0,2-.36"/><path class="cls-9" d="M208.54,74.87l.74.87.76.89c.51.59,1,1.16,1.61,1.71a23.16,23.16,0,0,0,3.66,3,15.88,15.88,0,0,0,4.32,2,9.57,9.57,0,0,0,2.41.36,6.38,6.38,0,0,0,2.47-.43"/><path class="cls-9" d="M207.72,75.58l.36.42.36.43.78.91c.53.6,1.08,1.19,1.66,1.76a24.25,24.25,0,0,0,3.83,3.11,16.94,16.94,0,0,0,4.62,2.13,10.64,10.64,0,0,0,2.69.4,7.46,7.46,0,0,0,2.88-.51"/><path class="cls-9" d="M206.9,76.29l.35.41.36.43.8.94c.54.62,1.11,1.23,1.71,1.82a25.32,25.32,0,0,0,4,3.25A18,18,0,0,0,219,85.41a11.73,11.73,0,0,0,3,.44,8.55,8.55,0,0,0,3.3-.59"/><path class="cls-11" d="M206.08,77l.34.39.35.42.82,1c.56.64,1.15,1.27,1.77,1.88a26.42,26.42,0,0,0,4.18,3.39A21,21,0,0,0,216,85.42a17.39,17.39,0,0,0,2.76,1,12.8,12.8,0,0,0,3.24.48,9.64,9.64,0,0,0,3.72-.67"/><path class="cls-11" d="M222.88,79.21l.13-.06.22-.13a3.61,3.61,0,0,0,.44-.34,5.46,5.46,0,0,0,.87-1A13,13,0,0,0,226,74.41c.19-.63.37-1.28.53-2,.08-.34.16-.69.23-1s.14-.69.2-1a36.68,36.68,0,0,0,.52-4.14"/><path class="cls-9" d="M223.28,80.22l.24-.11.3-.18a4.69,4.69,0,0,0,.57-.45,6.53,6.53,0,0,0,1-1.24A14,14,0,0,0,227,74.73c.2-.66.38-1.34.55-2,.08-.35.16-.71.24-1.06s.14-.71.21-1.06a37.8,37.8,0,0,0,.53-4.27"/><path class="cls-9" d="M223.69,81.23l.35-.17.38-.22a5.8,5.8,0,0,0,.71-.55,7.62,7.62,0,0,0,1.22-1.45A15,15,0,0,0,228,75.06c.21-.69.4-1.39.57-2.11.08-.36.16-.72.24-1.09s.15-.72.21-1.09a38.87,38.87,0,0,0,.55-4.39"/><path class="cls-9" d="M224.09,82.24a4.55,4.55,0,0,0,.47-.22l.45-.27a6.86,6.86,0,0,0,.84-.66,8.7,8.7,0,0,0,1.39-1.66,16.09,16.09,0,0,0,1.82-4.06A39.29,39.29,0,0,0,230.13,71a40,40,0,0,0,.56-4.51"/><path class="cls-9" d="M224.5,83.25A8.33,8.33,0,0,0,228.15,80a17.15,17.15,0,0,0,2-4.33,40.33,40.33,0,0,0,1.09-4.55,41,41,0,0,0,.58-4.64"/><path class="cls-9" d="M224.9,84.25a6.67,6.67,0,0,0,.69-.32c.21-.12.41-.24.61-.37a9,9,0,0,0,1.11-.86,10.86,10.86,0,0,0,1.75-2.07,18.21,18.21,0,0,0,2.08-4.6c.24-.78.45-1.56.63-2.34q.14-.58.26-1.16t.23-1.18a42.13,42.13,0,0,0,.59-4.76"/><path class="cls-9" d="M225.3,85.26a7.78,7.78,0,0,0,.8-.38c.24-.13.47-.27.69-.41a10.13,10.13,0,0,0,1.24-1A11.94,11.94,0,0,0,230,81.23a19.28,19.28,0,0,0,2.21-4.88c.25-.81.46-1.62.65-2.41.09-.4.18-.79.26-1.19s.16-.8.24-1.2a43.24,43.24,0,0,0,.61-4.88"/><path class="cls-11" d="M225.71,86.27a8.84,8.84,0,0,0,.92-.43c.27-.15.52-.3.77-.46a11.19,11.19,0,0,0,1.38-1.07,13,13,0,0,0,2.1-2.48,20.34,20.34,0,0,0,2.34-5.15c.26-.84.48-1.67.67-2.49.1-.41.18-.81.27-1.21s.17-.82.24-1.23a44.27,44.27,0,0,0,.62-5"/><line class="cls-13" x1="139.44" y1="65" x2="139.44" y2="72.41"/><line class="cls-13" x1="182.04" y1="47.56" x2="189.37" y2="45.93"/><line class="cls-13" x1="190.91" y1="89.72" x2="197.6" y2="88.45"/><line class="cls-13" x1="227.27" y1="66.02" x2="235.05" y2="66.74"/><line class="cls-13" x1="249.17" y1="66.2" x2="256.77" y2="65.66"/><line class="cls-13" x1="278.48" y1="80.49" x2="279.02" y2="88.09"/><line class="cls-13" x1="210.27" y1="48.83" x2="216.6" y2="52.99"/></g></g></svg>