<?xml version="1.0" encoding="utf-8"?>
<!-- Generator: Adobe Illustrator 20.1.0, SVG Export Plug-In . SVG Version: 6.00 Build 0)  -->
<svg version="1.1" id="Capa_1" xmlns="http://www.w3.org/2000/svg" xmlns:xlink="http://www.w3.org/1999/xlink" x="0px" y="0px"
	 viewBox="0 0 101.397 117.5" enable-background="new 0 0 101.397 117.5" xml:space="preserve">
<g>
	<path fill="#FFFFFF" d="M51.697,114.242c-0.235,0-0.47-0.074-0.672-0.21c-0.222-0.072-0.402-0.188-0.536-0.345
		c-0.057-0.068-0.098-0.135-0.128-0.194c-9.839-8.181-43.163-18.182-43.499-18.281c-0.515-0.153-0.867-0.618-0.874-1.157L5.4,48.19
		c-0.004-0.326,0.125-0.645,0.353-0.876c0.232-0.234,0.541-0.363,0.871-0.363c5.741,0,11.131,0.43,16.037,1.278
		c-0.825-1.926-1.566-3.718-2.254-5.455c-0.471-1.188-0.862-2.441-1.162-3.723c-0.082-0.353-0.149-0.702-0.215-1.05
		c-0.275-1.448-0.416-2.874-0.446-4.263h-0.006c-0.218-9.566,4.705-17.388,6.753-20.217c0.278-0.389,0.502-0.683,0.652-0.874
		l-4.722-9.74l1.34,0.461c1.951,0.66,17.75,5.899,27.602,5.899c0.1,0,0.186-0.011,0.271-0.02c0.112-0.012,0.224-0.024,0.324-0.026
		C60.731,9.03,76.216,3.545,76.87,3.312l1.1-0.393l-0.423,1.047l-3.988,8.954c4.979,6.397,7.309,12.351,7.307,18.686
		c0,0.004,0,0.007,0,0.011c-0.002,3.333-0.613,6.762-1.983,11.121c-0.492,1.568-1.171,3.517-2.021,5.8
		c9.279-2.229,17.36-2.255,17.443-2.255c0.669,0,1.446,0.535,1.446,1.224v47.619l-0.33,0.12
		c-25.881,9.357-40.489,17.189-42.664,18.385c-0.043,0.075-0.094,0.146-0.151,0.209C52.375,114.095,52.043,114.242,51.697,114.242z
		 M94.752,47.519L94.752,47.519L94.752,47.519z"/>
</g>
<g>
	<path fill="#FFFFFF" d="M50.723,66.984l-0.169-0.071c-0.327-7.159-15.213-13.531-22.745-16.355
		C20.253,47.725,7.11,48.775,7.11,48.775l0.101,0.042l-0.413,45.79c0,0,14.802,3.334,22.196,6.798
		c7.395,3.464,23.104,10.951,23.104,10.951L94.25,93.849V47.933C57.25,47.933,50.723,66.984,50.723,66.984z"/>
	<g>
		<path fill="#2292B1" d="M26.581,12.714l-4.328-8.947c-0.015-0.005-0.025-0.008-0.025-0.008l4.342,8.956
			c0,0-10.157,12.004-6.839,26.219C16.429,24.725,26.581,12.714,26.581,12.714z"/>
		<path fill="#2292B1" d="M80.365,31.607c0.002-5.73-1.926-11.67-7.384-18.617l-0.003,0.007
			C78.432,19.938,80.363,25.878,80.365,31.607z"/>
		<path fill="#2292B1" d="M50.807,9.743c9.975-0.194,25.239-5.597,26.231-5.951l0.011-0.009c0,0-16.532,5.986-26.846,5.986
			c0.007,0,0.014,0,0.02,0C50.402,9.769,50.626,9.746,50.807,9.743z"/>
		<path fill="none" d="M50.202,9.769c-10.586,0-27.953-5.991-27.953-5.991l0.004,0.019c0.693,0.237,17.563,5.972,27.928,5.972
			C50.188,9.769,50.195,9.769,50.202,9.769z"/>
		<path fill="#93D3E6" d="M72.981,12.989l4.109-9.226c0,0-0.018,0.007-0.052,0.019l-4.06,9.203
			C72.979,12.986,72.98,12.988,72.981,12.989z"/>
		<g>
			<path fill="#93D3E6" d="M75.68,50.256c1.074-2.809,2.037-5.477,2.725-7.668c1.165-3.707,1.958-7.302,1.96-10.971
				c-0.002-5.729-1.933-11.674-7.387-18.616l0.003-0.01c-0.001-0.001-0.002-0.004-0.003-0.005l4.06-9.204
				c-0.992,0.354-16.256,5.747-26.231,5.94V67.11C55.802,57.617,66.265,52.751,75.68,50.256z"/>
		</g>
		<g>
			<path fill="#2292B1" d="M50.634,67.443c0.057-0.112,0.115-0.223,0.173-0.333V9.723c-0.181,0.004-0.405,0.046-0.584,0.046
				c-0.007,0-0.014,0-0.02,0c-0.007,0-0.014,0-0.021,0c-10.365,0-27.235-5.745-27.928-5.982l4.328,8.937
				c0,0-10.152,12.006-6.849,26.214c0.28,1.197,0.654,2.43,1.139,3.653c0.974,2.456,1.968,4.827,2.952,7.079
				C47.275,54.196,50.634,67.443,50.634,67.443z"/>
		</g>
	</g>
	<circle fill="#FFFFFF" cx="38.013" cy="31.067" r="11.048"/>
	<circle fill="#FFFFFF" cx="63.052" cy="31.067" r="11.048"/>
	<circle fill="#1A171B" cx="37.675" cy="38.021" r="3.166"/>
	<circle fill="#1A171B" cx="64.092" cy="38.021" r="3.166"/>
	<path fill="#FCDA6B" d="M50.681,45.892l-4.773-7.237c0,0,5.25-4.342,9.228,0.181L50.681,45.892z"/>
	<path fill="#93D3E6" d="M94.303,46.783c-0.085,0-8.727,0.029-18.372,2.499c-5.683,1.456-10.7,3.462-14.802,5.965
		c-5.167,3.152-9.007,7.103-11.359,11.744c-0.181,0.357-0.052,0.792,0.304,0.973c0.357,0.181,0.784,0.038,0.965-0.318
		c2.227-4.393,5.851-8.146,10.777-11.154c3.975-2.427,8.743-4.378,14.281-5.799c7.865-2.018,15.154-2.382,17.154-2.447v45.288
		c-14,4.971-29.231,11.606-34.134,14.033c-6.264,3.1-8.119,4.71-8.197,4.777c-0.304,0.26-0.309,0.716-0.05,1.02
		c0.143,0.168,0.362,0.254,0.567,0.254c0.166,0,0.493-0.057,0.629-0.173c0.067-0.057,15.184-8.545,43.184-18.669V47.507
		C95.25,47.107,94.703,46.783,94.303,46.783z"/>
	<g>
		<path fill="#2292B1" d="M51.697,113.742c-0.173,0-0.347-0.062-0.485-0.187c-9.18-8.297-43.858-18.718-44.208-18.823
			c-0.303-0.091-0.512-0.368-0.517-0.684L5.9,48.184c-0.002-0.194,0.073-0.38,0.209-0.518c0.136-0.138,0.321-0.215,0.515-0.215
			c8.995,0,16.933,1.023,23.592,3.042c5.36,1.625,9.913,3.895,13.532,6.748c6.233,4.913,7.534,9.818,7.586,10.025
			c0.098,0.387-0.136,0.781-0.524,0.879c-0.387,0.098-0.78-0.136-0.879-0.522l0,0c-0.012-0.047-1.278-4.716-7.185-9.328
			c-3.484-2.72-7.876-4.89-13.055-6.448c-6.32-1.902-13.832-2.892-22.336-2.946l0.572,44.6c2.018,0.616,9.748,3.014,18.249,6.161
			c13.285,4.918,22.035,9.232,26.005,12.82c0.297,0.268,0.32,0.726,0.052,1.022C52.092,113.662,51.895,113.742,51.697,113.742z"/>
	</g>
</g>
</svg>
