<svg xmlns="http://www.w3.org/2000/svg" viewBox="0 0 117.19 159.66"><defs><style>.cls-1{fill:#fff;}.cls-2{fill:#2292b1;}.cls-3,.cls-6,.cls-7{fill:none;}.cls-4{fill:#93d3e6;}.cls-5{fill:#1a171b;}.cls-6{stroke:#1a171b;stroke-linecap:round;stroke-linejoin:round;stroke-width:1.4px;}.cls-7{stroke:#2292b1;stroke-miterlimit:10;stroke-width:0.23px;}.cls-8{fill:#003038;}.cls-9{fill:#fcda6b;}</style></defs><title>mibokyError</title><g id="Capa_2" data-name="Capa 2"><g id="Capa_1-2" data-name="Capa 1"><path class="cls-1" d="M59.94,99.71l-.22-.09c-.42-9.2-19.56-17.4-29.24-21S3.88,76.3,3.88,76.3l.13.05-.53,58.87S22.5,139.51,32,144,61.71,158,61.71,158l54.19-23.79v-59C68.34,75.22,59.94,99.71,59.94,99.71Z"/><path class="cls-2" d="M28.59,29.78,23,18.27h0l5.58,11.51S15.52,45.21,19.79,63.48C15.54,45.22,28.59,29.78,28.59,29.78Z"/><path class="cls-2" d="M97.74,54.07c0-7.37-2.48-15-9.49-23.93h0C95.25,39.06,97.73,46.7,97.74,54.07Z"/><path class="cls-2" d="M59.74,26c12.82-.25,32.45-7.2,33.72-7.65h0S72.22,26,59,26h0C59.21,26,59.5,26,59.74,26Z"/><path class="cls-3" d="M59,26C45.35,26,23,18.29,23,18.29v0c.89.3,22.58,7.68,35.9,7.68Z"/><path class="cls-4" d="M88.24,30.13l5.28-11.86-.07,0L88.24,30.13Z"/><path class="cls-4" d="M91.71,78c1.38-3.61,2.62-7,3.5-9.86a47,47,0,0,0,2.52-14.1c0-7.37-2.48-15-9.5-23.93h0l5.22-11.83c-1.28.46-20.9,7.39-33.72,7.64V99.71C66.16,87.5,79.61,81.25,91.71,78Z"/><path class="cls-2" d="M59.51,100.14l.22-.43V25.93c-.23,0-.52.06-.75.06h0C45.61,26,23.92,18.6,23,18.3l5.56,11.49s-13.05,15.43-8.8,33.7a33.31,33.31,0,0,0,1.46,4.7c1.25,3.16,2.53,6.21,3.79,9.1C55.19,83.11,59.51,100.14,59.51,100.14Z"/><circle class="cls-1" cx="43.29" cy="53.37" r="14.2"/><circle class="cls-1" cx="75.48" cy="53.37" r="14.2"/><circle class="cls-5" cx="42.85" cy="52.97" r="4.07"/><circle class="cls-5" cx="76.81" cy="52.97" r="4.07"/><path class="cls-6" d="M68.48,98.25"/><path class="cls-4" d="M116,73.74A107.46,107.46,0,0,0,92.35,77a70.09,70.09,0,0,0-19,7.67c-6.64,4.05-11.58,9.13-14.6,15.1a.92.92,0,1,0,1.63.84c2.86-5.65,7.52-10.47,13.86-14.34a67.16,67.16,0,0,1,18.36-7.46,108.68,108.68,0,0,1,22.05-3.15v58.22c-18,6.39-37.58,14.92-43.88,18-8.05,4-10.44,6.06-10.54,6.14a.93.93,0,0,0-.06,1.31,1,1,0,0,0,.73.33,1.55,1.55,0,0,0,.81-.22c.09-.07,19.52-11,55.52-24V74.67C117.19,74.15,116.49,73.74,116,73.74Z"/><path class="cls-7" d="M125.09,75.22"/><path class="cls-7" d="M125.09,75.22"/><path class="cls-2" d="M60.88,159.66a.93.93,0,0,1-.62-.24c-11.8-10.67-56.38-24.06-56.83-24.2a.93.93,0,0,1-.66-.88L2,75.38a.93.93,0,0,1,.93-.94c11.56,0,21.77,1.32,30.33,3.91A52.56,52.56,0,0,1,50.66,87c8,6.32,9.69,12.62,9.75,12.89a.93.93,0,0,1-1.8.46h0c0-.06-1.64-6.06-9.24-12a51,51,0,0,0-16.78-8.29c-8.13-2.45-17.78-3.72-28.71-3.79l.73,57.34c2.59.79,12.53,3.87,23.46,7.92C45.15,147.88,56.4,153.43,61.5,158a.93.93,0,0,1-.62,1.62Z"/><ellipse class="cls-8" cx="59.42" cy="71.55" rx="5.48" ry="8.78"/><path class="cls-9" d="M59.62,73.61l-6.14-9.3s6.75-5.58,11.86.23Z"/><path class="cls-9" d="M59.29,75.61,63,81.18s-4,3.35-7.11-.14Z"/><path class="cls-4" d="M4.52,28.49c2.2-.34,8.45,2.75,8.45,2.75s-5,4.86-7.2,5.2a4,4,0,1,1-1.25-8Z"/><path class="cls-4" d="M3.08,52.8c2.16-.52,8.65,2,8.65,2S7.13,60.1,5,60.63A4,4,0,0,1,3.08,52.8Z"/><path class="cls-4" d="M10.08,10.72c1.8,1.3,4.06,7.9,4.06,7.9s-7-.08-8.78-1.38a4,4,0,1,1,4.72-6.52Z"/><path class="cls-4" d="M28.64,3.37c.36,2.19-2.69,8.47-2.69,8.47s-4.89-5-5.25-7.17a4,4,0,1,1,7.94-1.3Z"/><path class="cls-4" d="M50.05,6.05c.36,2.19-2.69,8.47-2.69,8.47s-4.89-5-5.25-7.17a4,4,0,1,1,7.94-1.3Z"/><path class="cls-4" d="M112.6,28.12c-2.22,0-7.88,4.11-7.88,4.11s5.74,4,8,3.94a4,4,0,0,0-.09-8Z"/><path class="cls-4" d="M112.39,49c-2.16-.52-8.65,2-8.65,2s4.59,5.25,6.75,5.78A4,4,0,1,0,112.39,49Z"/><path class="cls-4" d="M107.68,10.72c-1.8,1.3-4.06,7.9-4.06,7.9s7-.08,8.78-1.38a4,4,0,1,0-4.72-6.52Z"/><path class="cls-4" d="M89.12,3.37c-.36,2.19,2.69,8.47,2.69,8.47s4.89-5,5.25-7.17a4,4,0,0,0-7.94-1.3Z"/><path class="cls-4" d="M67.26,6C66.9,8.2,70,14.48,70,14.48s4.89-5,5.25-7.17A4,4,0,0,0,67.26,6Z"/></g></g></svg>