<?xml version="1.0" encoding="utf-8"?>
<!-- Generator: Adobe Illustrator 20.1.0, SVG Export Plug-In . SVG Version: 6.00 Build 0)  -->
<svg version="1.1" id="Capa_1" xmlns="http://www.w3.org/2000/svg" xmlns:xlink="http://www.w3.org/1999/xlink" x="0px" y="0px"
	 viewBox="0 0 50 50" enable-background="new 0 0 50 50" xml:space="preserve">
<rect fill="#FFFFFF" width="50" height="50"/>
<g>
	<g>
		<ellipse fill="#198199" cx="25" cy="45.44" rx="19.151" ry="14.889"/>
		<g>
			<path fill="#2292B1" d="M12.642,15.307l-2.333-4.824c-0.008-0.003-0.013-0.005-0.013-0.005l2.341,4.829
				c0,0-5.476,6.472-3.687,14.136C7.169,21.782,12.642,15.307,12.642,15.307z"/>
			<path fill="#2292B1" d="M41.64,25.493c0.001-3.089-1.039-6.292-3.981-10.038l-0.002,0.004
				C40.598,19.202,41.639,22.404,41.64,25.493z"/>
			<path fill="#2292B1" d="M25.703,13.705c5.378-0.104,13.608-3.018,14.142-3.208l0.006-0.005c0,0-8.913,3.227-14.474,3.227
				c0.004,0,0.007,0,0.011,0C25.485,13.719,25.606,13.707,25.703,13.705z"/>
			<path fill="none" d="M25.377,13.719c-5.707,0-15.071-3.23-15.071-3.23l0.002,0.01c0.374,0.128,9.469,3.22,15.057,3.22
				C25.37,13.719,25.374,13.719,25.377,13.719z"/>
			<path fill="#93D3E6" d="M37.658,15.455l2.215-4.974c0,0-0.01,0.004-0.028,0.01l-2.189,4.962
				C37.657,15.454,37.658,15.454,37.658,15.455z"/>
			<g>
				<path fill="#93D3E6" d="M39.114,35.548c0.579-1.514,1.098-2.953,1.469-4.134c0.628-1.999,1.056-3.937,1.057-5.915
					c-0.001-3.089-1.042-6.294-3.983-10.037l0.002-0.005c-0.001-0.001-0.001-0.002-0.002-0.003l2.189-4.962
					c-0.535,0.191-8.765,3.098-14.142,3.203v30.94C28.396,39.516,34.037,36.892,39.114,35.548z"/>
			</g>
			<g>
				<path fill="#2292B1" d="M25.61,44.814c0.031-0.06,0.062-0.12,0.094-0.18v-30.94c-0.098,0.002-0.219,0.025-0.315,0.025
					c-0.004,0-0.007,0-0.011,0c-0.004,0-0.008,0-0.011,0c-5.588,0-14.684-3.098-15.057-3.225l2.333,4.818
					c0,0-5.473,6.473-3.693,14.133c0.151,0.646,0.353,1.31,0.614,1.969c0.525,1.324,1.061,2.602,1.591,3.817
					C23.799,37.672,25.61,44.814,25.61,44.814z"/>
			</g>
		</g>
	</g>
	<circle fill="#FFFFFF" cx="18.806" cy="25.201" r="5.957"/>
	<circle fill="#FFFFFF" cx="32.305" cy="25.201" r="5.957"/>
	<circle fill="#1A171B" cx="18.806" cy="25.201" r="1.707"/>
	<circle fill="#1A171B" cx="32.305" cy="25.201" r="1.707"/>
	<path fill="#FCDA6B" d="M25.635,33.195l-2.573-3.902c0,0,2.831-2.341,4.975,0.098L25.635,33.195z"/>
</g>
</svg>
