<?xml version="1.0" standalone="no"?>
<!DOCTYPE svg PUBLIC "-//W3C//DTD SVG 1.1//EN" "http://www.w3.org/Graphics/SVG/1.1/DTD/svg11.dtd" >
<svg xmlns="http://www.w3.org/2000/svg">
<metadata>Generated by IcoMoon</metadata>
<defs>
<font id="icomoon" horiz-adv-x="1024">
<font-face units-per-em="1024" ascent="960" descent="-64" />
<missing-glyph horiz-adv-x="1024" />
<glyph unicode="&#x20;" horiz-adv-x="512" d="" />
<glyph unicode="&#xe900;" glyph-name="B4K_acontecimientos" d="M270.336 683.52c40.96 0 73.728 32.768 73.728 73.728s-73.728 169.984-73.728 169.984-71.68-131.072-71.68-172.032c0-38.912 32.768-71.68 71.68-71.68zM270.336 818.688c0 0 34.816-61.44 34.816-81.92 0-18.432-16.384-34.816-34.816-34.816s-34.816 16.384-34.816 34.816c0 20.48 34.816 81.92 34.816 81.92zM512 683.52c40.96 0 73.728 32.768 73.728 73.728s-73.728 169.984-73.728 169.984-73.728-131.072-73.728-172.032c0-38.912 32.768-71.68 73.728-71.68zM512 818.688c0 0 34.816-61.44 34.816-81.92 0-18.432-16.384-34.816-34.816-34.816s-34.816 16.384-34.816 34.816c0 20.48 34.816 81.92 34.816 81.92zM753.664 683.52c40.96 0 73.728 32.768 73.728 73.728s-73.728 169.984-73.728 169.984-73.728-131.072-73.728-172.032c0-38.912 32.768-71.68 73.728-71.68zM753.664 818.688c0 0 34.816-61.44 34.816-81.92 0-18.432-16.384-34.816-34.816-34.816s-34.816 16.384-34.816 34.816c0 20.48 34.816 81.92 34.816 81.92zM944.128 46.592v307.2c0 38.912-30.72 69.632-69.632 69.632h-75.776v239.616h-92.16v-239.616h-149.504v239.616h-92.16v-239.616h-149.504v239.616h-90.112v-239.616h-75.776c-38.912 0-69.632-30.72-69.632-69.632v-307.2h-69.632v-77.824h1003.52v77.824h-69.632z" />
<glyph unicode="&#xe901;" glyph-name="B4K_add" d="M1013.76 454.144c0 2.048 0 4.096 0 6.144 0 45.056-36.864 81.92-79.872 81.92h-342.016v327.68c0 45.056-22.528 79.872-67.584 79.872-2.048 0-4.096 0-6.144 0s-4.096 0-6.144 0c-45.056 0-81.92-36.864-81.92-79.872v-325.632h-339.968c-45.056 0-79.872-36.864-79.872-81.92 0-2.048 0-4.096 0-6.144s0-4.096 0-6.144c0-45.056 36.864-67.584 79.872-67.584v0h337.92v-352.256c0-45.056 36.864-79.872 81.92-79.872 2.048 0 4.096 0 6.144 0s4.096 0 6.144 0c45.056 0 67.584 36.864 67.584 79.872v0 350.208h342.016c45.056 0 79.872 22.528 79.872 67.584 2.048 2.048 2.048 4.096 2.048 6.144z" />
<glyph unicode="&#xe902;" glyph-name="B4K_age" d="M73.728 103.936v0c-24.576 0-45.056 18.432-47.104 43.008l-16.384 172.032c-2.048 28.672 18.432 51.2 47.104 51.2h32.768c28.672 0 49.152-24.576 47.104-51.2l-14.336-169.984c-4.096-24.576-24.576-45.056-49.152-45.056zM124.928 441.856c0-27.146-22.006-49.152-49.152-49.152s-49.152 22.006-49.152 49.152c0 27.146 22.006 49.152 49.152 49.152s49.152-22.006 49.152-49.152zM331.776 103.936v0c-30.72 0-55.296 22.528-59.392 53.248l-20.48 215.040c-4.096 34.816 24.576 65.536 59.392 65.536h40.96c34.816 0 61.44-30.72 59.392-65.536l-18.432-215.040c-4.096-28.672-28.672-53.248-61.44-53.248zM395.264 527.872c0-33.932-27.508-61.44-61.44-61.44s-61.44 27.508-61.44 61.44c0 33.932 27.508 61.44 61.44 61.44s61.44-27.508 61.44-61.44zM602.112 103.936v0c-36.864 0-67.584 26.624-69.632 63.488l-26.624 256c-4.096 40.96 28.672 77.824 69.632 77.824h49.152c40.96 0 73.728-34.816 69.632-77.824l-22.528-256c-2.048-34.816-32.768-63.488-69.632-63.488zM673.792 607.744c0-39.588-32.092-71.68-71.68-71.68s-71.68 32.092-71.68 71.68c0 39.588 32.092 71.68 71.68 71.68s71.68-32.092 71.68-71.68zM903.168 103.936v0c-43.008 0-79.872 32.768-83.968 75.776l-30.72 305.152c-4.096 49.152 34.816 92.16 83.968 92.16h57.344c49.152 0 88.064-43.008 83.968-92.16l-26.624-303.104c-4.096-43.008-40.96-77.824-83.968-77.824zM989.184 704c0-47.505-38.511-86.016-86.016-86.016s-86.016 38.511-86.016 86.016c0 47.505 38.511 86.016 86.016 86.016s86.016-38.511 86.016-86.016z" />
<glyph unicode="&#xe903;" glyph-name="B4K_age3" d="M73.728 103.936v0c-24.576 0-45.056 18.432-47.104 43.008l-16.384 172.032c-2.048 28.672 18.432 51.2 47.104 51.2h32.768c28.672 0 49.152-24.576 47.104-51.2l-14.336-169.984c-4.096-24.576-24.576-45.056-49.152-45.056zM124.928 441.856c0-27.146-22.006-49.152-49.152-49.152s-49.152 22.006-49.152 49.152c0 27.146 22.006 49.152 49.152 49.152s49.152-22.006 49.152-49.152z" />
<glyph unicode="&#xe904;" glyph-name="B4K_age6" d="M331.776 103.936v0c-30.72 0-55.296 22.528-59.392 53.248l-20.48 215.040c-4.096 34.816 24.576 65.536 59.392 65.536h40.96c34.816 0 61.44-30.72 59.392-65.536l-18.432-215.040c-4.096-28.672-28.672-53.248-61.44-53.248zM395.264 527.872c0-33.932-27.508-61.44-61.44-61.44s-61.44 27.508-61.44 61.44c0 33.932 27.508 61.44 61.44 61.44s61.44-27.508 61.44-61.44z" />
<glyph unicode="&#xe905;" glyph-name="B4K_age9" d="M602.112 103.936v0c-36.864 0-67.584 26.624-69.632 63.488l-26.624 256c-4.096 40.96 28.672 77.824 69.632 77.824h49.152c40.96 0 73.728-34.816 69.632-77.824l-22.528-256c-2.048-34.816-32.768-63.488-69.632-63.488zM673.792 607.744c0-39.588-32.092-71.68-71.68-71.68s-71.68 32.092-71.68 71.68c0 39.588 32.092 71.68 71.68 71.68s71.68-32.092 71.68-71.68z" />
<glyph unicode="&#xe906;" glyph-name="B4K_age13" d="M903.168 103.936v0c-43.008 0-79.872 32.768-83.968 75.776l-30.72 305.152c-4.096 49.152 34.816 92.16 83.968 92.16h57.344c49.152 0 88.064-43.008 83.968-92.16l-26.624-303.104c-4.096-43.008-40.96-77.824-83.968-77.824zM989.184 704c0-47.505-38.511-86.016-86.016-86.016s-86.016 38.511-86.016 86.016c0 47.505 38.511 86.016 86.016 86.016s86.016-38.511 86.016-86.016z" />
<glyph unicode="&#xe907;" glyph-name="B4K_animales" d="M985.088 589.312c0-73.52-52.264-133.12-116.736-133.12s-116.736 59.6-116.736 133.12c0 73.52 52.264 133.12 116.736 133.12s116.736-59.6 116.736-133.12zM763.904 816.64c0-73.52-52.264-133.12-116.736-133.12s-116.736 59.6-116.736 133.12c0 73.52 52.264 133.12 116.736 133.12s116.736-59.6 116.736-133.12zM473.088 816.64c0-73.52-52.264-133.12-116.736-133.12s-116.736 59.6-116.736 133.12c0 73.52 52.264 133.12 116.736 133.12s116.736-59.6 116.736-133.12zM272.384 589.312c0-73.52-52.264-133.12-116.736-133.12s-116.736 59.6-116.736 133.12c0 73.52 52.264 133.12 116.736 133.12s116.736-59.6 116.736-133.12zM851.968 214.528c0-147.456-151.552-268.288-339.968-268.288s-339.968 120.832-339.968 268.288 241.664 415.744 339.968 415.744 339.968-268.288 339.968-415.744z" />
<glyph unicode="&#xe908;" glyph-name="B4K_arte" d="M888.832 744.96c-200.704 192.512-206.848-129.024-317.44-92.16-133.12 43.008-98.304 327.68-366.592 262.144-247.808-61.44-243.712-458.752-77.824-700.416 167.936-239.616 473.088-317.44 684.032-169.984s288.768 497.664 77.824 700.416zM675.84 452.096c-34.816 49.152-22.528 116.736 26.624 149.504 49.152 34.816 116.736 22.528 149.504-26.624 34.816-49.152 22.528-116.736-26.624-149.504-47.104-34.816-114.688-22.528-149.504 26.624z" />
<glyph unicode="&#xe909;" glyph-name="B4K_clasicos" d="M1009.664 159.232c-6.144 10.24-18.432 12.288-28.672 6.144 0 0-67.584-43.008-167.936-79.872-34.816-12.288-77.824-26.624-124.928-36.864l45.056 337.92c0 0 47.104 217.088 79.872 323.584s137.216 141.312 137.216 141.312-12.288 32.768-67.584 32.768c-55.296 0-106.496-61.44-149.504-143.36s-83.968-337.92-83.968-337.92l-342.016 57.344-71.68-329.728c-32.768 20.48-59.392 40.96-81.92 59.392-67.584 57.344-104.448 110.592-106.496 110.592-6.144 10.24-18.432 12.288-28.672 6.144s-12.288-18.432-6.144-28.672c2.048-2.048 38.912-57.344 112.64-118.784 120.832-102.4 239.616-141.312 319.488-155.648 34.816-6.144 69.632-10.24 104.448-10.24 106.496 0 206.848 26.624 278.528 53.248 102.4 38.912 172.032 81.92 174.080 83.968 12.288 6.144 14.336 20.48 8.192 28.672zM452.608 44.544c-49.152 8.192-92.16 24.576-133.12 40.96l61.44 262.144 239.616-30.72-38.912-280.576c-40.96-2.048-83.968 0-129.024 8.192zM331.776 501.248l258.048-40.96c16.384-2.048 30.72 8.192 32.768 22.528 2.048 16.384-8.192 30.72-22.528 32.768l-258.048 40.96c-16.384 2.048-30.72-8.192-32.768-22.528v0c-4.096-14.336 6.144-28.672 22.528-32.768z" />
<glyph unicode="&#xe90a;" glyph-name="B4K_close" d="M679.936 439.808l299.008 299.008c47.104 47.104 47.104 122.88 0 167.936-47.104 47.104-122.88 47.104-167.936 0l-299.008-296.96-299.008 296.96c-47.104 47.104-122.88 47.104-167.936 0s-47.104-122.88 0-167.936l299.008-299.008-299.008-296.96c-47.104-47.104-47.104-122.88 0-167.936 47.104-47.104 122.88-47.104 167.936 0l299.008 296.96 299.008-299.008c47.104-47.104 122.88-47.104 167.936 0 47.104 47.104 47.104 122.88 0 167.936l-299.008 299.008z" />
<glyph unicode="&#xe90b;" glyph-name="B4K_conceptos" d="M497.664 648.704c0-134.598-109.114-243.712-243.712-243.712s-243.712 109.114-243.712 243.712c0 134.598 109.114 243.712 243.712 243.712s243.712-109.114 243.712-243.712zM675.84 585.216l167.936-290.816 169.984-290.816h-675.84l167.936 290.816z" />
<glyph unicode="&#xe90c;" glyph-name="B4K_cuerpohumano" d="M505.856 755.2c43.008 0 79.872 53.248 79.872 104.448s-34.816 90.112-79.872 90.112c-43.008 0-79.872-40.96-79.872-90.112s36.864-104.448 79.872-104.448zM897.024 728.576h-770.048c-26.624 0-47.104-20.48-47.104-47.104s20.48-47.104 47.104-47.104h276.48l-4.096-45.056v-598.016c0-24.576 20.48-45.056 45.056-45.056h16.384c24.576 0 45.056 20.48 45.056 45.056v393.216h12.288v-393.216c0-24.576 20.48-45.056 45.056-45.056h16.384c24.576 0 45.056 20.48 45.056 45.056v608.256l-2.048 34.816h276.48c26.624 0 47.104 20.48 47.104 47.104s-22.528 47.104-49.152 47.104z" />
<glyph unicode="&#xe90d;" glyph-name="B4K_email" d="M512 949.76c-276.48 0-501.76-225.28-501.76-501.76s225.28-501.76 501.76-501.76c276.48 0 501.76 225.28 501.76 501.76s-225.28 501.76-501.76 501.76zM262.144 697.856h501.76c8.192 0 18.432-2.048 26.624-6.144l-278.528-321.536-276.48 323.584c8.192 4.096 16.384 6.144 26.624 4.096v0zM198.656 259.584v376.832c0 2.048 0 2.048 0 4.096l184.32-215.040-182.272-182.272c-2.048 6.144-2.048 10.24-2.048 16.384v0zM761.856 198.144h-499.712c-6.144 0-10.24 0-16.384 2.048l178.176 178.176 88.064-102.4 88.064 102.4 178.176-178.176c-4.096-2.048-10.24-2.048-16.384-2.048zM825.344 259.584c0-6.144 0-10.24-2.048-16.384l-182.272 182.272 184.32 215.040c0-2.048 0-2.048 0-4.096v-376.832z" />
<glyph unicode="&#xe90e;" glyph-name="B4K_emociones" d="M1007.616 648.704c-45.056 198.656-208.896 237.568-266.24 237.568s-165.888-26.624-229.376-120.832c-57.344 94.208-169.984 118.784-229.376 118.784s-223.232-38.912-266.24-237.568c-45.056-196.608 200.704-382.976 200.704-382.976l294.912-251.904 294.912 251.904c0 0 245.76 186.368 200.704 385.024z" />
<glyph unicode="&#xe90f;" glyph-name="B4K_error" d="M512 949.76c-276.48 0-501.76-225.28-501.76-501.76s225.28-501.76 501.76-501.76 501.76 225.28 501.76 501.76c0 276.48-225.28 501.76-501.76 501.76zM333.824 724.48c49.152 0 90.112-38.912 90.112-90.112 0-49.152-38.912-90.112-90.112-90.112s-90.112 38.912-90.112 90.112c0 49.152 40.96 90.112 90.112 90.112zM757.76 177.664c-8.192-4.096-14.336-6.144-22.528-6.144-16.384 0-30.72 8.192-38.912 22.528 0 2.048-79.872 133.12-186.368 133.12-104.448 0-176.128-131.072-178.176-131.072-12.288-22.528-40.96-30.72-61.44-18.432-22.528 12.288-30.72 40.96-18.432 61.44 4.096 8.192 98.304 180.224 258.048 180.224 157.696 0 260.096-169.984 264.192-178.176 12.288-22.528 4.096-51.2-16.384-63.488zM690.176 546.304c-49.152 0-90.112 38.912-90.112 90.112 0 49.152 38.912 90.112 90.112 90.112 49.152 0 90.112-38.912 90.112-90.112s-40.96-90.112-90.112-90.112z" />
<glyph unicode="&#xe910;" glyph-name="B4K_facebook" d="M512 949.76c-276.48 0-501.76-225.28-501.76-501.76s225.28-501.76 501.76-501.76c276.48 0 501.76 225.28 501.76 501.76s-225.28 501.76-501.76 501.76zM636.928 429.568h-81.92c0-131.072 0-290.816 0-290.816h-120.832c0 0 0 159.744 0 290.816h-57.344v102.4h57.344v65.536c0 47.104 22.528 122.88 122.88 122.88h90.112v-100.352c0 0-55.296 0-65.536 0s-26.624-6.144-26.624-28.672v-61.44h92.16l-10.24-100.352z" />
<glyph unicode="&#xe911;" glyph-name="B4K_familia" d="M233.472 677.376c32.768 0 59.392 40.96 59.392 77.824s-26.624 67.584-59.392 67.584c-32.768 0-59.392-30.72-59.392-67.584s26.624-77.824 59.392-77.824zM1009.664 425.472l-106.496 206.848c-4.096 6.144-14.336 24.576-47.104 24.576h-153.6c-32.768 0-38.912-18.432-43.008-24.576l-86.016-174.080c-4.096 2.048-8.192 2.048-12.288 2.048h-24.576c18.432 14.336 30.72 40.96 30.72 67.584 0 36.864-26.624 67.584-59.392 67.584s-59.392-30.72-59.392-67.584c0-26.624 12.288-53.248 30.72-67.584h-20.48c-4.096 0-6.144 0-8.192-2.048l-88.064 174.080c-4.096 6.144-12.288 24.576-47.104 24.576h-153.6c-28.672 0-38.912-18.432-43.008-24.576l-104.448-208.896c-8.192-16.384-2.048-36.864 14.336-45.056s36.864-2.048 45.056 14.336l81.92 159.744v-448.512c0-18.432 14.336-32.768 32.768-32.768h12.288c18.432 0 32.768 14.336 32.768 32.768v296.96h10.24v-294.912c0-18.432 14.336-32.768 32.768-32.768h12.288c18.432 0 32.768 14.336 32.768 32.768v454.656l86.016-165.888-45.056-90.112c-6.144-10.24-2.048-24.576 10.24-30.72v0c10.24-6.144 22.528-2.048 28.672 10.24l47.104 94.208c2.048 0 4.096 2.048 6.144 2.048v-284.672c0-12.288 12.288-22.528 24.576-22.528h8.192c12.288 0 26.624 10.24 26.624 22.528 0-12.288 12.288-22.528 24.576-22.528h8.192c12.288 0 18.432 10.24 18.432 22.528v290.816c2.048-2.048 4.096-4.096 6.144-4.096l53.248-98.304c2.048-6.144 8.192-10.24 14.336-10.24l-2.048-10.24h69.632v-155.648c0-18.432 10.24-32.768 28.672-32.768h12.288c18.432 0 36.864 14.336 36.864 32.768v155.648h10.24v-155.648c0-18.432 10.24-32.768 28.672-32.768h12.288c18.432 0 36.864 14.336 36.864 32.768v155.648h59.392l-63.488 299.008 86.016-165.888c8.192-16.384 28.672-22.528 45.056-14.336v0c12.288 6.144 18.432 24.576 10.24 43.008zM647.168 331.264l-30.72 61.44c0 0 0 0 0 0l79.872 159.744-49.152-221.184zM782.336 677.376c32.768 0 59.392 40.96 59.392 77.824s-26.624 67.584-59.392 67.584-59.392-30.72-59.392-67.584c0-36.864 26.624-77.824 59.392-77.824z" />
<glyph unicode="&#xe912;" glyph-name="B4K_fantasia" d="M446.464 720.384l16.384 229.376-176.128-147.456-215.040 86.016 86.016-212.992-147.456-176.128 229.376 16.384 122.88-194.56 43.008 176.128 536.576-538.624c16.384-16.384 43.008-16.384 59.392 0s16.384 43.008 0 59.392l-536.576 536.576 176.128 43.008-194.56 122.88zM370.688 589.312l-34.816-143.36-79.872 124.928-147.456-10.24 96.256 112.64-55.296 137.216 137.216-55.296 112.64 94.208-10.24-145.408 124.928-77.824-143.36-36.864z" />
<glyph unicode="&#xe913;" glyph-name="B4K_filter" d="M514.048 927.232h-503.808l395.264-323.584v-354.304l212.992-280.576v634.88l395.264 323.584z" />
<glyph unicode="&#xe914;" glyph-name="B4K_geografia" d="M512 949.76c-276.48 0-501.76-225.28-501.76-501.76s225.28-501.76 501.76-501.76 501.76 225.28 501.76 501.76-225.28 501.76-501.76 501.76zM440.32 542.208c2.048 14.336 6.144 32.768 18.432 40.96 18.432 12.288 47.104 2.048 61.44 18.432 6.144 6.144 8.192 14.336 12.288 18.432 4.096 6.144 10.24 10.24 16.384 14.336 43.008 24.576 88.064 51.2 137.216 43.008 6.144-2.048 12.288-2.048 20.48-2.048 6.144 2.048 12.288 6.144 16.384 10.24 40.96 30.72 86.016 57.344 133.12 79.872 75.776-81.92 122.88-192.512 124.928-313.344-4.096-2.048-8.192-6.144-12.288-8.192-28.672-18.432-59.392-36.864-88.064-55.296-8.192-6.144-18.432-10.24-24.576-18.432-6.144-6.144-8.192-14.336-12.288-22.528-28.672-55.296-94.208-86.016-112.64-145.408-4.096-18.432-4.096-36.864-10.24-55.296-4.096-20.48-14.336-38.912-26.624-57.344-10.24-16.384-22.528-34.816-38.912-43.008-16.384-10.24-40.96-10.24-55.296 4.096-12.288 12.288-12.288 32.768-8.192 51.2s10.24 34.816 6.144 53.248c-6.144 24.576-28.672 43.008-40.96 65.536-6.144 12.288-10.24 26.624-18.432 36.864-6.144 8.192-14.336 14.336-22.528 20.48-28.672 24.576-47.104 61.44-61.44 96.256-8.192 22.528-14.336 51.2 4.096 67.584 12.288 12.288 32.768 10.24 49.152 10.24 32.768-2.048 65.536-6.144 98.304-8.192 18.432-2.048 36.864-2.048 53.248-8.192 14.336-4.096 26.624-12.288 40.96-14.336 14.336 0 30.72 10.24 28.672 24.576-2.048 8.192-10.24 14.336-16.384 20.48-8.192 6.144-14.336 10.24-22.528 16.384-4.096 2.048-6.144 6.144-10.24 8.192-2.048 4.096-4.096 8.192-6.144 12.288-6.144 12.288-18.432 20.48-30.72 28.672s-28.672 16.384-40.96 8.192c2.048-20.48 2.048-38.912 2.048-59.392-4.096 6.144-12.288 4.096-18.432 0s-8.192-10.24-14.336-14.336c-6.144-4.096-16.384-2.048-16.384 4.096 18.432 20.48 26.624 51.2 16.384 77.824-20.48-6.144-38.912-10.24-59.392-16.384 14.336-12.288 4.096-36.864-10.24-51.2-10.24-8.192-22.528-16.384-34.816-16.384-16.384 2.048-28.672 16.384-30.72 30.72 0 16.384 2.048 32.768 4.096 47.104zM40.96 448c0 233.472 172.032 425.984 395.264 462.848-2.048-6.144-6.144-14.336-10.24-20.48-18.432-32.768-45.056-59.392-71.68-86.016-16.384-16.384-34.816-32.768-57.344-34.816-14.336 0-28.672 6.144-43.008 10.24s-30.72 6.144-43.008-2.048c-12.288-8.192-14.336-30.72-2.048-36.864-14.336-10.24-30.72-20.48-45.056-30.72-4.096-2.048-8.192-6.144-10.24-10.24-2.048-6.144 2.048-10.24 4.096-16.384 6.144-16.384-2.048-34.816-8.192-49.152-6.144-16.384-8.192-36.864 4.096-49.152 4.096-4.096 12.288-6.144 14.336-12.288 2.048-4.096 2.048-8.192 2.048-12.288-8.192-59.392-86.016-90.112-96.256-149.504 0-4.096-2.048-10.24 0-14.336s4.096-8.192 8.192-12.288c30.72-26.624 73.728-34.816 112.64-40.96 53.248-8.192 106.496-14.336 159.744-22.528 6.144 0 14.336-2.048 18.432-6.144s4.096-10.24 6.144-16.384c2.048-32.768 2.048-65.536-4.096-98.304-2.048-10.24-4.096-18.432-2.048-28.672 0-14.336 4.096-26.624 10.24-40.96 6.144-16.384 12.288-34.816 18.432-51.2 10.24-30.72 20.48-63.488 14.336-94.208-215.040 49.152-374.784 237.568-374.784 462.848z" />
<glyph unicode="&#xe915;" glyph-name="B4K_habitos" d="M780.288 390.656c-28.672-122.88-137.216-221.184-268.288-221.184-120.832 0-221.184 73.728-260.096 176.128h69.632l-155.648 180.224-155.648-180.224h96.256c40.96-184.32 206.848-319.488 405.504-319.488s366.592 145.408 407.552 331.776l-83.968-65.536-55.296 98.304zM243.712 511.488c26.624 122.88 137.216 208.896 268.288 208.896 120.832 0 221.184-88.064 260.096-190.464h-69.632l155.648-180.224 155.648 180.224h-96.256c-40.96 204.8-206.848 331.776-405.504 331.776s-366.592-137.216-407.552-325.632l83.968 67.584 55.296-92.16z" />
<glyph unicode="&#xe916;" glyph-name="B4K_historia" d="M915.456 79.36v722.944c0 16.384 16.384 32.768 30.72 45.056l67.584 47.104h-282.624v-350.208h-440.32v350.208h-280.576l67.584-47.104c14.336-10.24 28.672-28.672 28.672-45.056v-722.944c0-16.384-14.336-26.624-28.672-36.864l-67.584-40.96h280.576v350.208h440.32v-350.208h282.624l-67.584 40.96c-14.336 10.24-30.72 20.48-30.72 36.864z" />
<glyph unicode="&#xe917;" glyph-name="B4K_manualidades" d="M999.424 480.768l-423.936 24.576 104.448 409.6c4.096 16.384-16.384 26.624-26.624 14.336-49.152-57.344-129.024-157.696-165.888-239.616-22.528-47.104-34.816-112.64-45.056-178.176l-120.832 6.144c-12.288 73.728-77.824 129.024-153.6 129.024-86.016 0-157.696-69.632-157.696-157.696s69.632-157.696 157.696-157.696c65.536 0 122.88 40.96 145.408 98.304 26.624-8.192 69.632-20.48 118.784-32.768-4.096-53.248-4.096-98.304-4.096-124.928-61.44-4.096-118.784-47.104-137.216-108.544-26.624-81.92 20.48-169.984 102.4-196.608s169.984 20.48 196.608 102.4c22.528 73.728-10.24 151.552-77.824 186.368l30.72 118.784c65.536-12.288 131.072-18.432 184.32-12.288 88.064 10.24 206.848 57.344 278.528 86.016 14.336 10.24 10.24 32.768-6.144 32.768zM167.936 400.896c-49.152 0-90.112 40.96-90.112 90.112s40.96 90.112 90.112 90.112c49.152 0 90.112-40.96 90.112-90.112s-40.96-90.112-90.112-90.112zM526.336 91.648c-14.336-47.104-65.536-73.728-114.688-59.392-47.104 14.336-73.728 65.536-59.392 114.688 14.336 47.104 65.536 73.728 114.688 59.392 47.104-16.384 73.728-67.584 59.392-114.688z" />
<glyph unicode="&#xe918;" glyph-name="B4K_navidad" d="M512 949.76l47.104-147.456h155.648l-124.928-94.208 47.104-147.456-124.928 90.112-124.928-92.16 47.104 149.504-124.928 94.208h155.648zM786.432 1.536l-149.504 247.808 73.728-49.152-137.216 245.76 36.864-24.576-98.304 174.080-98.304-174.080 36.864 24.576-135.168-245.76 71.68 49.152-149.504-247.808 243.712 24.576v-79.872h61.44v79.872z" />
<glyph unicode="&#xe919;" glyph-name="B4K_profesiones" d="M372.736 212.48l143.36 143.36 311.296-311.296 184.32-98.304-98.304 184.32-311.296 313.344 137.216 137.216c67.584-32.768 151.552-22.528 208.896 34.816 51.2 51.2 65.536 122.88 45.056 184.32l-83.968-83.968c-16.384-16.384-47.104-14.336-65.536 4.096l-53.248 53.248c-16.384 16.384-20.48 47.104-2.048 63.488l83.968 83.968c-61.44 18.432-135.168 6.144-186.368-45.056-53.248-57.344-63.488-141.312-30.72-208.896l-139.264-137.216-311.296 311.296-86.016-86.016 311.296-311.296-143.36-143.36c-67.584 32.768-151.552 22.528-208.896-34.816-51.2-51.2-65.536-122.88-45.056-184.32l83.968 83.968c16.384 16.384 47.104 12.288 65.536-4.096l53.248-53.248c16.384-16.384 20.48-47.104 2.048-63.488l-83.968-83.968c61.44-18.432 135.168-6.144 186.368 45.056 55.296 55.296 65.536 139.264 32.768 206.848zM100.352 945.664c-6.144 6.144-16.384 6.144-22.528 0l-63.488-63.488c-6.144-6.144-6.144-16.384 0-22.528l86.016-86.016 86.016 86.016-86.016 86.016z" />
<glyph unicode="&#xe91a;" glyph-name="B4K_tag" d="M969.933 755.2l-241.459 89.498c-8.040 3.093-17.342 4.884-27.062 4.884-13.991 0-27.115-3.712-38.442-10.204l0.378 0.2-623.411-359.834c-12.288-7.168-8.192-20.48-1.024-31.744l219.955-380.928c7.168-12.288 18.022-25.805 30.31-18.842l623.206 360.038c19.084 12.422 32.397 32.338 35.788 55.477l0.052 0.433 43.213 254.157c0.204 1.412 0.321 3.043 0.321 4.701 0 14.51-8.929 26.935-21.593 32.080l-0.232 0.083zM901.12 637.85c-6.767-3.984-14.907-6.337-23.597-6.337-26.015 0-47.104 21.089-47.104 47.104s21.089 47.104 47.104 47.104c17.348 0 32.506-9.378 40.68-23.342l0.12-0.223c3.963-6.753 6.304-14.873 6.304-23.54 0-17.325-9.353-32.465-23.286-40.647l-0.221-0.12z" />
<glyph unicode="&#xe91b;" glyph-name="B4K_twiter" d="M512 949.76c-276.48 0-501.76-225.28-501.76-501.76s225.28-501.76 501.76-501.76c276.48 0 501.76 225.28 501.76 501.76s-225.28 501.76-501.76 501.76zM761.856 560.64v-16.384c0-163.84-124.928-352.256-352.256-352.256-69.632 0-135.168 20.48-188.416 55.296 10.24-2.048 20.48-2.048 28.672-2.048 57.344 0 110.592 20.48 153.6 53.248-53.248 2.048-100.352 36.864-114.688 86.016 8.192-2.048 14.336-2.048 22.528-2.048 12.288 0 22.528 2.048 32.768 4.096-55.296 12.288-98.304 61.44-98.304 122.88v0c16.384-10.24 34.816-14.336 55.296-16.384-32.768 22.528-55.296 59.392-55.296 102.4 0 22.528 6.144 43.008 16.384 61.44 61.44-75.776 151.552-124.928 253.952-129.024-2.048 8.192-4.096 18.432-4.096 28.672 0 67.584 55.296 122.88 122.88 122.88 34.816 0 67.584-14.336 90.112-38.912 28.672 6.144 55.296 16.384 77.824 30.72-10.24-28.672-28.672-53.248-55.296-67.584 24.576 2.048 49.152 10.24 71.68 18.432-12.288-22.528-32.768-45.056-57.344-61.44v0z" />
<glyph unicode="&#xe91c;" glyph-name="B4K_vehiculos" d="M927.744 523.776l-71.68 237.568c-8.192 32.768-34.816 55.296-65.536 55.296h-563.2c-28.672 0-55.296-24.576-63.488-57.344l-73.728-245.76c-47.104-18.432-79.872-65.536-79.872-118.784v-176.128c0-16.384 20.48-32.768 20.48-36.864v-61.44c0-20.48 22.528-40.96 43.008-40.96h83.968c20.48 0 36.864 20.48 36.864 40.96v61.44h634.88v-61.44c0-20.48 12.288-40.96 32.768-40.96h83.968c20.48 0 26.624 20.48 26.624 40.96v63.488c20.48 6.144 40.96 20.48 40.96 36.864v217.088c0 47.104-38.912 83.968-86.016 86.016zM149.504 290.304c-51.2 0-94.208 43.008-94.208 94.208s43.008 94.208 94.208 94.208c51.2 0 94.208-43.008 94.208-94.208s-40.96-94.208-94.208-94.208zM151.552 529.92l61.44 204.8c8.192 26.624 30.72 40.96 55.296 40.96h481.28c24.576 0 47.104-14.336 55.296-40.96l61.44-204.8h-714.752zM868.352 290.304c-51.2 0-94.208 43.008-94.208 94.208s43.008 94.208 94.208 94.208c51.2 0 94.208-43.008 94.208-94.208s-40.96-94.208-94.208-94.208z" />
<glyph unicode="&#xe91d;" glyph-name="B4K_whatsapp" d="M866.304 804.352c-94.208 94.208-219.136 145.408-352.256 145.408-274.432 0-497.664-223.232-497.664-497.664 0-88.064 22.528-174.080 65.536-247.808l-69.632-258.048 264.192 69.632c73.728-38.912 153.6-61.44 237.568-61.44v0 0c274.432 0 497.664 223.232 497.664 497.664 0 133.12-51.2 258.048-145.408 352.256v0zM514.048 38.4v0c-73.728 0-147.456 20.48-210.944 57.344l-14.336 8.192-155.648-40.96 40.96 151.552-10.24 18.432c-40.96 65.536-63.488 141.312-63.488 219.136 0 229.376 186.368 413.696 413.696 413.696 110.592 0 215.040-43.008 292.864-120.832s120.832-182.272 120.832-292.864c0-227.328-186.368-413.696-413.696-413.696zM741.376 347.648c-12.288 6.144-73.728 36.864-83.968 40.96-12.288 4.096-20.48 6.144-28.672-6.144s-32.768-40.96-38.912-49.152c-8.192-8.192-16.384-8.192-28.672-2.048s-53.248 18.432-100.352 61.44c-36.864 32.768-61.44 73.728-69.632 86.016s0 18.432 6.144 24.576c6.144 6.144 12.288 14.336 18.432 22.528s8.192 12.288 12.288 20.48c4.096 8.192 2.048 16.384 0 22.528-4.096 6.144-28.672 67.584-38.912 92.16s-20.48 20.48-28.672 20.48c-8.192 0-16.384 0-24.576 0s-22.528-4.096-32.768-16.384c-12.288-12.288-43.008-43.008-43.008-104.448s45.056-120.832 51.2-129.024c6.144-8.192 88.064-133.12 212.992-188.416 28.672-12.288 53.248-20.48 71.68-26.624 30.72-10.24 57.344-8.192 77.824-4.096 24.576 4.096 73.728 30.72 83.968 59.392s10.24 53.248 8.192 59.392c-4.096 8.192-12.288 10.24-24.576 16.384v0z" />
<glyph unicode="&#xe91e;" glyph-name="B4K-pinteres" d="M512 949.76c-276.48 0-501.76-225.28-501.76-501.76 0-212.992 133.12-393.216 319.488-466.944-4.096 38.912-8.192 100.352 2.048 143.36 8.192 38.912 59.392 249.856 59.392 249.856s-14.336 30.72-14.336 73.728c0 69.632 40.96 122.88 90.112 122.88 43.008 0 63.488-32.768 63.488-69.632 0-43.008-26.624-106.496-40.96-167.936-14.336-51.2 22.528-90.112 71.68-90.112 88.064 0 157.696 94.208 157.696 229.376 0 120.832-86.016 204.8-208.896 204.8-143.36 0-227.328-106.496-227.328-217.088 0-43.008 16.384-90.112 36.864-114.688 4.096-4.096 4.096-10.24 4.096-14.336-4.096-16.384-12.288-49.152-14.336-57.344-2.048-10.24-8.192-10.24-16.384-6.144-63.488 28.672-102.4 120.832-102.4 194.56 0 157.696 114.688 303.104 331.776 303.104 174.080 0 309.248-124.928 309.248-288.768 0-172.032-108.544-311.296-260.096-311.296-51.2 0-98.304 26.624-114.688 57.344 0 0-24.576-96.256-30.72-118.784-12.288-43.008-40.96-98.304-61.44-131.072 47.104-14.336 96.256-22.528 149.504-22.528 276.48 0 501.76 225.28 501.76 501.76-2.048 272.384-227.328 497.664-503.808 497.664v0z" />
<glyph unicode="&#xe91f;" glyph-name="B4K_all" d="M483.328 26.112l-329.728 512c-24.576 36.864-12.288 86.016 24.576 110.592s86.016 14.336 110.592-24.576l180.224-280.576 262.144 503.808c20.48 38.912 69.632 53.248 108.544 34.816 38.912-20.48 55.296-69.632 34.816-108.544l-391.168-747.52z" />
<glyph unicode="&#xe920;" glyph-name="B4K_down" d="M512-0.512l-468.992 798.72c-18.432 30.72-8.192 71.68 22.528 90.112s71.68 8.192 90.112-22.528l356.352-608.256 356.352 606.208c18.432 30.72 59.392 40.96 90.112 22.528s40.96-59.392 22.528-90.112l-468.992-796.672z" />
<glyph unicode="&#xe921;" glyph-name="B4K_some" d="M792.576 353.792h-561.152c-38.912 0-69.632 30.72-69.632 69.632v0c0 38.912 30.72 69.632 69.632 69.632h559.104c38.912 0 69.632-30.72 69.632-69.632v0c0-38.912-30.72-69.632-67.584-69.632z" />
<glyph unicode="&#xe922;" glyph-name="B4K_up" d="M512 896.512l468.992-798.72c18.432-30.72 8.192-71.68-22.528-90.112s-71.68-8.192-90.112 22.528l-356.352 608.256-356.352-606.208c-18.432-30.72-59.392-40.96-90.112-22.528s-40.96 59.392-22.528 90.112l468.992 796.672z" />
<glyph unicode="&#xe923;" glyph-name="B4K-icons_emai-s" d="M110.592 849.408h802.816c14.336 0 28.672-2.048 40.96-8.192l-442.368-516.096-442.368 516.096c12.288 4.096 26.624 8.192 40.96 8.192v0zM10.24 146.944v602.112c0 2.048 0 4.096 0 6.144l294.912-344.064-290.816-290.816c-2.048 8.192-4.096 18.432-4.096 26.624v0zM913.408 46.592h-802.816c-8.192 0-18.432 2.048-26.624 4.096l284.672 284.672 141.312-165.888 141.312 165.888 284.672-284.672c-4.096-2.048-14.336-4.096-22.528-4.096zM1013.76 146.944c0-8.192-2.048-18.432-4.096-26.624l-290.816 290.816 294.912 344.064c0-2.048 0-4.096 0-6.144v-602.112z" />
<glyph unicode="&#xe924;" glyph-name="B4K-icons_facebook-s" d="M727.040 448h-141.312c0-225.28 0-501.76 0-501.76h-206.848c0 0 0 274.432 0 501.76h-98.304v176.128h98.304v114.688c0 81.92 38.912 210.944 210.944 210.944h153.6v-172.032c0 0-94.208 0-112.64 0s-45.056-8.192-45.056-49.152v-104.448h159.744l-18.432-176.128z" />
<glyph unicode="&#xe925;" glyph-name="B4K-icons_pinterest-s" d="M442.368 265.728c20.48-38.912 81.92-73.728 145.408-73.728 190.464 0 329.728 176.128 329.728 395.264 0 208.896-172.032 366.592-391.168 366.592-274.432 0-417.792-184.32-417.792-382.976 0-92.16 49.152-208.896 129.024-245.76 12.288-6.144 18.432-4.096 20.48 8.192 2.048 8.192 12.288 51.2 18.432 71.68 2.048 6.144 0 12.288-4.096 18.432-26.624 30.72-47.104 90.112-47.104 145.408 0 139.264 106.496 274.432 286.72 274.432 155.648 0 264.192-106.496 264.192-258.048 0-172.032-86.016-290.816-198.656-290.816-61.44 0-108.544 51.2-94.208 114.688 18.432 75.776 53.248 155.648 53.248 210.944 0 49.152-26.624 90.112-79.872 90.112-63.488 0-114.688-65.536-114.688-153.6 0-55.296 18.432-94.208 18.432-94.208s-63.488-266.24-73.728-315.392c-12.288-55.296-8.192-131.072-2.048-182.272 2.048-12.288 10.24-18.432 16.384-20.48s24.576 2.048 34.816 16.384c24.576 43.008 57.344 100.352 71.68 155.648 4.096 28.672 34.816 149.504 34.816 149.504z" />
<glyph unicode="&#xe926;" glyph-name="B4K-icons_twiter-s" d="M911.36 652.8v-26.624c0-272.384-206.848-585.728-585.728-585.728-116.736 0-225.28 34.816-315.392 92.16 16.384-2.048 32.768-2.048 49.152-2.048 96.256 0 184.32 32.768 256 88.064-90.112 2.048-165.888 61.44-192.512 143.36 12.288-2.048 24.576-4.096 38.912-4.096 18.432 0 36.864 2.048 53.248 6.144-94.208 18.432-165.888 102.4-165.888 202.752v2.048c28.672-16.384 59.392-24.576 94.208-26.624-55.296 36.864-92.16 100.352-92.16 172.032 0 36.864 10.24 73.728 28.672 104.448 102.4-124.928 253.952-206.848 423.936-215.040-4.096 14.336-6.144 30.72-6.144 47.104 0 112.64 92.16 206.848 206.848 206.848 59.392 0 112.64-24.576 149.504-65.536 47.104 8.192 92.16 24.576 131.072 49.152-16.384-47.104-47.104-88.064-90.112-114.688 40.96 4.096 81.92 16.384 118.784 32.768-26.624-40.96-63.488-77.824-102.4-106.496v0z" />
<glyph unicode="&#xe927;" glyph-name="B4K-icons_alert" d="M512 949.76c-277.115 0-501.76-224.645-501.76-501.76s224.645-501.76 501.76-501.76c277.115 0 501.76 224.645 501.76 501.76s-224.645 501.76-501.76 501.76zM601.17 183.89c0-49.254-39.916-89.17-89.17-89.17s-89.17 39.936-89.17 89.17v0c0 49.254 39.916 89.17 89.17 89.17s89.17-39.916 89.17-89.17v0zM601.17 416.85c0-46.776-37.929-84.705-84.705-84.705h-8.929c-46.776 0-84.705 37.929-84.705 84.705v299.725c0 46.776 37.929 84.705 84.705 84.705h8.929c46.776 0 84.705-37.929 84.705-84.705v-299.725z" />
<glyph unicode="&#xe928;" glyph-name="B4K-icons_back" d="M345.436 279.388l298.25-298.23c46.572-46.572 122.061-46.551 168.591 0s46.572 122.040 0 168.591l-298.25 298.25 298.25 298.25c46.572 46.572 46.531 122.061 0 168.591-46.531 46.551-122.020 46.572-168.591 0l-466.883-466.842 168.632-168.612z" />
<glyph unicode="&#xe929;" glyph-name="B4K-icons_next" d="M678.564 616.612l-298.25 298.23c-46.572 46.572-122.061 46.551-168.591 0s-46.572-122.040 0-168.591l298.25-298.25-298.25-298.25c-46.572-46.572-46.531-122.061 0-168.591 46.531-46.551 122.020-46.572 168.591 0l466.883 466.842-168.632 168.612z" />
<glyph unicode="&#xe92a;" glyph-name="B4K-icons_success" d="M512 949.76c-277.115 0-501.76-224.645-501.76-501.76s224.645-501.76 501.76-501.76 501.76 224.645 501.76 501.76c0 277.115-224.645 501.76-501.76 501.76zM333.66 724.46c49.254 0 89.17-39.916 89.17-89.17s-39.936-89.17-89.17-89.17-89.17 39.916-89.17 89.17c-0.020 49.254 39.916 89.17 89.17 89.17zM267.203 412.774c7.332 4.301 15.34 6.349 23.245 6.349 15.79 0 31.171-8.131 39.731-22.733 0.737-1.249 79.974-132.813 185.405-132.813 104.325 0 176.763 130.191 177.48 131.502 12.186 22.262 40.12 30.515 62.382 18.391 22.282-12.124 30.597-39.936 18.514-62.259-3.953-7.332-98.959-179.671-258.396-179.671-158.331 0-260.506 170.988-264.786 178.258-12.82 21.914-5.489 50.115 16.425 62.976zM690.36 546.12c-49.254 0-89.17 39.916-89.17 89.17s39.916 89.17 89.17 89.17c49.254 0 89.17-39.916 89.17-89.17s-39.936-89.17-89.17-89.17z" />
<glyph unicode="&#xe92b;" glyph-name="B4K-icons_alimentos" d="M516.035 3.912v0c-26.849 0-47.063 19.538-47.063 43.622v306.483l-35.635 42.25v406.221c0 50.033 51.302 90.952 88.965 90.952v0c18.145 0 32.85-19.538 32.85-43.622v-802.263c0-24.105-10.957-43.643-39.117-43.643zM284.549 867.492c-0.717 0-1.29-0.573-1.29-1.29v-232.509c0-10.588-8.581-19.169-19.169-19.169s-19.169 8.581-19.169 19.169v232.509c0 0.717-0.573 1.29-1.29 1.29h-54.047c-0.717 0-1.29-0.573-1.29-1.29v-232.509c0-10.588-8.581-19.169-19.169-19.169s-19.169 8.581-19.169 19.169v232.509c0 0.717-0.573 1.29-1.29 1.29h-37.745c-0.717 0-1.29-0.573-1.29-1.29v-252.908c0-42.906 25.395-79.688 61.85-96.727 0.43-0.205 0.717-0.635 0.717-1.106v-463.708c0-22.733 15.442-44.196 37.949-47.391 27.402-3.871 50.872 17.306 50.872 43.95v467.149c0 0.471 0.266 0.901 0.717 1.106 36.454 17.039 61.85 53.821 61.85 96.727v252.908c0 0.717-0.573 1.29-1.29 1.29h-37.745zM802.509 893.44h-10.199c-61.768 0-111.841-50.074-111.841-111.841v-152.556c0-47.882 30.228-88.412 72.54-104.366v-472.924c0-22.733 15.442-44.196 37.949-47.391 27.402-3.871 50.872 17.306 50.872 43.95v476.344c42.291 15.954 72.54 56.484 72.54 104.366v152.576c0 61.768-50.074 111.841-111.862 111.841z" />
<glyph unicode="&#xe92c;" glyph-name="B4K-icons_aprendizaje" d="M215.020 444.662c17.695-108.319 142.93-162.263 264.069-120.136-2.58-38.072 18.289-61.624 45.466-84.644 28.754-24.371 36.475-61.235 38.461-97.853 1.659-30.884 0.307-61.911 1.72-92.815 0.348-7.516 4.526-18.555 10.076-21.053 5.12-2.314 14.418 4.649 21.852 7.578 0.614 0.246 0.983 1.044 1.556 1.475 34.324 26.952 50.708 61.112 43.192 105.37-1.29 7.598-0.184 15.606-0.184 29.020 30.843 1.065 60.334 2.437 89.846 3.031 83.313 1.679 134.205 49.5 139.837 132.833 58.655 14.541 82.309 56.177 86.323 113.459 0.778 11.080 9.073 21.647 9.81 32.727 1.536 22.692 3.543 46.182-0.553 68.239-5.161 27.812-13.394 55.89-25.62 81.285-9.277 19.251-27.054 34.324-40.714 51.548-4.547 5.734-10.568 11.96-11.592 18.616-9.503 61.583-45.957 100.106-101.929 123.126-7.434 3.052-15.34 7.905-20.070 14.152-39.117 51.712-95.56 71.782-158.167 56.484-7.148-1.741-16.957 0.246-23.45 4.055-39.506 23.163-80.732 28.16-124.58 15.524-7.25-2.089-15.483-2.806-22.938-1.761-55.48 7.7-107.254-1.884-155.32-31.089-6.574-3.994-14.008-8.294-21.381-9.052-42.967-4.383-74.854-26.685-101.437-59.085-6.615-8.049-14.991-14.991-23.532-21.033-49.603-35.144-77.947-79.77-65.966-143.237 0.778-4.116 0.696-8.724-0.287-12.82-8.868-37.56 2.232-67.891 32.276-91.75 3.236-2.58 6.185-5.919 8.274-9.482 28.672-49.091 44.954-59.023 104.96-62.71z" />
<glyph unicode="&#xe92d;" glyph-name="search" d="M971.571 79.36l-324.198 325.222c-1.666 1.311-3.538 2.596-5.492 3.758l-0.242 0.133c39.436 53.815 63.103 121.338 63.103 194.388 0 182.782-148.174 330.957-330.957 330.957s-330.957-148.174-330.957-330.957c0-182.782 148.174-330.957 330.957-330.957 70.905 0 136.601 22.297 190.461 60.263l-1.046-0.699c1.458-2.579 2.948-4.788 4.591-6.871l-0.086 0.112 323.994-324.198c10.038-9.275 23.51-14.963 38.31-14.963 31.218 0 56.525 25.307 56.525 56.525 0 14.8-5.688 28.272-14.998 38.349l0.035-0.038zM118.374 603.034c0 141.272 114.523 255.795 255.795 255.795s255.795-114.523 255.795-255.795c0-141.2-114.407-255.678-255.579-255.795h-0.011c-141.266 0.116-255.767 114.545-256 255.773v0.022z" />
<glyph unicode="&#xe92e;" glyph-name="check" d="M433.152-37.581l-357.99 634.88c-5.817 10.87-9.234 23.777-9.234 37.483 0 44.565 36.127 80.691 80.691 80.691 29.126 0 54.648-15.432 68.835-38.565l0.201-0.352 222.413-394.854 371.712 612.966c14.713 21.522 39.14 35.463 66.825 35.463 44.565 0 80.691-36.127 80.691-80.691 0-14.043-3.588-27.249-9.896-38.75l0.211 0.419z" />
<glyph unicode="&#xe92f;" glyph-name="like" d="M716.8 944.845c-1.879 0.049-4.092 0.077-6.312 0.077-79.436 0-150.542-35.667-198.177-91.86l-0.311-0.377c-47.946 56.57-119.052 92.237-198.488 92.237-2.219 0-4.432-0.028-6.638-0.083l0.327 0.006c-2.96 0.112-6.436 0.176-9.928 0.176-104.040 0-194.854-56.628-243.302-140.743l-0.722-1.36c-69.837-120.422-63.898-293.478 14.95-431.514 131.482-230.605 389.53-400.179 400.384-407.347 12.236-8.117 27.262-12.95 43.418-12.95s31.182 4.834 43.712 13.133l-0.294-0.183c10.854 7.168 268.902 177.152 400.384 407.347 78.848 137.626 84.787 311.091 14.746 431.718-49.199 85.358-139.95 141.894-243.906 141.894-3.461 0-6.907-0.063-10.337-0.187l0.496 0.014z" />
<glyph unicode="&#xe930;" glyph-name="nolike" d="M716.8 874.394c2.815 0.135 6.115 0.212 9.432 0.212 78.013 0 146.067-42.639 182.129-105.882l0.541-1.031c56.73-97.894 50.586-245.76-14.95-361.267-122.88-215.859-375.398-381.747-377.856-383.386-1.357-0.897-3.023-1.431-4.813-1.431s-3.456 0.534-4.846 1.452l0.033-0.020c-1.843 1.638-253.542 167.526-377.242 384-65.741 114.688-71.885 263.373-14.95 361.267 36.682 63.961 104.568 106.353 182.355 106.353 3.717 0 7.411-0.097 11.081-0.288l-0.514 0.021c1.708 0.054 3.717 0.085 5.733 0.085 80.055 0 148.745-48.657 178.11-118.011l0.477-1.268c8.096-17.453 15.134-37.957 20.058-59.269l0.422-2.171c5.346 23.483 12.384 43.987 21.305 63.448l-0.825-2.008c29.794 70.73 98.539 119.481 178.67 119.481 1.987 0 3.966-0.030 5.939-0.089l-0.289 0.007zM716.8 944.845c-1.879 0.049-4.092 0.077-6.312 0.077-79.436 0-150.542-35.667-198.177-91.86l-0.311-0.377c-47.946 56.57-119.052 92.237-198.488 92.237-2.219 0-4.432-0.028-6.638-0.083l0.327 0.006c-2.96 0.112-6.436 0.176-9.928 0.176-104.040 0-194.854-56.628-243.302-140.743l-0.722-1.36c-69.837-120.422-63.898-293.478 14.95-431.514 131.482-230.605 389.53-400.179 400.384-407.347 12.236-8.117 27.262-12.95 43.418-12.95s31.182 4.834 43.712 13.133l-0.294-0.183c10.854 7.168 268.902 177.152 400.384 407.347 78.848 137.626 84.787 311.091 14.746 431.718-49.199 85.358-139.95 141.894-243.906 141.894-3.461 0-6.907-0.063-10.337-0.187l0.496 0.014z" />
<glyph unicode="&#xe931;" glyph-name="especiales" d="M23.962 638.259c1.397 0.873 2.6 1.75 3.737 2.704l-0.050-0.041 180.019 180.019c2.181 2.399 5.315 3.899 8.799 3.899 0.147 0 0.293-0.003 0.438-0.008l-0.021 0.001h600.883c2.446-0.020 4.671-0.949 6.358-2.465l-0.009 0.008 175.923-183.501-505.037-567.706zM814.694 741.888c0-1.843 0-2.458 0-3.072 0-37.274-1.638-74.547-2.458-112.026 0-3.686 0-4.915-4.71-4.915h-148.48c-4.096 0-5.12 1.229-4.915 5.12 0.173 2.42 0.272 5.243 0.272 8.090s-0.099 5.67-0.293 8.467l0.021-0.377c-2.94 29.115-19.348 53.861-42.816 68.178l-0.397 0.225c-24.116 14.165-52.874 23.046-83.592 24.358l-0.376 0.013c-10.297 0.993-22.262 1.559-34.359 1.559-16.766 0-33.279-1.087-49.471-3.195l1.909 0.203c-27.8-2.898-53.246-10.15-76.62-21.093l1.458 0.613c-16.84-7.657-30.699-19.347-40.746-33.874l-0.214-0.327c-5.972-7.524-9.581-17.158-9.581-27.635 0-17.722 10.325-33.032 25.288-40.243l0.267-0.116c8.465-4.274 18.349-7.99 28.663-10.63l1.033-0.224c24.066-5.782 51.835-9.338 80.351-9.826l0.34-0.005c38.707-1.638 77.414-2.662 115.917-4.096 38.795-0.949 75.981-5.081 112.115-12.151l-4.185 0.682c26.176-4.643 49.563-13.427 70.64-25.734l-1.008 0.544c22.57-13.203 38.887-35.017 44.533-60.822l0.113-0.618c0.389-1.042 0.803-1.919 1.278-2.757l-0.049 0.094 126.976 147.866zM317.44 376.934c3.682 5.612 7.456 10.492 11.568 15.062l-0.099-0.112c7.964 6.914 18.101 11.52 29.263 12.678l0.229 0.019c7.85 1.4 16.888 2.2 26.112 2.2s18.262-0.8 27.046-2.335l-0.934 0.135c25.628-3.826 48.683-12.099 69.341-24.053l-0.938 0.501c12.497-6.192 22.359-16.12 28.307-28.308l0.16-0.364c0.829-1.135 2.041-1.947 3.444-2.246l0.038-0.007c13.057-3.742 28.053-5.895 43.552-5.895 6.302 0 12.52 0.356 18.637 1.048l-0.749-0.069c30.076 2.074 57.946 9.408 83.406 21.091l-1.486-0.611c11.606 4.973 21.481 11.894 29.665 20.447l0.031 0.033c4.282 3.772 6.97 9.268 6.97 15.392 0 4.986-1.782 9.556-4.744 13.108l0.027-0.033c-3.48 4.31-7.614 7.923-12.284 10.737l-0.209 0.117c-11.306 6.303-24.498 10.84-38.51 12.832l-0.607 0.071c-29.514 5.163-63.77 8.347-98.684 8.802l-0.439 0.005c-40.96 1.434-81.92 2.253-122.88 3.277-38.611 0.687-75.828 3.642-112.357 8.746l4.837-0.554c-22.031 2.535-42.119 7.58-61.071 14.907l1.679-0.571c-7.782 3.277-15.155 7.373-23.142 11.469zM623.411 297.472c-14.131-3.482-27.034-6.963-40.96-9.83-19.733-4.286-42.401-6.741-65.642-6.741-16.147 0-32.016 1.185-47.527 3.472l1.758-0.213c-31.742 4.552-59.439 10.559-86.4 18.305l4.48-1.101-6.144 1.434 117.35-132.915zM177.152 554.086v0 4.301c-2.557 10.21-4.024 21.932-4.024 33.995 0 7.516 0.569 14.899 1.668 22.109l-0.101-0.808c4.653 28.657 16.809 53.885 34.37 74.338l-0.168-0.201c22.682 26.064 49.85 47.542 80.408 63.389l1.512 0.713 16.384 10.035h-72.090c-0.147 0.008-0.319 0.013-0.492 0.013-2.732 0-5.185-1.188-6.873-3.076l-0.008-0.009-118.579-122.88-2.662-3.072zM691.814 700.723v0l17.613 60.006h-79.462c27.971-11.157 49.891-32.478 61.571-59.288l0.279-0.719z" />
<glyph unicode="&#xe932;" glyph-name="deportes" d="M512 898.56c-248.837 0-450.56-201.723-450.56-450.56s201.723-450.56 450.56-450.56c248.837 0 450.56 201.723 450.56 450.56v0c0 248.837-201.723 450.56-450.56 450.56v0zM761.446 668.16h111.206c33.132-52.61 55.176-115.349 61.319-182.684l0.121-1.636-90.726-65.946-131.277 95.437zM609.075 859.648l34.202-105.472-131.277-95.437-131.277 95.437 34.202 105.472c29.121 7.399 62.551 11.645 96.973 11.645s67.852-4.246 99.796-12.243l-2.823 0.598zM90.522 484.454c6.265 68.972 28.308 131.71 62.464 186.067l-1.024-1.747h111.206l50.176-154.419-131.891-95.846zM643.482 478.515l-49.562-153.395h-163.84l-50.176 154.419 132.096 94.413zM191.898 171.315l34.816 107.315h162.406l50.176-154.419-92.57-65.331c-61.43 26.612-113.23 65.018-154.584 112.724l-0.45 0.53zM677.274 58.88l-92.16 66.97 49.766 153.805h162.202l34.816-107.315c-41.678-48.28-93.338-86.745-151.892-112.392l-2.732-1.067z" />
<glyph unicode="&#xe933;" glyph-name="naturaleza" d="M803.43 565.965c0.066 0.889 0.104 1.925 0.104 2.97s-0.038 2.081-0.112 3.107l0.008-0.138c5.172 7.215 8.27 16.221 8.27 25.951 0 8.406-2.312 16.271-6.336 22.995l0.113-0.204c-1.625 2.624-3.382 4.902-5.345 6.985l0.020-0.021c-4.164 5.815-9.517 10.514-15.729 13.808l-0.245 0.119c-1.469 0.675-3.302 1.371-5.184 1.956l-0.345 0.092c0.079 0.737 0.124 1.592 0.124 2.457 0 10.106-6.151 18.776-14.914 22.468l-0.16 0.060-5.12 1.843c9.026 5.861 15.892 14.381 19.553 24.44l0.108 0.34c1.456 4.029 2.297 8.679 2.297 13.525 0 19.073-13.037 35.101-30.685 39.661l-0.284 0.062c3.145 5.662 4.997 12.417 4.997 19.605 0 15.689-8.821 29.318-21.774 36.198l-0.222 0.107-2.662 1.024c-1.627 22.647-20.16 40.469-42.96 40.959l-0.048 0.001h-3.891c-6.124 11.12-17.766 18.529-31.139 18.529-8.12 0-15.603-2.732-21.578-7.326l0.084 0.062c-2.101-1.729-3.924-3.681-5.467-5.847l-0.062-0.092c-3.988-1.658-7.428-3.651-10.563-6.025l0.118 0.086c-3.158-2.457-5.864-5.293-8.109-8.477l-0.083-0.124c-0.784 4.977-2.214 9.454-4.221 13.599l0.125-0.287c-5.868 12.756-16.925 22.27-30.391 25.933l-0.329 0.076c-9.494 13.796-25.198 22.725-42.987 22.725-5.868 0-11.509-0.972-16.772-2.763l0.366 0.108c-4.71 1.428-10.124 2.249-15.729 2.249-1.672 0-3.328-0.073-4.963-0.216l0.212 0.015c-29.901-2.253-66.765-22.118-68.608-53.043-4.34 2.027-9.408 3.723-14.691 4.834l-0.464 0.082c-4.683 3.517-10.594 5.632-16.998 5.632-5.366 0-10.385-1.485-14.669-4.065l0.128 0.072c-32.358 8.602-69.018 3.482-87.040-28.058-3.987-7.084-6.336-15.55-6.336-24.565 0-2.751 0.219-5.451 0.64-8.083l-0.038 0.29c-7.312-0.062-14.355-1.105-21.039-3.003l0.559 0.136c-18.832-4.763-32.547-21.558-32.547-41.556 0-7.271 1.813-14.118 5.011-20.114l-0.112 0.231c-10.713-7.707-18.211-19.301-20.44-32.679l-0.040-0.294c-0.531-2.638-0.835-5.67-0.835-8.773 0-17.495 9.664-32.733 23.945-40.667l0.237-0.121v-1.024c-0.615-2.739-0.967-5.885-0.967-9.114s0.352-6.374 1.021-9.402l-0.053 0.288c-22.676-1.59-40.47-20.376-40.47-43.317 0-15.278 7.892-28.714 19.821-36.452l0.169-0.103c0.896-1.314 1.771-2.449 2.705-3.532l-0.042 0.050c3.332-3.561 7.263-6.51 11.642-8.699l0.237-0.107c-44.851-21.094-79.872-64.922-42.598-97.894-3.537-5.672-5.634-12.56-5.634-19.937 0-1.708 0.112-3.389 0.33-5.037l-0.021 0.193c-0.093-1.172-0.146-2.539-0.146-3.917 0-21.884 13.356-40.649 32.362-48.588l0.348-0.129c4.243-2.192 9.208-4.148 14.384-5.599l0.567-0.136c4.22-4.2 9.353-7.486 15.074-9.536l0.286-0.089c8.051-9.433 19.953-15.376 33.242-15.376 2.144 0 4.253 0.155 6.314 0.454l-0.235-0.028c5.957-3.416 13.096-5.431 20.706-5.431 3.112 0 6.145 0.337 9.065 0.976l-0.279-0.051c12.312-18.107 32.818-29.844 56.065-29.844 20.343 0 38.586 8.988 50.976 23.209l0.069 0.081c11.712-7.294 25.633-12.2 40.559-13.689l0.401-0.032q-10.445-122.88-8.602-247.194c0-16.966 13.754-30.72 30.72-30.72s30.72 13.754 30.72 30.72v0c-0.153 10.334-0.24 22.532-0.24 34.751 0 81.506 3.88 162.106 11.467 241.624l-0.782-10.136c4.282-1.534 9.277-2.689 14.45-3.251l0.296-0.026c1.672-0.119 3.624-0.187 5.591-0.187 17.216 0 33.218 5.194 46.527 14.1l-0.303-0.191c9.143-2.602 19.643-4.098 30.493-4.098 15.193 0 29.701 2.933 42.988 8.264l-0.778-0.275c15.472 7.154 28.125 18.163 37.068 31.82l0.205 0.334c37.478 7.782 76.8 36.864 83.763 70.656 15.92 9.801 27.403 25.502 31.455 43.986l0.084 0.456c6.472 9.33 10.339 20.892 10.339 33.358 0 20.315-10.27 38.231-25.902 48.84l-0.206 0.132zM471.040 343.552c-2.712-5.887-7.787-10.292-13.977-12.046l-0.154-0.037c-10.24-2.662-33.178 24.371-33.178 24.371l53.862 44.851zM592.691 396.8c-17.751-17.787-36.517-34.54-56.211-50.175l-1.338-1.025s-3.891 71.68 18.022 85.811c13.13 8.278 28.628 14.131 45.245 16.515l0.63 0.074c3.236-6.092 5.137-13.321 5.137-20.993 0-11.616-4.357-22.215-11.525-30.252l0.039 0.045z" />
<glyph unicode="&#xe934;" glyph-name="biblioteca-list" d="M0 960h159.13v-162.406h-159.13v162.406zM280.986 960h743.014v-162.406h-743.014v162.406zM0 672.87h159.13v-162.406h-159.13v162.406zM280.986 672.87h743.014v-162.406h-743.014v162.406zM0 385.536h159.13v-162.406h-159.13v162.406zM280.986 385.536h743.014v-162.406h-743.014v162.406zM0 98.406h159.13v-162.406h-159.13v162.406zM280.986 98.406h743.014v-162.406h-743.014v162.406z" />
<glyph unicode="&#xe935;" glyph-name="biblioteca" d="M6.963 89.395h1024v-154.419h-1024v154.419zM89.702 960h154.419v-798.72h-154.419v798.72zM330.342 960h154.419v-798.72h-154.419v798.72zM516.911 886.174l138.921 67.426 348.757-718.556-138.921-67.426-348.757 718.556z" />
<glyph unicode="&#xe936;" glyph-name="coment" d="M89.293 16.282c-3.891 1.638 83.968 185.958 92.16 197.632-109.363 71.885-171.213 174.694-171.213 286.106 0 209.51 225.075 379.904 501.76 379.904s501.76-170.394 501.76-379.699-225.075-379.904-501.76-379.904c-0.243 0-0.53-0.001-0.816-0.001-31.273 0-62.042 2.159-92.166 6.335l3.485-0.396c-16.794-2.253-327.066-112.23-333.21-109.978zM512 793.907c-229.171 0-415.744-131.686-415.744-293.683 1.856-103.467 65.661-191.579 155.817-228.966l1.674-0.615c43.622-19.251-15.155-89.907-35.84-149.094 13.926 5.734 187.187 94.413 214.221 90.522 23.939-3.574 51.627-5.656 79.786-5.734h0.086c229.171 0 415.744 131.686 415.744 293.683s-186.573 293.888-415.744 293.888z" />
<glyph unicode="&#xe937;" glyph-name="ike" d="M512 10.752c-7.75 0.218-14.838 2.878-20.568 7.232l0.088-0.064c-20.48 13.722-472.678 344.678-472.678 601.702 0 172.442 138.65 266.24 268.902 266.24 117.555 0 187.187-51.814 224.256-105.267 37.069 53.453 106.701 105.267 224.256 105.267 130.458 0 268.902-92.979 268.902-266.24 0-257.024-452.198-587.981-472.678-601.702-5.642-4.29-12.73-6.95-20.43-7.167l-0.050-0.001z" />
<glyph unicode="&#xe938;" glyph-name="no-like" d="M512 10.752c-7.75 0.218-14.838 2.878-20.568 7.232l0.088-0.064c-20.48 13.722-472.678 344.678-472.678 601.702 0 172.442 138.65 266.24 268.902 266.24 117.555 0 187.187-51.814 224.256-105.267 37.069 53.453 106.701 105.267 224.256 105.267 130.458 0 268.902-92.979 268.902-266.24 0-257.024-452.198-587.981-472.678-601.702-5.642-4.29-12.73-6.95-20.43-7.167l-0.050-0.001zM287.744 813.773c-95.642 0-197.427-67.994-197.427-194.15 0-173.466 286.72-426.598 421.683-528.589 134.963 102.4 421.683 354.918 421.683 528.589 0 125.952-102.4 194.15-197.427 194.15-171.418 0-224.256-165.683-224.256-165.683s-52.838 165.683-224.256 165.683z" />
<glyph unicode="&#xe939;" glyph-name="trash" d="M861.389 786.944c-13.926 13.926-157.491 25.6-174.694 25.6s-68.198 95.846-68.198 95.846h-213.197s-50.995-95.846-67.994-95.846-160.768-11.674-174.694-25.6-29.696-72.704-29.696-72.704h757.76s-15.36 58.982-29.286 72.704zM179.61 638.054l36.25-596.173c1.937-15.169 8.939-28.425 19.228-38.275l0.023-0.022c19.251-20.48 23.347-14.95 23.347-14.95h507.085s4.301-6.349 23.347 14.95c10.312 9.872 17.314 23.128 19.218 37.979l0.033 0.318 36.25 596.173zM372.736 73.216h-78.438v471.040h78.438zM551.117 73.216h-78.438v471.040h78.438zM729.498 73.216h-78.234v471.040h78.438z" />
<glyph unicode="&#xe93a;" glyph-name="facebookInvert" horiz-adv-x="905" d="M797.64 960h-690.683c-59.071 0-106.957-47.886-106.957-106.957v0-810.087c0-59.071 47.886-106.957 106.957-106.957v0h336.059v459.471h-90.713v162.228h90.713v105.48c0 74.68 36.074 191.341 193.028 191.341h141.554v-157.587h-102.527c-0.623 0.036-1.352 0.056-2.085 0.056-21.438 0-38.817-17.379-38.817-38.817 0-1.955 0.145-3.876 0.423-5.753l-0.026 0.212v-95.354h145.984l-16.666-162.228h-129.74v-459.049h163.494c59.071 0 106.957 47.886 106.957 106.957v0 810.087c0 59.071-47.886 106.957-106.957 106.957v0z" />
<glyph unicode="&#xe93b;" glyph-name="instagram" d="M10.035 224.154v447.693c0 6.144 1.229 12.493 1.843 18.637 3.552 33.21 12.396 63.571 25.71 91.383l-0.725-1.681c28.678 61.373 76.243 109.929 135.112 139.119l1.694 0.76c27.793 14.233 60.18 24.111 94.431 27.748l1.211 0.104 19.251 1.843h449.946c21.588-1.435 41.707-5.081 60.964-10.739l-1.981 0.499c123.807-34.24 213.594-144.877 215.856-276.839l0.003-0.255c0-143.36 0-284.672 0-427.008-0.131-29.872-4.84-58.598-13.459-85.576l0.557 2.017c-38.282-119.385-148.116-204.366-277.862-204.8h-418.458c-9.216 0-18.637 0-27.853 1.229-34.917 2.794-67.129 11.639-96.512 25.497l1.689-0.716c-58.37 26.826-105.128 70.548-135.024 124.858l-0.758 1.503c-17.378 30.685-29.373 66.685-33.675 105.011l-0.117 1.28c-0.614 6.144-1.229 12.288-1.843 18.432zM87.245 448q0-104.653 0-209.101c0-0.15-0.001-0.327-0.001-0.504 0-16.577 1.79-32.736 5.189-48.294l-0.273 1.489c21.495-96.651 106.3-167.912 207.824-168.345h419.888c10.354 0.030 20.52 0.699 30.499 1.969l-1.212-0.126c44.091 5.064 83.152 23.445 113.858 50.961l-0.194-0.171c45.013 38.621 73.351 95.571 73.351 159.139 0 1.293-0.012 2.583-0.035 3.871l0.003-0.193q0 209.101 0 418.406c0 0.036 0 0.079 0 0.121 0 8.977-0.521 17.833-1.534 26.538l0.1-1.059c-4.389 42.814-21.218 81.034-46.762 111.748l0.272-0.337c-37.837 47.828-95.874 78.24-161.014 78.24-0.562 0-1.123-0.002-1.683-0.007l0.086 0.001c-140.698 0-281.6 0-422.298 0-0.676 0.008-1.475 0.012-2.275 0.012-78.977 0-147.953-42.82-184.978-106.511l-0.548-1.021c-17.648-30.015-28.072-66.116-28.072-104.651 0-0.865 0.005-1.728 0.016-2.591l-0.001 0.131q-0.205-104.858-0.205-209.715zM241.664 448c0 149.189 120.942 270.131 270.131 270.131s270.131-120.942 270.131-270.131c0-149.117-120.825-270.014-269.915-270.131h-0.012c-149.091 0.348-269.871 121.058-270.336 270.087v0.044zM704.922 448c0 0.061 0 0.133 0 0.205 0 106.661-86.466 193.126-193.126 193.126s-193.126-86.466-193.126-193.126c0-106.661 86.466-193.126 193.126-193.126 0.072 0 0.144 0 0.216 0h-0.011c0.122 0 0.266 0 0.41 0 106.321 0 192.512 86.191 192.512 192.512 0 0.144 0 0.288 0 0.433v-0.023zM860.16 737.382c-0.463-31.655-26.232-57.138-57.953-57.138-32.010 0-57.958 25.949-57.958 57.958 0 31.863 25.713 57.721 57.521 57.957h0.022c0.062 0 0.135 0 0.208 0 32.123 0 58.163-26.041 58.163-58.163 0-0.216-0.001-0.432-0.004-0.648v0.033z" />
<glyph unicode="&#xe93c;" glyph-name="edit" d="M593.744 886.361l-457.581-457.581-136.163-492.78 492.78 136.163 457.118 457.118c45.686 45.609 73.949 108.658 73.949 178.308s-28.263 132.699-73.945 178.305l-0.004 0.004c-45.609 45.686-108.658 73.949-178.309 73.949-69.42 0-132.283-28.076-177.852-73.492l0.007 0.007zM451.097 145.339l-193.129-55.114-103.743 103.743 53.261 193.129 243.148-243.148z" />
</font>
</defs>
</svg>
