<?xml version="1.0" encoding="utf-8"?>
<!-- Generator: Adobe Illustrator 23.0.1, SVG Export Plug-In . SVG Version: 6.00 Build 0)  -->
<svg version="1.1" id="Capa_1" xmlns="http://www.w3.org/2000/svg" xmlns:xlink="http://www.w3.org/1999/xlink" x="0px" y="0px"
	 viewBox="0 0 880 600" style="enable-background:new 0 0 880 600;" xml:space="preserve">
<style type="text/css">
	.st0{fill:#FFFFFF;}
</style>
<g>
	<path class="st0" d="M444.6-0.8c-11.4,4.8-22.9,9.5-34.3,14.4c-0.1,0.1-6.1,2.3-7.5,2.9c-33.1,13.7-66.1,27.4-99.2,41.2
		c-5.2,2.2-10.4,4.5-16.4,7c21.1,11.8,41.3,23.1,61.6,34.3c0.8,0.5,3.6,2.2,5,3c25.3,14.2,50.5,28.4,75.8,42.5
		c3.9,2.2,7.8,4.2,12.8,7c0-15.1,0-29.2,0-43c1.1-0.4,1.4-0.5,1.6-0.5c19.1,2,38.2,3.2,57.1,6.1c24.3,3.6,48.6,7.9,72.7,13
		c41,8.8,80.9,21.2,119.4,38c36.6,16,71.4,35.4,101.7,62.1c18.5,16.3,34.8,34.5,44.8,57.7c5.4,12.7,8.1,25.8,5.9,39.6
		c-3.3,20.5-13.5,37.6-26.3,53.3c-17.5,21.5-38.9,38.4-62,53.1c-38.4,24.5-80.1,41.7-123.2,55.5c-4.6,1.5-5.1,3.6-4.7,7.6
		c1.2,10.8,2.2,21.5,3.3,32.3c0.8,7.5,1.7,14.9,2.6,22.6c1.6-0.4,2.9-0.6,4-1c14.3-5.1,28.8-10,43-15.5
		c38.7-15.1,75.5-33.8,108.8-59.1c29.7-22.5,55.1-48.8,71.7-83c9.4-19.4,15.1-39.9,16.8-61.4c1.6-20.7-0.2-41-5.9-61
		c-3.5-12.3-8.3-24.2-14.9-35.9l-15.9-24.8c-22.7-29.6-51.2-52.4-82.7-71.6c-22.3-13.6-45.6-24.8-69.7-34.7
		c-26.4-10.9-53.4-19.8-80.8-27.1c-36.2-9.7-72.8-17.3-110.1-21.9c-17.2-2.1-34.4-4-51.6-5.7c-3.6-0.4-4.3-1.6-4.2-5.1
		c0.4-10.8,0.5-21.7,0.6-32.5"/>
	<path class="st0" d="M436.3,599.2c11.4-4.8,22.9-9.5,34.3-14.4c0.1-0.1,6.1-2.3,7.5-2.9c33.1-13.7,66.1-27.4,99.2-41.2
		c5.2-2.2,10.4-4.5,16.4-7c-21.1-11.8-41.3-23.1-61.6-34.3c-0.8-0.5-3.6-2.2-5-3c-25.3-14.2-50.5-28.4-75.8-42.5
		c-3.9-2.2-7.8-4.2-12.8-7c0,15.1,0,29.2,0,43c-1.1,0.4-1.4,0.5-1.6,0.5c-19.1-2-38.2-3.2-57.1-6.1c-24.3-3.6-48.6-7.9-72.7-13
		c-41-8.8-80.9-21.2-119.4-38c-36.6-16-71.4-35.4-101.7-62.1c-18.5-16.3-34.8-34.5-44.8-57.7c-5.4-12.7-8.1-25.8-5.9-39.6
		c3.3-20.5,13.5-37.6,26.3-53.3c17.5-21.5,38.9-38.4,62-53.1c38.4-24.5,80.1-41.7,123.2-55.5c4.6-1.5,5.1-3.6,4.7-7.6
		c-1.2-10.8-2.2-21.5-3.3-32.3c-0.8-7.5-1.7-14.9-2.6-22.6c-1.6,0.4-2.9,0.6-4,1c-14.3,5.1-28.8,10-43,15.5
		c-38.7,15.1-75.5,33.8-108.8,59.1c-29.7,22.5-55.1,48.8-71.7,83C8.3,227.2,2.7,247.7,1,269.2c-1.6,20.7,0.2,41,5.9,61
		c3.5,12.3,8.3,24.2,14.9,35.9L37.7,391c22.7,29.6,51.2,52.4,82.7,71.6c22.3,13.6,45.6,24.8,69.7,34.7
		c26.4,10.9,53.4,19.8,80.8,27.1c36.2,9.7,72.8,17.3,110.1,21.9c17.2,2.1,34.4,4,51.6,5.7c3.6,0.4,4.3,1.6,4.2,5.1
		c-0.4,10.8-0.5,21.7-0.6,32.5"/>
</g>
</svg>
